<?xml version="1.0" encoding="utf-8"?>
<!-- Generator: Adobe Illustrator 27.5.0, SVG Export Plug-In . SVG Version: 6.00 Build 0)  -->
<svg version="1.1" id="Layer_1" xmlns="http://www.w3.org/2000/svg" xmlns:xlink="http://www.w3.org/1999/xlink" x="0px" y="0px"
	 viewBox="0 0 4000 4000" style="enable-background:new 0 0 4000 4000;" xml:space="preserve">
<g>
	<g>
		<rect style="fill:#E7C0FF;" width="4000" height="4000"/>
	</g>
	<g>
		<g>
			<path style="fill:#FFFFFF;" d="M2989.448,2152.772c0,0,75.037,87.474,142.736,78.391c44.748-6.003,65.204-52.902,52.081-89.399
				c-25.966-72.219-133.168-59.805-133.92-15.31C3043.878,2125.716,2989.448,2152.772,2989.448,2152.772z"/>
			<path style="fill:#371A45;" d="M3122.328,2250.404c-72.747,0-143.835-81.851-146.99-85.527
				c-3.733-4.351-5.249-10.186-4.109-15.801c1.143-5.62,4.812-10.401,9.944-12.949c27.036-13.442,43.127-20.601,53.137-24.356
				c6.826-19.448,26.853-33.979,54.668-38.584c41.074-6.816,93.904,9.785,112.783,62.29c8.84,24.59,5.903,52.788-7.859,75.434
				c-13.113,21.577-34.153,35.313-59.246,38.682C3130.553,2250.141,3126.432,2250.404,3122.328,2250.404z M3020.624,2158.378
				c26.782,25.439,71.907,59.4,109.087,54.36c17.612-2.363,27.349-12.798,32.417-21.138c7.869-12.944,9.648-29.629,4.644-43.545
				c-11.672-32.466-45.356-42.539-71.719-38.189c-15.01,2.486-25.996,9.595-26.118,16.899c-0.09,5.244-2.388,10.205-6.328,13.662
				c-3.042,2.671-6.846,4.253-10.82,4.561C3047.235,2146.298,3034.64,2151.815,3020.624,2158.378z M3048.285,2144.931
				c0.002,0,0.002,0,0.002,0S3048.287,2144.931,3048.285,2144.931z M3048.238,2144.926c0.01,0,0.02,0,0.029,0.005
				C3048.258,2144.926,3048.248,2144.926,3048.238,2144.926z M3052.442,2144.819 M3003.561,2140.668"/>
		</g>
		<g>
			<path style="fill:#FFFFFF;" d="M1708.537,1963.23l3.207,349.134l1.162,125.301c37.228,22.959,77.523,42.619,119.817,59.072
				c30.954,12.038,62.976,22.356,95.696,31.047c180.655,47.778,382.457,44.618,539.131-2.649
				c283.834-85.61,470.252-349.599,470.252-349.599s65.626-19.613,124.046-52.891c46.337-26.398,88.12-61.396,89.189-102.063
				c8.04-312.231-492.468-189.114-492.468-189.114c-110.15,132.737-240.238,231.269-375.114,280.394
				c-70.738,25.794-142.777,38.018-213.933,34.44C1942.13,2139.935,1817.618,2083.094,1708.537,1963.23z"/>
		</g>
		<g>
			<path style="fill:#D8D8D8;" d="M1832.723,2496.737c201.802,78.546,449.803,84.217,634.827,28.398
				c283.834-85.61,470.252-349.599,470.252-349.599s65.626-19.613,124.046-52.891l-39.412-130.507l-190.601-25.33
				c0,0-106.99,324.734-384.502,461.329c-235.684,116.052-466.999-44.525-466.999-44.525L1832.723,2496.737z"/>
		</g>
		<g>
			<path style="fill:#371A45;" d="M2199.037,2581.19c-178.943,0.005-360.991-44.507-495.894-127.686
				c-8.738-5.39-11.455-16.841-6.067-25.581c5.388-8.745,16.839-11.46,25.583-6.069c197.866,122.012,501.978,157.173,739.531,85.503
				c274.17-82.705,458.596-339.951,460.427-342.539l3.704-5.24l6.152-1.846c51.36-15.376,198.34-73.662,199.99-137.607
				c1.582-61.421-17.151-106.978-57.271-139.268c-114.912-92.495-365.002-41.895-406.372-32.69
				c-165.417,197.246-370.42,312.783-563.247,317.197c-152.654,3.706-294.7-62.075-410.803-189.639
				c-6.912-7.593-6.36-19.351,1.233-26.265c7.598-6.909,19.355-6.353,26.262,1.235c110.195,121.069,238.777,180.674,382.456,177.5
				c183.638-4.209,380.288-116.694,539.524-308.613l3.914-4.717l5.952-1.465c12.402-3.057,305.352-73.423,444.395,38.491
				c49.072,39.497,73.003,96.421,71.125,169.189c-2.48,96.211-179.854,157.612-220.422,170.4
				c-28.682,38.926-208.342,270.645-476.282,351.47C2387.484,2568.729,2293.683,2581.186,2199.037,2581.19z"/>
		</g>
		<g>
			<path style="fill:#371A45;" d="M2390.436,2562.763c-3.713,0-7.463-1.113-10.725-3.423
				c-183.064-129.609-71.628-458.823-66.794-472.774c3.359-9.702,13.965-14.839,23.643-11.479
				c9.702,3.354,14.844,13.941,11.492,23.643c-1.089,3.154-107.161,316.773,53.145,430.269c8.379,5.933,10.364,17.534,4.431,25.913
				C2402.003,2560.028,2396.263,2562.763,2390.436,2562.763z"/>
		</g>
		<g>
			<g>
				<path style="fill:#FFFFFF;" d="M1017.393,1864.06c-121.719,61.52-288.064,427.588-303.636,660.603
					c-15.571,233.014,385.496,321.653,617.907,355.14c232.411,33.487,324.09-489.18,345.834-629.689
					C1711.453,2030.704,1197.754,1772.9,1017.393,1864.06z"/>
			</g>
			<g>
				<path style="fill:#D8D8D8;" d="M1331.67,2879.804c-232.41-33.486-633.454-122.149-617.931-355.161
					c2.065-30.511,6.662-63.288,13.467-97.371c54.939,61.472,151.769,32.554,173.35-26.894
					c69.374-191.099,147.837-315.333,217.99-395.842c81.189-93.173,217.629-116.788,324.771-55.197
					c139.559,80.225,250.57,194.955,234.154,300.786C1655.772,2390.622,1564.08,2913.291,1331.67,2879.804z"/>
			</g>
			<g>
				<path style="fill:#371A45;" d="M1353.368,2899.979c-8.02,0-16.138-0.591-24.355-1.777
					c-297.698-42.891-649.309-142.729-633.804-374.78c7.488-112.051,49.978-261.997,113.657-401.108
					c31.101-67.94,112.874-230.723,200.142-274.844l0,0c121.575-61.45,363.679,21.704,518.264,133.979
					c122.095,88.682,181.97,185.103,168.599,271.504c-15.952,103.091-45.366,253.364-94.907,383.853
					C1534.593,2811.611,1451.392,2899.979,1353.368,2899.979z M1025.78,1880.653c-113.813,57.524-278.376,419.346-293.472,645.249
					c-14.326,214.38,371.028,302.221,602.007,335.503c208.53,30.019,301.343-462.476,324.812-614.136
					c10.972-70.898-45.051-156.821-153.706-235.737C1341.139,1892.211,1121.485,1832.275,1025.78,1880.653L1025.78,1880.653z
					 M1017.393,1864.062h0.049H1017.393z"/>
			</g>
			<g>
				<path style="fill:#FFFFFF;" d="M972.201,2251.642l-95.326-59.038c-21.546-13.344-49.955-4.838-60.494,18.21
					c-36.257,79.3-99.928,245.698-22.536,295.766c93.792,60.677,150.412-49.883,196.657-207.365
					C995.829,2281.071,988.276,2261.598,972.201,2251.642z"/>
			</g>
			<g>
				<path style="fill:#D8D8D8;" d="M990.338,2298.919c-45.869,157.587-102.255,268.311-196.171,207.813
					c-38.59-24.786-42.269-78.558-31.756-136.043c5.536,17.966,15.398,32.864,31.107,42.951
					c84.092,54.114,138.134-28.953,181.375-160.145C989.018,2263.774,995.332,2281.954,990.338,2298.919z"/>
			</g>
			<g>
				<path style="fill:#371A45;" d="M843.753,2542.143c-19.233,0-39.192-6.602-59.641-19.765
					c-87.534-56.348-28.171-224.136,15.005-319.136c7.19-15.825,20.857-27.808,37.495-32.881
					c16.684-5.088,34.775-2.759,49.634,6.401l95.464,58.818c23.191,14.297,34.089,42.485,26.502,68.555
					c-41.721,143.276-82.105,212.847-135.032,232.632C863.59,2540.351,853.771,2542.143,843.753,2542.143z M854.42,2204.877
					c-2.319,0-4.656,0.346-6.963,1.05c-6.528,1.992-11.675,6.499-14.492,12.695c-64.065,140.967-74.805,242.832-28.726,272.495
					c20.984,13.506,39.282,17.046,55.92,10.82c58.044-21.694,98.921-162.07,112.353-208.198
					c2.927-10.059-1.313-20.962-10.315-26.509l-95.456-58.819C862.935,2206.069,858.714,2204.877,854.42,2204.877z"/>
			</g>
			<g>
				<path style="fill:#371A45;" d="M994.526,1873.398c46.91,27.122,92.482,55.64,135.479,88.725
					c9.083,7.198-0.661,21.288-10.594,15.276c-45.042-26.995-93.185-49.853-141.376-70.669
					C954.509,1895.671,971.383,1861.396,994.526,1873.398L994.526,1873.398z"/>
			</g>
		</g>
		<g>
			<path style="fill:#FFFFFF;" d="M1675.411,2727.936c20.165,345.048-331.113,705.532-685.683,382.89
				c0,0-136.115,226.298-287.353,100.826c-79.262-65.758-33.609-179.806,42.011-289.034
				c74.753-107.976,525.146,149.558,470.23-425.604"/>
		</g>
		<g>
			<path style="fill:#D8D8D8;" d="M702.383,3211.651c151.235,125.487,287.366-100.808,287.366-100.808
				c24.539,22.355,49.079,41.41,73.479,57.398c15.012-98.717,227.581-191.823,357.989-187.722
				c89.539,2.816,167.043,24.346,165.294,70.043c61.489-92.303,95.603-208.309,88.91-322.642l-460.817-230.896
				c54.935,575.15-395.471,317.622-470.206,425.588C668.78,3031.833,623.094,3145.886,702.383,3211.651z"/>
		</g>
		<g>
			<path style="fill:#371A45;" d="M797.323,3268.153c-37.166,0.005-72.991-14.131-106.819-42.197
				c-75.332-62.495-62.346-168.115,38.596-313.921c28.345-40.952,90.693-39.961,162.893-38.809
				c86.357,1.347,184.241,2.92,245.591-63.491c53.049-57.437,72.742-162.056,58.525-310.952
				c-0.976-10.219,6.519-19.297,16.738-20.273c10.247-0.977,19.299,6.518,20.273,16.738
				c15.481,162.134-6.836,273.252-68.225,339.712c-72.629,78.628-183.994,76.826-273.494,75.444
				c-58.989-0.947-114.688-1.826-131.731,22.793c-88.071,127.217-103.357,216.084-45.427,264.146
				c33.203,27.544,66.636,38.008,102.205,31.997c88.098-14.903,156.672-126.983,157.356-128.111l11.692-19.37l16.743,15.215
				c131.78,119.917,275.806,151.846,405.547,89.903c155.488-74.239,260.234-266.836,249.065-457.959
				c-0.598-10.249,7.224-19.043,17.476-19.644c10.166-0.576,19.043,7.222,19.644,17.476
				c12.014,205.581-101.606,413.203-270.164,493.677c-138.887,66.313-291.052,37.212-430.408-81.69
				c-25.62,36.084-88.992,113.267-170.625,127.139C814.229,3267.431,805.738,3268.153,797.323,3268.153z"/>
		</g>
		<g>
			<path style="fill:#371A45;" d="M1430.948,3185.995c-57.239,0-132.351-18.179-192.686-56.162
				c-69.995-44.067-148.618-130.166-125.674-290.102c1.46-10.166,10.886-17.193,21.043-15.762
				c10.164,1.46,17.222,10.879,15.764,21.045c-20.112,140.19,47.998,215.156,108.677,253.354
				c91.533,57.627,200.508,56.904,223.992,41.181c8.535-5.713,20.086-3.418,25.789,5.117c5.71,8.535,3.418,20.083-5.115,25.791
				C1487.374,3180.732,1461.749,3185.995,1430.948,3185.995z"/>
		</g>
		<g>
			<path style="fill:#D8D8D8;" d="M1355.081,1935.344c4.323,45.454,16.779,88.911,36.252,129.252l64.974-98.717
				C1456.307,1965.88,1419.545,1947.708,1355.081,1935.344z"/>
		</g>
		<g>
			<path style="fill:#FFFFFF;" d="M1980.313,2383.597c-128.81,390.655-291.268,665.357-760.388,495.382
				c0,0-81.814,201.6-380.56,281.066c0,0-137.777,262.381-312.889,193.397c-180.439-71.082-100.633-296.358,45.93-433.328
				c53.977-50.444,122.596-77.038,191.102-127.128c49.04-35.857,95.641-99.514,144.351-168.957
				c182.9-260.746,486.961-624.059,575.492-1009.366L1980.313,2383.597z"/>
		</g>
		<g>
			<path style="fill:#D8D8D8;" d="M422.618,3213.781c2.51,60.466,33.324,111.87,103.875,139.663
				c113.822,44.85,211.888-50.381,266.591-122.467c28.119-40.295,45.315-69.39,46.198-70.877
				c-3.3,0.558-139.756,25.144-199.153-98.67c0,0-2.695,50.706,36.392,93.512c34.718,38.018,19.428,100.111-28.769,118.237
				c-60.187,22.588-139.384,23.378-219.649-59.49C426.242,3213.642,424.383,3213.688,422.618,3213.781z"/>
		</g>
		<g>
			<path style="fill:#D8D8D8;" d="M1220.506,1924.337c28.258,77.616,71.667,147.935,126.649,207.425l109.174-165.875
				C1456.33,1965.887,1366.118,1921.269,1220.506,1924.337z"/>
		</g>
		<g>
			<path style="fill:#371A45;" d="M1989.141,2386.506c-6.896,44.455-20.126,87.259-35.972,129.202
				c-32.247,84.164-69.501,166.979-121.666,241.404c-154.189,223.552-382.918,228.787-617.911,139.344
				c0,0.002,23.559-10.487,23.559-10.487c-4.488,10.536-9.603,19.725-15.237,29.456c-81.674,136.166-227.094,222.77-377.769,262.585
				c0,0,11.68-9.323,11.68-9.323c-6.883,12.733-13.853,24.038-21.341,35.63c-38.014,57.567-83.379,111.469-143.257,147.844
				c-36.524,22.195-81.918,35.733-125.607,30.226c-43.889-5.899-84.699-25.243-116.501-57.36
				c-64.271-65.66-50.63-168.719-15.502-244.881c34.378-75.24,86.281-142.358,150.565-194.337
				c53.515-41.091,114.373-68.001,168.002-107.58c30.597-22.722,55.518-51.569,79.541-81.735
				c63.189-83.405,123.681-172.874,186.769-257.113c184.096-254.193,372.685-519.658,446.754-828.936
				c2.312-10.003,12.297-16.236,22.301-13.922c10.003,2.312,16.237,12.297,13.922,22.302
				c-49.173,210.077-153.687,401.352-269.96,580.603c-87.144,134.083-183.325,261.173-276.607,390.522
				c-46.948,64.413-90.45,134.116-148.557,190.95c-57.334,55.395-138.85,87.449-199.372,134.284
				c-39.892,31.648-73.861,71.144-102.329,113.261c-49.757,75.311-99.27,194.529-28.699,270.838
				c15.965,16.716,37.049,29.209,59.796,37.751c45.619,17.909,95.096,8.512,136.464-16.824
				c54.034-32.792,96.424-83.548,131.097-136.149c6.933-10.694,13.86-22.036,19.601-32.659c2.507-4.766,6.862-8.021,11.683-9.326
				c114.047-30.29,223.335-87.292,303.058-175.33c19.63-21.689,37.375-45.062,52.212-70.161c4.611-7.822,9.269-16.445,12.842-24.6
				c3.758-9.309,14.243-13.885,23.559-10.488c294.66,102.744,496.029,49.757,639.033-239.188
				c29.985-58.347,52.592-120.576,77.912-181.271c8.677-20.31,17.691-40.552,28.281-60.354c2.449-4.597,8.162-6.34,12.76-3.892
				C1987.853,2378.718,1989.695,2382.683,1989.141,2386.506L1989.141,2386.506z"/>
		</g>
		<g>
			<path style="fill:#371A45;" d="M1012.965,3094.511c-32.695,0-76.006-10.015-114.775-31.763
				c-62.9-35.288-137.861-111.577-137.759-274.615c0.007-10.264,8.33-18.579,18.591-18.579c0.005,0,0.007,0,0.012,0
				c10.266,0.005,18.584,8.335,18.579,18.599c-0.09,143.682,63.46,210.386,116.787,241.045
				c56.667,32.573,111.538,30.303,120.41,25.127c8.813-5.142,20.264-2.319,25.488,6.426c5.225,8.75,2.595,19.98-6.099,25.298
				C1045.128,3091.596,1030.587,3094.511,1012.965,3094.511z"/>
		</g>
		<g style="opacity:0.3;">
			<path style="fill:none;stroke:#FFFFFF;stroke-width:35.3081;stroke-linecap:round;stroke-miterlimit:10;" d="M1105.079,2206.323"
				/>
		</g>
		<g>
			<g>
				<path style="fill:#FFFFFF;" d="M1950.342,2632.545l-243.277,238.983l-208.973-9.962l-110.504-5.266
					c0,0-79.271-44.449-98.37-55.524c-25.928-14.969-9.914-46.691,5.602-63.311c26.54-28.47,48.429-57.498,67.064-85.62
					c30.061-45.404,51.689-88.559,71.002-123.608c15.841-28.775,49.093-43.362,80.933-35.184
					c189.998,48.894,380.059,75.686,380.059,75.686L1950.342,2632.545z"/>
			</g>
			<g>
				<path style="fill:#D8D8D8;" d="M1498.091,2861.566l-110.504-5.266c0,0-79.271-44.449-98.37-55.524
					c-19.8-11.421-15.143-32.659-4.934-49.438c3.167-5.195,6.878-9.932,10.536-13.873c26.54-28.47,48.429-57.498,67.064-85.62
					c2.391,14.446,12.562,45.267,56.062,53.286c15.472,2.89,35.165,2.871,60.244-1.794
					C1551.363,2689.695,1527.038,2786.337,1498.091,2861.566z"/>
			</g>
			<g>
				<path style="fill:#371A45;" d="M1707.071,2890.131c-0.295,0-0.591-0.005-0.886-0.02l-319.49-15.244
					c-2.881-0.136-5.691-0.942-8.208-2.353c-3.242-1.822-79.595-44.649-98.574-55.625c-12.698-7.349-20.476-18.394-22.497-31.948
					c-3.281-22.017,10.137-45.513,23.789-60.156c58.377-62.617,93.77-128.374,122.205-181.216
					c4.551-8.452,8.921-16.573,13.179-24.302c20-36.318,61.882-54.507,101.853-44.214c186.833,48.057,376.145,75.025,378.035,75.293
					c4.378,0.615,8.391,2.774,11.321,6.084l56.467,63.774c6.558,7.407,6.167,18.653-0.889,25.586l-243.274,239.013
					C1716.615,2888.227,1711.932,2890.131,1707.071,2890.131z M1392.853,2837.939l306.987,14.648l224.885-220.947l-40.261-45.474
					c-35.803-5.317-206.563-31.709-375.286-75.107c-23.516-6.055-48.208,4.698-60.022,26.148
					c-4.202,7.627-8.516,15.644-13.005,23.984c-29.451,54.722-66.101,122.822-127.749,188.946
					c-8.984,9.638-15.227,22.514-14.211,29.321c0.166,1.123,0.447,2.993,4.338,5.244
					C1314.898,2794.169,1376.783,2828.92,1392.853,2837.939z"/>
			</g>
			<g>
				<path style="fill:#FFFFFF;" d="M987.271,2543.92c139.758,139.243,388.101,209.262,432.378,143.736
					c4.26-6.318,7.442-12.449,9.689-18.347c19.19-50.08-27.614-83.733-27.614-83.733s-183.52-9.127-335.587-140.46
					c-50.315-16.475-74.56,1.03-84.295,25.836C971.03,2498.379,978.051,2534.746,987.271,2543.92z"/>
			</g>
			<g>
				<path style="fill:#D8D8D8;" d="M987.271,2543.92c139.758,139.243,388.101,209.262,432.378,143.736
					c4.26-6.318,7.442-12.449,9.689-18.347c-29.112,7.91-87.29,12.59-191.617-17.458
					c-117.572-33.886-230.183-122.16-255.879-180.899C971.03,2498.379,978.051,2534.746,987.271,2543.92z"/>
			</g>
			<g>
				<path style="fill:#371A45;" d="M1349.979,2731.039c-100.647,0-267.4-65.889-375.837-173.931h-0.003
					c-16.685-16.626-24.919-70.366-3.564-105.2c10.991-17.93,38.779-44.966,101.35-24.472l3.545,1.157l2.825,2.441
					c145.544,125.718,322.566,135.903,324.338,135.991l5.469,0.273l4.448,3.193c25.31,18.174,62.58,68.223,22.495,127.578
					c-12.327,18.247-34.512,29.048-65.94,32.09C1363.048,2730.746,1356.654,2731.039,1349.979,2731.039z M1000.619,2531.005
					c106.626,106.079,277.839,170.581,364.9,162.148c19.307-1.87,33.057-7.514,38.716-15.893c25.054-37.1,1.548-63.828-9.604-73.525
					c-34.004-2.823-197.095-22.266-337.703-142.046c-26.155-7.881-44.104-5.293-53.379,7.719
					C989.835,2488.661,995.667,2524.13,1000.619,2531.005z"/>
			</g>
			<g>
				<path style="fill:#FFFFFF;" d="M1795.599,2788.648c-13.248,24.302-26.931,55.776-26.931,55.776s-51.809-22.101-55.804-24.279
					c-13.217-7.205-8.538-41.281,10.449-76.111s45.094-57.224,58.311-50.019c9.671,5.272,51.471,22.583,51.471,22.583
					S1800.693,2779.305,1795.599,2788.648z"/>
			</g>
			<g>
				
					<ellipse transform="matrix(0.4786 -0.878 0.878 0.4786 -1502.4468 3030.0005)" style="fill:#FFFFFF;" cx="1800.186" cy="2780.134" rx="71.828" ry="36.284"/>
			</g>
			<g>
				<path style="fill:#FFFFFF;" d="M1943.278,2646.477c-18.486,24.111-47.723,62.513-79.59,101.777
					c-45.608,56.169-96.514,114.049-128.678,133.979c-55.965,34.664-235.205,6.024-347.459-25.944
					c-29.458-8.388-42.124-42.445-21.593-65.21c33.578-37.254,63.265-74.782,87.722-107.897
					c23.158-31.34,41.63-58.703,54.253-78.198c11.578-17.883,33.611-25.838,53.999-19.667
					c177.146,53.785,310.224,47.007,368.934,39.485C1942.802,2623.269,1950.612,2636.894,1943.278,2646.477z"/>
			</g>
			<g>
				<path style="fill:#D8D8D8;" d="M1805.459,2816.694c-21.557,23.816-42.028,44.369-59.015,57.473
					c-4.01,3.139-7.841,5.848-11.434,8.065c-55.965,34.664-235.205,6.024-347.459-25.944c-29.458-8.388-42.124-42.445-21.593-65.21
					c33.578-37.254,63.265-74.782,87.722-107.897c1.093,33.31,16.808,107.108,128.117,148.23
					c28.824,10.62,60.479,11.27,92.745,5.459c-2.393-14.568,3.864-39.149,17.463-64.096c18.961-34.837,45.094-57.227,58.294-50.032
					c8.082,4.417,38.569,17.195,48.408,21.323c1.581,0.385,3.104,0.954,4.555,1.744c9.336,5.063,13.381,17.644,12.317,33.499
					C1814.791,2790.623,1811.407,2803.583,1805.459,2816.694z"/>
			</g>
			<g style="opacity:0.3;">
				<path style="fill:#371A45;" d="M1805.459,2816.694c5.949-13.111,9.332-26.071,10.118-37.387
					c17.095-10.147,33.316-20.737,48.11-31.053C1844.632,2771.736,1824.626,2795.522,1805.459,2816.694z"/>
			</g>
			<g>
				<path style="fill:#371A45;" d="M1648.231,2916.635c-92.28,0-212.493-27.295-265.767-42.461
					c-21.067-5.996-37.122-21.675-42.944-41.938c-5.483-19.082-0.879-38.618,12.632-53.604
					c65.198-72.3,115.813-146.157,140.181-183.75l0,0c15.984-24.653,46.831-35.913,75.007-27.349
					c171.506,52.051,299.883,46.665,361.147,38.813c12.896-1.65,25.43,4.565,31.914,15.84c6.489,11.279,5.566,25.249-2.356,35.586
					l-4.46,5.825c-49.67,64.873-153.025,199.868-208.792,234.419C1723.026,2911.498,1688.25,2916.635,1648.231,2916.635z
					 M1523.534,2615.107L1523.534,2615.107c-24.968,38.516-76.848,114.214-143.769,188.427c-6.47,7.173-5.603,14.629-4.509,18.433
					c2.254,7.837,8.753,13.99,17.39,16.445c124.465,35.435,287.007,56.221,332.568,27.993
					c48.958-30.327,150.09-161.739,196.065-221.778c-68.069,7.29-196.968,9.404-364.736-41.518
					C1544.137,2599.354,1530.555,2604.277,1523.534,2615.107z"/>
			</g>
			<g>
				<g>
					<path style="fill:#22A7F0;" d="M1795.599,2788.648c-13.248,24.302-26.931,55.776-26.931,55.776s-51.809-22.101-55.804-24.279
						c-13.217-7.205-8.538-41.281,10.449-76.111s45.094-57.224,58.311-50.019c9.671,5.272,51.471,22.583,51.471,22.583
						S1800.693,2779.305,1795.599,2788.648z"/>
				</g>
				<g style="opacity:0.8;">
					<path style="fill:#FFFFFF;" d="M1833.08,2716.604c0,0-32.392,62.679-37.467,72.052c-13.264,24.283-26.934,55.783-26.934,55.783
						s-1.032-0.453-2.789-1.178c4.858-10.214,10.816-22.47,16.706-33.246c5.112-9.362,37.516-72.077,37.516-72.077
						s-41.822-17.304-51.503-22.559c-10.702-5.866-29.981,7.802-47.025,31.848c0.587-1.07,1.125-2.115,1.711-3.186
						c18.998-34.825,45.094-57.227,58.331-50.021C1791.307,2699.275,1833.08,2716.604,1833.08,2716.604z"/>
				</g>
				<g>
					<path style="fill:#0A7AE0;" d="M1789.514,2800.339c-11.07,21.617-20.835,44.1-20.835,44.1s-51.804-22.127-55.814-24.306
						c-13.199-7.194-8.531-41.255,10.43-76.092c6.404-11.748,13.619-22.099,20.895-30.361c-14.12,30.625-16.538,58.426-4.79,64.83
						C1742.586,2780.222,1775.915,2794.519,1789.514,2800.339z"/>
				</g>
				<g>
					<path style="fill:#371A45;" d="M1768.661,2857.089c-1.655,0-3.34-0.327-4.961-1.021c-15.745-6.714-52.81-22.578-56.897-24.805
						c-24.077-13.13-14.082-57.564,5.396-93.291c9.897-18.159,22.041-33.902,34.192-44.321c20.632-17.7,34.727-14.326,41.296-10.752
						c7.441,4.058,38.801,17.261,50.256,22.002c3.272,1.357,5.828,4.023,7.046,7.348c1.216,3.33,0.984,7.017-0.644,10.161
						c-1.326,2.568-32.527,62.939-37.629,72.295c-12.813,23.51-26.301,54.458-26.436,54.765
						C1778.207,2854.237,1773.551,2857.089,1768.661,2857.089z M1719.251,2809.189c3.586,1.743,22.896,10.107,42.94,18.696
						c5.247-11.524,13.796-29.712,22.292-45.298l0,0c3.594-6.592,21.377-40.898,31.057-59.604
						c-13.193-5.566-32.571-13.887-39.631-17.661c-5.054-0.054-23.938,12.598-41.479,44.771
						C1716.927,2782.201,1716.473,2804.979,1719.251,2809.189z"/>
				</g>
				<g>
					
						<ellipse transform="matrix(0.4786 -0.878 0.878 0.4786 -1502.4468 3030.0005)" style="fill:#22A7F0;" cx="1800.186" cy="2780.134" rx="71.828" ry="36.284"/>
				</g>
				<g style="opacity:0.8;">
					<path style="fill:#FFFFFF;" d="M1832.032,2797.49c-1.257,2.276-2.528,4.467-3.86,6.597
						c10.564-28.396,8.786-54.376-5.718-62.313c-16.447-8.966-43.47,8.349-62.429,39.127c2.241-5.979,5.007-12.074,8.287-18.126
						c18.998-34.825,48.662-55.312,66.24-45.698C1852.143,2726.653,1851.03,2762.665,1832.032,2797.49z"/>
				</g>
				<g>
					<path style="fill:#0A7AE0;" d="M1830.355,2800.443c-18.994,33.04-47.452,52.046-64.563,42.746
						c-17.591-9.576-16.441-45.577,2.52-80.414c9.936-18.206,22.753-32.485,35.262-40.611c-0.551,0.96-1.103,1.92-1.617,2.891
						c-18.961,34.837-20.111,70.837-2.484,80.426C1807.827,2810.066,1818.949,2807.787,1830.355,2800.443z"/>
				</g>
				<g>
					<path style="fill:#371A45;" d="M1775.519,2858.261c-5.625,0-10.935-1.309-15.774-3.95
						c-12.917-7.036-19.685-22.046-19.05-42.261c0.537-17.134,6.404-36.792,16.518-55.342c23.054-42.29,58.914-64.087,83.413-50.757
						c12.92,7.046,19.685,22.051,19.053,42.265c-0.537,17.134-6.404,36.792-16.519,55.342l0,0
						c-10.115,18.555-23.457,34.136-37.568,43.872C1795.182,2854.613,1784.911,2858.261,1775.519,2858.261z M1824.808,2727.357
						c-10.291,0-30.427,14.072-45.364,41.47c-8.132,14.917-13.032,30.962-13.44,44.018c-0.305,9.727,1.941,17.1,5.862,19.233
						s11.335,0.039,19.346-5.493c10.752-7.417,21.582-20.229,29.717-35.146l0,0c8.13-14.917,13.03-30.962,13.44-44.019
						c0.305-9.727-1.941-17.1-5.862-19.233C1827.494,2727.636,1826.246,2727.357,1824.808,2727.357z"/>
				</g>
			</g>
			<g>
				<path style="fill:#371A45;" d="M1519.459,2898.319c-2.737,0-5.493-0.884-7.815-2.705c-5.496-4.321-6.45-12.281-2.131-17.778
					l74.316-94.561c4.16-5.298,4.048-12.89-0.269-18.056l-7.49-8.97c-10.959-13.11-12.295-31.699-3.32-46.25l66.87-108.413
					c3.672-5.952,11.472-7.803,17.424-4.131c5.95,3.672,7.8,11.47,4.128,17.422l-66.87,108.413
					c-3.245,5.263-2.764,11.982,1.199,16.724l7.49,8.969c11.938,14.287,12.256,35.288,0.752,49.937l-74.319,94.561
					C1526.925,2896.659,1523.211,2898.319,1519.459,2898.319z"/>
			</g>
		</g>
		<g>
			<path style="fill:#FFFFFF;" d="M470.742,2489.448c0.279,44.153,17.615,83.705,63.301,110.15
				c4.137,8.504,9.528,47.034,55.401,68.971c25.888,12.41,50.752,5.996,89.654-24.261c1.534-1.162,3.067-2.37,4.648-3.625
				c-0.419,1.07-0.79,2.231-1.115,3.439c-10.783,39.413,16.499,134.597,96.671,76.594c0-13.665,0.837-28.49,2.324-43.595
				c5.624-58.049,20.589-119.492,32.534-130.739c16.778-15.895,202.453-280.813,436.045-267.381l206.125-313.114
				c0,0-381.342-188.51-841.323,236.009C580.892,2233.361,470.046,2376.51,470.742,2489.448z"/>
		</g>
		<g>
			<path style="fill:#D8D8D8;" d="M1316.332,1965.596c23.423,173.034,165.968,314.602,354.896,361.962
				c44.107,11.107,90.769,17.057,139.059,17.057c55.353,0,108.523-7.808,158.253-22.169
				c116.89-33.881,214.445-104.201,274.399-195.388c-70.738,25.794-142.777,38.018-213.933,34.439l57.957-154.164l-644.121-377.485
				C1415.419,1732.562,1371.127,1847.871,1316.332,1965.596z"/>
		</g>
		<g>
			<path style="fill:#D8D8D8;" d="M1355.081,1935.344c4.323,45.454,16.779,88.911,36.252,129.252l64.974-98.717
				C1456.307,1965.88,1419.545,1947.708,1355.081,1935.344z"/>
		</g>
		<g>
			<path style="fill:#D8D8D8;" d="M734.173,2585.562c-1.719,0.883-3.393,1.859-5.065,2.927
				C731.942,2586.91,733.708,2585.841,734.173,2585.562z"/>
		</g>
		<g>
			<path style="fill:#D8D8D8;" d="M470.742,2489.448c0.279,44.153,17.615,83.705,63.301,110.15
				c4.137,8.504,9.528,47.034,55.401,68.971c25.888,12.41,50.752,5.996,89.654-24.261c12.037-19.566,29.28-42.851,50.009-55.819
				c-13.479,7.483-51.357,26.214-92.396,26.214c-51.264,0-67.252-49.452-67.252-49.452S497.839,2575.198,470.742,2489.448z"/>
		</g>
		<g>
			<path style="fill:#D8D8D8;" d="M779.302,2720.717c0-13.665,0.837-28.49,2.324-43.595c-12.224,8.087-30.954,15.756-49.87,5.67
				c-32.302-17.243,9.807-102.76,9.807-102.76l-58.932,64.091C671.848,2683.535,699.129,2778.719,779.302,2720.717z"/>
		</g>
		<g>
			<path style="fill:#371A45;" d="M1448.086,1982.559c-156.286-64.245-336.583-45.424-490.702,16.72
				c-105.178,42.365-200.84,105.836-287.497,178.79c-10.573,9.557-37.512,32.764-47.061,42.177
				c-42.314,45.613-77.588,99.605-104.12,155.864c-31.877,68.662-53.891,163.177,24.666,207.378
				c8.198,4.137,9.581,14.564,12.268,21.468c6.352,19.187,19.61,35.309,37.568,44.58c13.391,8.124,27.649,8.173,41.943,1.066
				c12.303-5.746,24.844-14.762,36.977-24.411c14.549-11.773,35.531,3.796,29.087,20.909c-5.861,19.651,0.288,49.056,13.234,64.094
				c15.643,17.677,36.299,6.537,53.938-5.537c0,0-7.693,15.061-7.693,15.061c-0.384-31.187,2.586-61.506,7.449-91.658
				c5.55-30.429,10.414-62.663,25.895-90.186c93.351-116.936,211.938-236.948,364.289-268.339c30.535-5.396,62.098-6.478,92.4-0.797
				c10.435,2.15,10.028,17.589-1.069,18.56c-57.617,4.102-111.964,19.998-162.957,45.151
				c-25.447,12.593-49.803,27.668-73.057,44.419c-71.406,50.783-129.681,115.915-185.228,183.446
				c0.044,0.019,0.085-0.162-0.029-0.086l-0.748,1.414c-1.253,2.096-2.462,5.122-3.444,7.351
				c-16.814,47.917-24.186,100.08-26.32,150.725c0.144,6.144-2.982,11.792-7.693,15.064c-6.784,4.675-13.674,9.299-21.692,12.991
				c-64.38,31.554-107.405-26.495-106.674-86.693c0.141-8.759,1.022-17.734,4.498-27.8l29.087,20.908
				c-20.917,16.273-45.193,34.533-74.113,37.571c-31.067,2.836-59.813-15.205-79.645-37.746
				c-11.806-13.62-19.061-30.397-24.307-47.31c0,0,7.408,7.964,7.408,7.964c-2.795-2.077-12.416-7.895-15.243-9.973
				c-7.564-5.949-16.596-13.485-22.825-20.872c-56.184-62.534-33.483-155.983-1.768-224.206
				c28.76-60.823,65.515-117.044,111.38-166.412c11.404-11.412,37.524-33.493,49.502-44.453
				c89.568-75.419,188.547-140.994,297.663-184.943c156.771-63.623,337.965-82.363,499.4-24.588
				c7.447,2.946,14.177,5.331,21.713,9.009C1486.483,1960.74,1470.741,1993.104,1448.086,1982.559L1448.086,1982.559z"/>
		</g>
		<g>
			<path style="fill:#371A45;" d="M999.93,2381.879c-1.011,0-2.031-0.083-3.061-0.254c-10.129-1.68-16.98-11.25-15.3-21.377
				c1.582-9.737,35.122-231.143-162.568-298.677c-9.714-3.32-14.9-13.887-11.582-23.603c3.32-9.717,13.892-14.893,23.603-11.582
				c94.507,32.285,156.88,101.641,180.379,200.571c17.437,73.418,7.29,136.709,6.848,139.365
				C1016.742,2375.424,1008.861,2381.879,999.93,2381.879z"/>
		</g>
		<g>
			<g>
				<path style="fill:#FFFFFF;" d="M741.563,2585.466c0,0-32.807,12.029-57.798,55.222"/>
			</g>
			<g>
				<path style="fill:#371A45;" d="M744.763,2594.194c-20.535,12.834-35.603,33.836-44.962,55.933
					c-12.363,24.652-47.517,4.196-32.127-18.748c17.952-24.321,41.508-45.185,70.689-54.641
					C749.62,2573.679,755.124,2589.138,744.763,2594.194L744.763,2594.194z"/>
			</g>
		</g>
		<g>
			<path style="fill:#371A45;" d="M843.708,3178.12c-89.161,14.121-172.11-32.063-211.677-112.122
				c-5.219-10.481,9.805-19.1,16.161-9.181c28.643,48.017,77.637,84.153,134.115,88.441c17.548,1.557,35.634,0.9,52.715-3.29
				C861.039,3134.274,870.473,3172.979,843.708,3178.12L843.708,3178.12z"/>
		</g>
		<g>
			<path style="fill:#FFFFFF;" d="M3251.728,1866.303c0,0-196.19-227.631-254.041-245.238S3203.938,1836.12,3251.728,1866.303z"/>
		</g>
		<g>
			<g>
				<g>
					<g>
						<g>
							<path style="fill:#62ED2E;" d="M2878.948,2112.942c68.384,31.238,144.399,49.739,215.775,55.229l116.078,8.134
								c158.867-5.11,251.34-75.24,298.929-169.542c55.253-109.57,49.91-251.739,17.661-362.345
								c-72.688-249.211-318.846-419.282-568.022-346.577c-249.211,72.688-364.166,338.459-291.46,587.634
								C2696.836,1984.715,2779.167,2067.387,2878.948,2112.942z"/>
						</g>
						<g>
							<path style="fill:#31C418;" d="M2878.948,2112.942c68.384,31.238,144.399,49.739,215.775,55.229l116.078,8.134
								c158.867-5.11,251.34-75.24,298.929-169.542c-32.844,34.825-97.56,88.11-202.674,113.787
								C3187.388,2149.749,3011.533,2148.122,2878.948,2112.942z"/>
						</g>
						<g style="opacity:0.7;">
							<path style="fill:#FFFFFF;" d="M2781.222,1488.381c-4.699,11.331-5.117,21.191-0.301,28.082
								c13.45,19.221,62.716,7.966,110.066-25.147c47.317-33.121,74.754-75.554,61.292-94.796
								c-6.719-9.601-22.335-11.603-42.204-7.113c21.549-10.637,44.395-19.561,68.477-26.593
								c237.719-69.345,472.696,82.272,556.921,312.752c-1.814-9-4.024-18.01-6.65-27.017
								c-72.69-249.182-318.824-419.275-568.027-346.573c-249.182,72.69-365.264,348.444-292.587,597.606
								c2.626,9.007,5.629,17.811,8.9,26.368C2642.064,1767.156,2681.453,1601.941,2781.222,1488.381z"/>
						</g>
						<g>
							<path style="fill:#371A45;" d="M3173.636,2195.673l-0.715-0.02c-78.308-3.73-153.535-17.432-223.586-40.732
								c-10.349-3.438-20.691-7.148-30.735-11.03c-203.496-78.623-320.398-290.234-277.966-503.164
								c35.183-176.558,152.759-310.142,314.514-357.329c122.319-35.667,251.04-16.387,362.466,54.321
								c106.038,67.29,187.756,177.539,224.202,302.48c33.284,114.097,41.941,279.038-33.579,399.805
								c-49.077,78.477-125.598,127.095-227.439,144.497l-31.321,5.117C3225.614,2193.524,3212.469,2195.673,3173.636,2195.673z
								 M3074.486,1296.405c-36.892,0-74.124,5.122-110.92,15.859c-150.793,43.989-260.493,168.975-293.445,334.341
								c-39.568,198.555,69.49,395.898,259.316,469.238c9.6,3.711,19.482,7.26,29.382,10.547
								c67.344,22.397,139.736,35.591,215.176,39.214c36.104-0.01,46.953-1.782,70.63-5.654l31.216-5.102
								c92.917-15.879,162.566-59.888,206.902-130.786c70.254-112.339,61.667-267.603,30.21-375.444
								C3451.151,1436.752,3267.521,1296.405,3074.486,1296.405z"/>
						</g>
						<g>
							<path style="fill:#371A45;" d="M3505.824,1579.895c31.413,24.685,69.063,101.368,43.773,199.721
								c-25.29,98.353-111.864,130.922-147.257,100.541c-27.174-23.326-59.705-96.969-34.416-195.322
								C3393.214,1586.481,3473.655,1554.615,3505.824,1579.895z"/>
						</g>
						<g style="opacity:0.7;">
							<path style="fill:#FFFFFF;" d="M3379.378,1848.751c-8.134-33.452-9.764-76.042,2.741-124.666
								c25.291-98.362,105.727-130.236,137.894-104.962c10.613,8.333,21.946,22.62,31.317,41.679
								c-9.707-38.996-28.526-67.572-45.501-80.913c-32.167-25.274-112.603,6.6-137.903,104.936
								C3349.797,1755.286,3361.375,1813.058,3379.378,1848.751z"/>
						</g>
						<g style="opacity:0.35;">
							<path style="fill:#111A28;" d="M3402.341,1880.168c35.398,30.37,121.972-2.215,147.252-100.543
								c18.504-71.937,3.334-132.278-18.438-169.146c5.554,30.406,5.464,66.163-4.621,105.366
								c-25.271,98.354-111.845,130.938-147.251,100.543c-5.611-4.819-11.457-11.8-16.976-20.707
								C3369.536,1837.077,3386.828,1866.841,3402.341,1880.168z"/>
						</g>
						<g>
							<path style="fill:#371A45;" d="M2961.54,1778.791c-16.039,41.018-3.498,126.385,89.153,184.25s204.704,22.159,221.043-26.03
								c12.544-36.998-3.273-116.437-95.923-174.303C3083.162,1704.843,2977.966,1736.786,2961.54,1778.791z"/>
						</g>
						<g style="opacity:0.7;">
							<path style="fill:#FFFFFF;" d="M2968.657,1872.663c-3.152-21.297-0.993-40.319,4.443-54.231
								c16.426-42,121.616-73.959,214.273-16.088c45.942,28.68,73.009,62.697,87.069,94.187
								c-5.419-40.048-32.383-92.457-98.634-133.83c-92.649-57.845-197.847-25.912-214.273,16.088
								C2952.888,1800.922,2952.54,1835.963,2968.657,1872.663z"/>
						</g>
						<g style="opacity:0.35;">
							<path style="fill:#111A28;" d="M3050.706,1963.044c92.623,57.853,204.687,22.159,221.038-26.024
								c7.155-21.13,5.056-56.11-15.316-93.014c0.265,10.72-1.103,20.215-3.691,27.856c-16.343,48.21-128.407,83.903-221.031,26.05
								c-36.943-23.087-61.152-50.512-75.906-77.777C2958.037,1863.746,2982.967,1920.744,3050.706,1963.044z"/>
						</g>
						<g>
							<path style="fill:#371A45;" d="M3434.996,1904.096c-15.95,0.005-30.21-4.785-41.086-14.121
								c-29.17-25.039-65.42-103.745-38.518-208.364c17.773-69.121,61.304-106.348,96.118-118.135
								c24.146-8.169,46.86-5.903,62.31,6.245l0,0c33.167,26.06,75.608,106.958,48.313,213.115
								c-17.646,68.623-62.708,105.278-98.994,116.699C3453.429,1902.592,3443.944,1904.096,3434.996,1904.096z M3479.09,1584.55
								c-5.92,0-12.476,1.138-19.277,3.442c-28.396,9.614-64.153,40.952-79.353,100.063c-24.868,96.719,9.683,164.57,30.31,182.28
								c9.895,8.491,26.565,10.181,44.597,4.507c29.656-9.331,66.692-40.098,81.697-98.452
								c22.939-89.224-9.133-162.666-39.236-186.318h-0.002C3493.16,1586.405,3486.642,1584.55,3479.09,1584.55z"/>
						</g>
						<g>
							<path style="fill:#371A45;" d="M3155.038,2005.756c-34.966,0-74.177-8.613-111.199-31.738
								c-101.018-63.091-111.482-156.118-94.351-199.937l0,0c7.7-19.697,29.358-36.704,59.417-46.665
								c55.161-18.276,120.127-9.185,173.765,24.316c99.531,62.163,114.971,149.185,101.326,189.434
								c-7.629,22.495-30.84,42.124-63.682,53.843C3202.157,2001.488,3179.649,2005.756,3155.038,2005.756z M3067.665,1744.316
								c-19.155,0-36.506,2.998-50.62,7.671c-22.056,7.31-38.706,19.385-43.45,31.519l0,0
								c-15.154,38.755,0.874,116.67,83.955,168.56c55.247,34.507,115.811,32.212,154.063,18.564
								c24.602-8.779,42.944-23.252,47.866-37.773c11.104-32.744-3.655-104.917-90.52-159.17
								C3134.583,1752.216,3098.753,1744.316,3067.665,1744.316z M2961.542,1778.793h0.049H2961.542z"/>
						</g>
						<g>
							<path style="fill:#371A45;" d="M3350.622,1915.581c-1.36,7.028,0.703,13.338,4.608,14.094
								c3.905,0.755,8.172-4.33,9.532-11.358s-0.703-13.338-4.608-14.094C3356.249,1903.468,3351.982,1908.553,3350.622,1915.581z"
								/>
						</g>
						<g>
							<path style="fill:#371A45;" d="M3339.566,1919.399c5.407,4.692,7.677,10.93,5.071,13.934s-9.103,1.636-14.51-3.056
								c-5.407-4.692-7.677-10.93-5.071-13.934C3327.663,1913.339,3334.159,1914.708,3339.566,1919.399z"/>
						</g>
						<g>
							<path style="fill:#62ED2E;" d="M3120.192,1605.319l-50.76,49.018c-12.067-20.38-23.564-36.581-34.426-49.229
								c-43.629-50.846-77.553-44.961-100.381-25.971c-31.119,25.898-20.949,88.116-20.949,88.116
								c37.73,25.364,7.816,66.165-23.396,67.206c-27.03,0.917-48.999-36.536-21.178-65.698
								c-2.635-12.356-20.747-120.805,48.025-152.037c67.827-30.751,127.742,7.151,164.605,42.512
								C3105.392,1581.953,3119.527,1603.598,3120.192,1605.319z"/>
						</g>
						<g style="opacity:0.5;">
							<path style="fill:#FFFFFF;" d="M3107.133,1587.039c-1.418-1.397-2.881-2.813-4.344-4.228
								c-38.949-37.363-101.646-75.982-173.931-44.931c-59.779,25.679-42.447,124.837-39.655,137.905
								c-18.463,16.282-22.537,38.837-24.012,46.903c-11.319-13.194-13.897-35.273,3.911-53.926
								c-2.635-12.356-20.747-120.805,48.025-152.037c67.827-30.751,127.742,7.151,164.605,42.512
								C3092.164,1569.245,3100.727,1579.053,3107.133,1587.039z"/>
						</g>
						<g>
							<path style="fill:#31C418;" d="M3120.192,1605.319c0,0,0.658,19.436-17.107,34.554
								c-17.765,15.118-33.652,14.464-33.652,14.464c-12.067-20.38-23.564-36.581-34.426-49.229
								c22.364-0.62,54.224-7.588,46.725-45.871C3105.392,1581.953,3119.527,1603.598,3120.192,1605.319z"/>
						</g>
						<g>
							<path style="fill:#371A45;" d="M3113.162,1607.991c-27.652-35.301-68.768-72.78-115.028-84.775
								c-22.56-5.924-45.681-4.318-67.073,4.168c-46.117,15.824-52.178,71.847-49.773,114.612
								c0.521,8.045,1.355,16.588,2.567,23.862c0.988,4.949-0.652,9.88-3.875,13.286c-11.692,11.623-11.686,28.74,0.794,37.542
								c14.637,9.938,41.033-10.056,34.297-26.399c-2.191-7.276-15.232-11.395-16.197-20.315
								c-4.15-25.838-3.832-50.685,6.333-75.618c18.074-42.776,69.706-55.662,106.054-27.828
								c29.28,21.464,48.444,53.044,64.64,83.998c4.161,8.317-7.538,15.33-12.887,7.729c-12.677-18.382-26.113-36.22-41.341-51.333
								c-13.623-13.219-31.147-27.07-49.729-27.656c-16.258-0.271-32.294,11.573-38.025,27.1
								c-6.432,16.592-7.222,38.919-5.427,58.462l-6.451-10.051c3.967,2.749,7.866,5.854,11.459,9.685
								c30.269,31.665,2.143,79.294-36.9,84.484c-50.928,5.786-73.102-56.721-38.365-90.558c-0.001-0.001-3.825,13.535-3.825,13.535
								c-4.105-18.713-5.442-36.137-5.248-54.983c0.934-37.947,11.353-80.075,44.606-104.185
								c48.479-34.225,115.887-24.838,161.135,9.493c28.826,20.899,52.91,47.252,70.99,77.699c0.408,0.878,0.974,1.692,1.328,2.722
								C3130.507,1611.992,3116.86,1617.17,3113.162,1607.991L3113.162,1607.991z"/>
						</g>
						<g>
							<path style="fill:#62ED2E;" d="M3690.16,1386.897c-14.494,24.549-49.708,13.079-59.423-13.327
								c-8.829-6.796-176.729-84.121-208.597,73.345c-3.688,18.307-5.557,39.808-5.114,64.96l-64.391,2.779
								c-0.845-1.792-0.688-31.253,8.683-68.24c11.325-44.628,36.111-100.132,88.804-130.993
								c80.93-47.382,192.931,17.034,203.009,22.066C3679.284,1334.273,3708.364,1356.109,3690.16,1386.897z"/>
						</g>
						<g>
							<path style="fill:#62ED2E;" d="M3690.16,1386.897c-14.494,24.549-49.708,13.079-59.423-13.327
								c-8.829-6.796-176.729-84.121-208.597,73.345c-3.688,18.307-5.557,39.808-5.114,64.96l-64.391,2.779
								c-0.845-1.792-0.688-31.253,8.683-68.24c11.325-44.628,36.111-100.132,88.804-130.993
								c80.93-47.382,192.931,17.034,203.009,22.066C3679.284,1334.273,3708.364,1356.109,3690.16,1386.897z"/>
						</g>
						<g style="opacity:0.5;">
							<path style="fill:#FFFFFF;" d="M3695.774,1366.76c-8.226-4.528-33.416-16.007-45.865-6.831
								c-10.881-5.43-113.807-73.399-201.086-22.285c-50.556,29.608-77.278,80.259-91.164,124.984
								c1.034-5.201,2.234-10.622,3.659-16.213c11.325-44.628,36.111-100.132,88.804-130.993
								c80.93-47.382,192.931,17.034,203.009,22.066C3673.076,1335.046,3694.749,1347.171,3695.774,1366.76z"/>
						</g>
						<g>
							<path style="fill:#31C418;" d="M3422.14,1446.915c-3.688,18.307-5.557,39.808-5.114,64.96c0,0-14.717,14.479-35.014,15.06
								c-20.297,0.58-29.377-12.28-29.377-12.28c-0.845-1.792-0.688-31.253,8.683-68.24
								C3369.785,1471.025,3389.74,1486.258,3422.14,1446.915z"/>
						</g>
						<g>
							<path style="fill:#371A45;" d="M3345.873,1517.9c-1.192-3.263-0.71-2.413-1.073-4.475
								c-1.464-18.73,0.556-37.507,3.348-56.016c16.653-104.109,89.333-192.427,203.146-172.726
								c38.645,6.028,74.774,20.297,108.552,39.332c0.014,0.008-8.534-1.47-8.531-1.467c27.039-3.681,58.445,14.301,59.509,43.985
								c-0.248,20.278-9.358,37.547-28.245,45.952c-9.658,3.891-19.966,3.63-28.677,1.115
								c-17.501-5.115-31.025-18.223-37.261-34.851l4.96,6.741c0.115,0.11,0.239,0.21,0.371,0.3
								c0.101,0.068-0.093-0.034-0.123-0.046l-0.632-0.313l-1.804-0.857c-42.364-17.983-97.689-31.613-139.524-8.614
								c-44.523,26.28-53.267,86.807-55.343,135.838c-0.384,9.319-14.323,9.615-15.029,0.215
								c-1.854-27.912-1.18-56.569,6.116-84.956c15.882-66.928,71.413-100.473,138.353-92.824
								c28.718,3.015,56.559,11.073,81.909,24.766c3.79,2.135,7.74,5.116,8.968,9.378c7.911,19.757,34.105,25.501,35.92-0.64
								c-0.882-11.214-14.838-16.587-25.817-15.347c-5.145,1.006-10.638-2.562-14.995-4.673
								c-104.705-51.226-198.703-53.769-253.894,63.595c-14.369,31.676-23.746,66.721-26.082,101.601
								c-0.101-0.058,0.219,0.374-0.576-1.538C3363.553,1520.314,3350.374,1526.769,3345.873,1517.9L3345.873,1517.9z"/>
						</g>
					</g>
				</g>
				<g>
					<path style="fill:#371A45;" d="M3264.093,2005.869c27.731,14.896,40.734,20.489,64.13-4.75
						c4.569-4.547,12.676,0.369,10.945,6.452c-6.506,32.008-42.056,48.036-69.237,28.007c-7.03-4.524-25.09-25.189-11.669-30.605
						C3260.341,2004.35,3262.358,2004.833,3264.093,2005.869L3264.093,2005.869z"/>
				</g>
			</g>
		</g>
		<g>
			<path style="fill:#FFFFFF;" d="M2596.534,1902.248c65.215-65.574,117.418-193.491,208.946-211.582
				c74.694-14.763,179.893,20.778,173.323,70.535c-11.031,83.555-148.134,82.468-148.134,82.468s18.156,159.094-64.607,231.762"/>
		</g>
		<g>
			<path style="fill:#371A45;" d="M2583.352,1889.138c60.74-62.631,95.46-150.522,172.957-198.897
				c27.296-16.915,61.784-22.782,93.532-21.408c49.393,1.902,132.863,20.982,146.812,77.669
				c4.832,27.891-10.656,57.628-31.196,74.969c-38.401,31.32-87.214,39.179-134.935,40.79c0-0.001,18.618-20.699,18.618-20.699
				c8.189,65.058-0.136,133.353-32.542,191.189c-11.252,19.239-26.131,36.822-44.405,49.665c-4.216,2.976-10.046,1.97-13.022-2.244
				c-2.594-3.673-2.151-8.556,0.757-11.726c6.326-7.456,12.05-15.195,17.063-23.379c25.042-42.156,32.339-91.879,34.911-140.347
				c0.94-19.275,0.925-39.975,0.295-58.943c-1.532-10.41,5.628-20.532,16.502-20.766c43.332-0.767,115.367-10.972,130.069-58.456
				c2.657-8.683,2.538-15.861-4.329-23.49c-32.569-33.286-99.78-42.384-144.861-34.254c-38.969,8.135-67.185,36.643-92.982,67.669
				c-36.962,44.897-65.193,95.879-106.882,138.875C2592.147,1932.489,2566.199,1907.057,2583.352,1889.138L2583.352,1889.138z"/>
		</g>
		<g>
			<g>
				<path style="fill:#FFFFFF;" d="M2595.079,1660.309c-30.36,119.745-91.178,232.567-180.818,326.382
					c-18.289,19.122-37.692,37.437-58.299,54.842c-9.999,8.498-20.38,16.773-30.989,24.915
					c-32.101,24.365-65.547,45.747-100.064,64.209c-29.712,15.984-60.251,29.75-91.265,41.404
					c-37.449,14.092-75.71,25.007-114.359,32.892c-14.105,2.829-28.242,5.281-42.409,7.36
					c-259.4,37.484-530.908-60.429-701.917-279.565c-251.98-322.756-190.345-786.192,137.532-1035.123
					c63.183-47.899,131.655-84.492,202.829-109.766c8.29-3.032,16.703-5.839,25.161-8.466c22.575-7.181,45.366-13.265,68.311-18.243
					c53.071-11.495,106.991-17.142,160.679-17.118c53.672-0.035,107.25,5.631,159.589,16.838
					c16.645,3.553,33.168,7.647,49.587,12.343c24.597,7.048,48.847,15.269,72.734,24.858
					c119.037,47.398,227.206,125.713,311.124,233.255C2607.464,1216.98,2648.61,1449.157,2595.079,1660.309z"/>
				<path style="fill:#371A45;" d="M1868.133,2222.055c-230.945,0-451.836-105.063-594.69-288.125
					c-121.697-155.874-174.734-349.282-149.343-544.595c25.593-196.877,127.6-372.046,287.229-493.24
					c62.297-47.229,130.713-84.255,203.347-110.049c7.937-2.903,16.196-5.681,25.234-8.489
					c22.529-7.165,45.571-13.318,68.474-18.286c52.573-11.389,106.655-17.163,160.742-17.163c0.278-0.002,0.554-0.002,0.828,0
					c53.54,0,107.197,5.679,159.509,16.882c16.856,3.596,33.582,7.759,49.714,12.373c25.115,7.197,49.648,15.581,72.92,24.922
					c122.849,48.916,230.71,129.783,311.924,233.855c140.469,179.907,188.916,409.766,132.92,630.64
					c-31.045,122.446-93.735,235.605-181.292,327.241c-18.545,19.39-38.21,37.891-58.447,54.98
					c-9.211,7.832-19.373,16.001-31.057,24.971c-31.726,24.082-65.481,45.742-100.332,64.38
					c-29.18,15.698-59.963,29.663-91.494,41.509c-36.926,13.892-75.5,24.99-114.651,32.979c-14.041,2.813-28.342,5.298-42.515,7.378
					C1940.746,2219.477,1904.313,2222.055,1868.133,2222.055z M1869.129,745.956c-53.818,0-107.62,5.742-159.929,17.075
					c-22.786,4.941-45.71,11.062-68.135,18.196c-8.992,2.791-17.192,5.552-25.083,8.438
					c-72.28,25.669-140.349,62.505-202.329,109.495c-158.801,120.564-260.281,294.822-285.74,490.669
					c-25.256,194.282,27.503,386.675,148.562,541.738c164.385,210.645,432.666,317.52,700.125,278.843
					c14.102-2.07,28.337-4.541,42.307-7.339c38.943-7.949,77.322-18.984,114.06-32.813c31.37-11.782,61.997-25.674,91.03-41.294
					c34.675-18.545,68.257-40.093,99.814-64.048c11.626-8.926,21.738-17.056,30.906-24.849
					c20.137-17.007,39.702-35.41,58.154-54.702c87.097-91.157,149.46-203.726,180.342-325.532l1.865,0.474l-1.865-0.474
					c55.703-219.712,7.507-448.362-132.224-627.324c-80.793-103.538-188.101-183.987-310.317-232.651
					c-23.157-9.294-47.563-17.637-72.554-24.797c-16.047-4.587-32.688-8.73-49.458-12.31
					c-52.046-11.145-105.442-16.794-158.708-16.794C1869.681,745.959,1869.405,745.959,1869.129,745.956z"/>
			</g>
			<g>
				<path style="fill:#D8D8D8;" d="M1274.96,1932.729c170.991,219.168,442.539,317.086,701.929,279.563
					c14.172-2.06,28.299-4.508,42.381-7.346c38.663-7.87,76.91-18.811,114.362-32.874c31.01-11.68,61.569-25.429,91.26-41.398
					c34.543-18.458,67.972-39.838,100.1-64.211c10.571-8.174,20.957-16.42,30.986-24.903c20.605-17.423,39.974-35.772,58.278-54.879
					c89.639-93.817,150.484-206.612,180.829-326.392c16.69-65.778,24.187-133.647,22.205-201.488
					c-31.61,113.63-90.917,220.395-176.432,309.904c-18.263,19.161-37.674,37.456-58.279,54.879
					c-9.981,8.49-20.367,16.735-30.986,24.903c-32.129,24.373-65.557,45.753-100.052,64.219
					c-29.739,15.962-60.25,29.717-91.26,41.397c-37.451,14.061-75.747,24.997-114.362,32.875c-14.13,2.83-28.257,5.279-42.43,7.339
					c-259.39,37.524-530.89-60.389-701.929-279.563c-99.812-127.829-150.36-277.734-154.706-427.596
					C1086.763,1502.7,1126.216,1742.237,1274.96,1932.729z"/>
			</g>
			<g>
				<path style="fill:#371A45;" d="M1868.153,2234.94c-234.907,0-459.551-106.865-604.868-293.081
					c-123.833-158.613-177.803-355.43-151.965-554.189c26.042-200.32,129.819-378.545,292.217-501.838
					c63.359-48.035,132.944-85.691,206.829-111.929c8.022-2.935,16.479-5.781,25.725-8.652c22.83-7.261,46.265-13.521,69.563-18.572
					c53.469-11.584,108.472-17.456,163.472-17.456c0.276,0,0.562,0,0.842,0c54.431,0,108.999,5.774,162.195,17.166
					c17.131,3.657,34.146,7.891,50.559,12.585c25.544,7.319,50.5,15.85,74.18,25.352c124.937,49.748,234.663,132.014,317.28,237.888
					c142.937,183.066,192.236,416.97,135.254,641.731l0,0c-31.592,124.6-95.378,239.741-184.465,332.979
					c-18.867,19.727-38.867,38.54-59.451,55.923c-9.343,7.945-19.668,16.245-31.526,25.352
					c-32.322,24.531-66.653,46.563-102.1,65.522c-29.661,15.952-60.974,30.156-93.042,42.202
					c-37.556,14.135-76.79,25.42-116.604,33.545c-14.304,2.866-28.828,5.386-43.22,7.5
					C1942.013,2232.314,1904.933,2234.94,1868.153,2234.94z M1869.142,758.842c-52.917,0-105.803,5.647-157.214,16.785
					c-22.388,4.854-44.917,10.872-66.956,17.881c-8.87,2.754-16.872,5.447-24.563,8.259
					c-71.147,25.266-138.044,61.472-198.97,107.661c-156.028,118.46-255.735,289.661-280.747,482.061
					c-24.807,190.84,27.021,379.824,145.94,532.144c161.55,207.021,425.212,312.012,688.125,274.024
					c13.852-2.031,27.866-4.463,41.619-7.222c38.233-7.802,75.95-18.652,112.053-32.236c30.837-11.582,60.935-25.235,89.463-40.581
					c34.106-18.242,67.112-39.419,98.127-62.964c11.399-8.75,21.35-16.753,30.352-24.404c19.822-16.738,39.05-34.829,57.188-53.789
					c85.562-89.551,146.826-200.137,177.166-319.79c54.714-215.825,7.371-440.43-129.89-616.23
					C2371.441,938.7,2266,859.65,2145.904,811.83c-22.781-9.143-46.768-17.341-71.335-24.382
					c-15.759-4.504-32.114-8.574-48.599-12.092c-51.167-10.959-103.657-16.514-156.018-16.514
					C1869.681,758.842,1869.413,758.842,1869.142,758.842z M2595.079,1660.307h0.051H2595.079z"/>
			</g>
			<g>
				<path style="fill:#371A45;" d="M1868.16,2239.232c-236.223,0-462.127-107.466-608.262-294.731
					c-124.546-159.526-178.826-357.476-152.839-557.383c26.191-201.472,130.559-380.713,293.879-504.709
					c63.714-48.303,133.689-86.169,207.988-112.554c8.052-2.947,16.575-5.815,25.889-8.706c22.93-7.295,46.499-13.589,69.929-18.669
					c53.77-11.648,109.077-17.554,164.385-17.554c0.281,0.002,0.559,0,0.84,0c54.729,0,109.6,5.808,163.093,17.263
					c17.222,3.674,34.331,7.935,50.84,12.654c25.686,7.361,50.781,15.938,74.597,25.498
					c125.632,50.024,235.981,132.754,319.07,239.231c143.757,184.119,193.34,419.373,136.03,645.432l0,0
					c-31.775,125.313-95.928,241.113-185.525,334.888c-18.972,19.839-39.084,38.755-59.785,56.235
					c-9.387,7.983-19.766,16.328-31.68,25.479c-32.522,24.682-67.043,46.836-102.69,65.898
					c-29.819,16.04-61.311,30.327-93.557,42.441c-37.766,14.209-77.222,25.562-117.258,33.73
					c-14.39,2.886-28.989,5.415-43.452,7.539C1942.428,2236.596,1905.145,2239.232,1868.16,2239.232z M1869.146,763.139
					c-52.617,0-105.193,5.613-156.309,16.685c-22.256,4.827-44.653,10.808-66.565,17.778c-8.828,2.742-16.765,5.41-24.39,8.198
					c-70.767,25.134-137.278,61.13-197.849,107.051c-155.102,117.756-254.219,287.939-279.082,479.194
					c-24.658,189.688,26.86,377.539,145.066,528.945c160.603,205.806,422.734,310.205,684.126,272.412
					c13.767-2.021,27.707-4.438,41.387-7.178c37.998-7.754,75.493-18.54,111.384-32.046c30.662-11.518,60.583-25.093,88.943-40.347
					c33.916-18.14,66.729-39.194,97.566-62.603c11.323-8.691,21.216-16.645,30.164-24.253c19.717-16.65,38.833-34.634,56.868-53.491
					c85.044-89.004,145.945-198.94,176.104-317.876l0,0c54.387-214.521,7.327-437.781-129.111-612.527
					c-78.923-101.14-183.743-179.724-303.132-227.263c-22.656-9.092-46.504-17.241-70.93-24.241
					c-15.664-4.48-31.922-8.525-48.311-12.024c-50.874-10.894-103.064-16.416-155.122-16.416
					C1869.686,763.141,1869.417,763.144,1869.146,763.139z M2595.079,1660.307h0.051H2595.079z"/>
			</g>
			<g>
				<path style="fill:#371A45;" d="M2525.058,1836.516c-348.634,400.831-981.004,339.672-1143.143-157.424
					c-110.31-338.194,140.692-706.365,477.235-790.586c244.941-61.297,511.082-15.581,710.831,332.916
					c0,0,64.227,167.777,46.691,294.853c-17.536,127.076-56.347,247.788-56.347,247.788L2525.058,1836.516z"/>
			</g>
			<g>
				<path style="fill:#220F2D;" d="M1381.936,1679.091c162.123,497.086,794.505,558.236,1143.131,157.443l7.135-14.695
					c-446.09,201.414-983.867,44.448-1157.29-455.125C1348.236,1467.511,1347.912,1574.719,1381.936,1679.091z"/>
			</g>
			<g>
				<path style="fill:#371A45;" d="M1962.948,2194.467c-114.587,0-226.599-24.927-326.223-74.306
					c-166.865-82.715-287.197-224.907-347.988-411.216c-55.835-171.162-34.658-359.331,59.634-529.846
					c104.709-189.36,288-332.634,490.298-383.262c112.412-28.122,218.735-33.704,316.028-16.582l1.931,0.339l1.824,0.728
					c125.681,50.044,236.03,132.773,319.116,239.25c143.76,184.119,193.342,419.373,136.033,645.432l0,0
					c-31.775,125.313-95.928,241.113-185.525,334.888c-18.972,19.839-39.084,38.755-59.785,56.235
					c-9.387,7.983-19.766,16.328-31.68,25.479c-32.522,24.682-67.043,46.836-102.69,65.898l-2.729,1.196
					C2143.343,2179.286,2052.357,2194.467,1962.948,2194.467z M2040.767,807.77c-61.404,0-125.906,8.389-192.822,25.137
					c-192.205,48.098-366.462,184.429-466.138,364.683c-89.104,161.14-109.255,338.533-56.743,499.5
					c57.534,176.328,171.172,310.786,328.63,388.833c167.817,83.188,373.118,93.071,563.518,27.182
					c33.411-17.959,65.771-38.769,96.211-61.875c11.321-8.691,21.216-16.645,30.164-24.253
					c19.717-16.65,38.833-34.634,56.868-53.491c85.044-89.004,145.945-198.94,176.104-317.876l0,0
					c54.387-214.521,7.327-437.781-129.111-612.527c-78.518-100.62-182.678-178.921-301.306-226.533
					C2112.193,810.695,2077.018,807.77,2040.767,807.77z M2595.079,1660.307h0.049H2595.079z"/>
			</g>
			<g>
				<path style="fill:#371A45;" d="M1966.263,2115.058c-45.313,0-90.686-4.443-135.542-13.55
					c-222.69-45.21-391.604-197.436-463.43-417.646c-49.529-151.851-30.728-318.799,52.942-470.1
					c92.944-168.076,255.63-295.244,435.181-340.176c309.258-77.41,554.168,37.058,727.913,340.188l1.021,2.148
					c2.681,7.002,65.432,172.954,47.561,302.456c-17.517,126.938-56.548,249.17-56.941,250.391l-0.813,2.026l-36.155,74.282
					l-1.335,1.533C2387.171,2018.485,2177.398,2115.058,1966.263,2115.058z M2033.167,881.203
					c-54.267,0-111.03,7.397-170.283,22.227c-171.426,42.898-326.838,164.475-415.73,325.22
					c-79.495,143.748-97.468,302.024-50.615,445.671c68.294,209.38,228.777,354.097,440.303,397.036
					c242.395,49.229,500.977-44.048,675.278-243.408l33.879-69.609c3.752-11.904,39.131-126.035,55.435-244.17
					c16.067-116.436-40.068-271.75-45.417-286.177C2423.463,997.309,2248.075,881.203,2033.167,881.203z M2525.057,1836.518h0.049
					H2525.057z"/>
			</g>
			<g>
				<path style="fill:#FFFFFF;" d="M1052.103,1729.658c27.932,142.903,136.974,246.298,243.583,230.911
					c106.609-15.388,170.38-143.717,142.448-286.62c-0.158-0.898-0.369-1.844-0.577-2.739
					c-28.751-141.488-137.148-243.461-243.006-228.172c-82.357,11.882-139.145,91.175-147.86,192.499
					C1044.142,1665.37,1045.754,1697.16,1052.103,1729.658z"/>
			</g>
			<g>
				<path style="fill:#D8D8D8;" d="M1052.103,1729.658c27.932,142.903,136.974,246.298,243.583,230.911
					c106.609-15.388,170.38-143.717,142.448-286.62c-0.158-0.898-0.369-1.844-0.577-2.739c-8.854,16.356-24.272,33.43-49.938,32.131
					c-44.955-2.297-140.598-82.977-140.598-82.977s-86.917,6.015-200.329,15.173
					C1044.142,1665.37,1045.754,1697.16,1052.103,1729.658z"/>
			</g>
			<g>
				<path style="fill:#371A45;" d="M1274.825,1981.156c-108.425,0.01-213.687-105.62-241.492-247.827l0,0
					c-17.207-88.027-2.324-173.389,40.83-234.194c30.01-42.29,70.689-68.228,117.637-75.005
					c116.348-16.768,235.269,93.618,265.078,246.138c17.207,88.027,2.324,173.389-40.833,234.199
					c-30.01,42.285-70.686,68.223-117.634,75C1290.558,1980.6,1282.677,1981.151,1274.825,1981.156z M1215.909,1460.614
					c-6.221,0-12.434,0.439-18.65,1.338c-36.338,5.244-68.127,25.747-91.936,59.297c-36.58,51.548-49.475,128.086-34.49,204.746l0,0
					c24.292,124.292,113.093,216.978,203.469,216.987c6.221,0,12.434-0.439,18.65-1.338c36.335-5.244,68.127-25.747,91.934-59.292
					c36.582-51.548,49.475-128.091,34.492-204.751C1395.086,1553.31,1306.285,1460.614,1215.909,1460.614z"/>
			</g>
			<g>
				
					<ellipse transform="matrix(0.9585 -0.285 0.285 0.9585 -445.2765 410.4739)" style="fill:#FFFFFF;" cx="1187.742" cy="1735.198" rx="158.445" ry="209.602"/>
				<path style="fill:#371A45;" d="M1213.182,1943.202c-8.628,0-17.417-0.874-26.328-2.637
					c-50.742-10.034-97.793-47.681-129.08-103.267l0,0c-56.13-99.736-43.672-226.714,27.773-283.052
					c29.712-23.428,65.369-31.875,103.081-24.414c50.747,10.034,97.795,47.676,129.082,103.267
					c56.128,99.731,43.667,226.709-27.776,283.052C1267.24,1934.047,1241.08,1943.202,1213.182,1943.202z M1162.342,1531.2
					c-27.024,0-52.346,8.857-74.319,26.182c-69.966,55.171-81.973,179.863-26.768,277.954
					c30.713,54.575,76.772,91.499,126.374,101.309c36.533,7.241,71.062-0.942,99.829-23.628
					c69.966-55.176,81.973-179.868,26.77-277.954c-30.713-54.575-76.775-91.499-126.375-101.309
					C1179.222,1532.045,1170.699,1531.2,1162.342,1531.2z"/>
			</g>
			<g>
				<path style="fill:#D8D8D8;" d="M1351.833,1794.112c2.255-39.629-6.509-79.987-23.232-116.259
					c-12.86,89.947-83.98,139.265-165.528,111.292c-52.702-18.054-97.618-64.279-123.464-120.42
					c-0.849,5.668-1.397,11.562-1.751,17.571c-5.693,100.913,59.974,206.86,146.688,236.624
					C1271.259,1952.685,1346.131,1894.971,1351.833,1794.112z"/>
			</g>
			<g>
				<path style="fill:#371A45;" d="M1214.259,1960.829c-85.032,0-169.421-88.789-193.049-207.188
					c-14.9-74.658-2.937-148.496,31.997-197.52c22.646-31.777,53.086-51.094,88.027-55.859
					c90.283-12.28,184.19,80.137,209.329,206.089c14.9,74.653,2.937,148.491-31.997,197.515
					c-22.646,31.782-53.086,51.099-88.03,55.864C1225.121,1960.468,1219.686,1960.829,1214.259,1960.829z M1158.199,1537.323
					c-3.941,0-7.878,0.264-11.802,0.801c-24.236,3.306-45.698,17.197-62.073,40.176c-28.933,40.596-38.518,103.35-25.645,167.861
					c20.078,100.601,87.9,176.499,154.89,176.509c3.945,0,7.874-0.264,11.802-0.801c24.236-3.306,45.701-17.197,62.075-40.176
					c28.933-40.601,38.518-103.354,25.645-167.861C1293.011,1613.222,1225.194,1537.323,1158.199,1537.323z"/>
			</g>
			<g style="opacity:0.5;">
				<path style="fill:#FFFFFF;" d="M1708.924,1073.452c0,0,312.128-101.732,540.97,39.653c0.24,0.149,0.481,0.297,0.721,0.446
					c48.138,29.798,114.45,106.607,140.656,156.328c34.657,65.754,43.871,121.445,54.549,166.232
					c32.413,136.223,21.735,206.078,21.735,206.078c61.52-90.292,86.395-182.322,60.539-296.053
					c-2.579-11.205-5.659-22.664-9.196-34.328c-0.805-2.69-1.665-5.338-2.572-7.995c0.054-0.04,0.012-0.093-0.077-0.152
					c-8.852-23.124-17.229-68.676-34.53-101.267c-52.118-98.328-149.342-205.201-297.671-237.523
					C1906.697,904.433,1694.15,1061.879,1708.924,1073.452z"/>
			</g>
			<g style="opacity:0.5;">
				
					<ellipse transform="matrix(0.0401 -0.9992 0.9992 0.0401 40.9365 2943.2053)" style="fill:#FFFFFF;" cx="1552.311" cy="1450.297" rx="114.966" ry="100.083"/>
			</g>
			<g style="opacity:0.5;">
				
					<ellipse transform="matrix(0.1328 -0.9911 0.9911 0.1328 -303.8909 2970.823)" style="fill:#FFFFFF;" cx="1545.713" cy="1659.068" rx="47.49" ry="41.313"/>
			</g>
		</g>
	</g>
</g>
</svg>
