<?xml version="1.0" encoding="utf-8"?>
<!-- Generator: Adobe Illustrator 27.5.0, SVG Export Plug-In . SVG Version: 6.00 Build 0)  -->
<svg version="1.1" xmlns="http://www.w3.org/2000/svg" xmlns:xlink="http://www.w3.org/1999/xlink" x="0px" y="0px"
	 viewBox="0 0 500 500" style="enable-background:new 0 0 500 500;" xml:space="preserve">
<g id="BACKGROUND">
	<g>
		<defs>
			<rect id="SVGID_1_" width="500" height="500"/>
		</defs>
		<clipPath id="SVGID_00000044141011158398323010000018174673827991950751_">
			<use xlink:href="#SVGID_1_"  style="overflow:visible;"/>
		</clipPath>
		
			<rect style="clip-path:url(#SVGID_00000044141011158398323010000018174673827991950751_);fill:#DFEFE7;" width="500" height="500"/>
	</g>
</g>
<g id="OBJECTS">
	<g>
		<g>
			<g>
				<path style="fill:#B2D0C0;" d="M475.013,346.259c4.199,5.558,8.043,11.378,11.663,17.328c0.354,0.54,0.299,1.214,0.287,1.836
					c-0.091,1.979-0.285,4.029-1.238,5.806c-0.856,1.588-2.346,2.671-3.725,3.777c-0.667,0.499-1.36,1.028-2.19,1.215
					c-7.214,1.381-14.422,2.812-21.655,4.095c-5.73,1.051-11.521,1.728-17.302,2.423c-1.937,0.371-3.483-1.988-2.729-3.709
					c0.667-1.579,1.418-3.128,1.89-4.78c1.493-4.857,1.575-10.291-0.55-14.979c-0.93-2.012-2.363-3.972-4.468-4.846
					c-1.812-0.778-3.897-0.609-5.714,0.06c-2.096,0.886-4.092,2.146-5.48,3.986c-1.987,2.531-2.809,5.745-3.161,8.889
					c-0.457,4.166,0.081,8.383,1.049,12.44c0.163,0.713,0.443,1.483,0.139,2.207c-0.325,1.119-1.523,1.555-2.483,1.99
					c-1.187,0.353-2.445,0.186-3.666,0.17c-11.408-0.477-22.885-2.41-33.427-6.926c-0.984-0.452-2.075-0.777-2.879-1.533
					c-0.626-0.886-0.865-2.141-0.367-3.135c0.485-0.957,1.434-1.529,2.189-2.24c3.088-2.731,6.221-5.526,8.446-9.034
					c1.611-2.529,2.806-5.368,3.169-8.358c0.376-2.873,0.182-5.911-1.08-8.555c-1.892-3.794-6.233-6.074-10.425-5.689
					c-4.901,0.199-9.285,3.235-12.026,7.174c-1.818,2.561-2.513,5.684-3.226,8.689c-0.61,2.54-0.911,5.147-1.566,7.678
					c-0.112,0.897-1.148,1.019-1.876,1.136c-1.363,0.063-2.723-0.497-3.74-1.389c-4.732-4.245-9.01-9.056-12.344-14.474
					c-0.655-2.094-2.168-3.927-2.25-6.182c-0.088-1.771-0.225-3.55-0.015-5.315c0.184-1.546,0.25-3.113,0.591-4.638
					c0.831-3.678,2.107-7.263,3.89-10.59c1.339,0.043,2.626,0.425,3.933,0.674c7.353,1.566,14.607,3.551,21.802,5.724
					c2.404,0.876,4.908,1.444,7.309,2.335c12.566,3.99,24.949,8.545,37.293,13.188c3.304,1.209,6.552,2.568,9.89,3.694
					c0.83,0.253,1.671,0.888,2.561,0.484c-0.852-0.814-2.014-1.105-3.056-1.582c-12.607-5.275-25.077-10.914-37.984-15.436
					c-6.023-2.164-12.078-4.233-18.173-6.173c-7.1-2.252-14.247-4.384-21.518-6.021c-0.026-0.079-0.078-0.238-0.105-0.319
					c1.837-3.394,3.967-6.625,6.068-9.86c1.959-2.684,3.605-5.623,6.044-7.927c1.627-1.6,3.507-2.912,5.206-4.433
					c1.677-1.571,3.897-2.335,6.031-3.058c1.711-0.456,3.451-1.074,5.249-0.88c4.256,0.33,8.506,0.784,12.705,1.551
					c1.62,0.298,3.258,0.614,4.758,1.32c1.096,0.522,2.257,1.035,3.074,1.968c0.488,0.652,0.972,1.435,0.873,2.291
					c-0.154,0.659-0.677,1.169-1.223,1.542c-3.612,2.21-6.789,5.148-9.261,8.589c-1.693,2.552-2.898,5.505-3.128,8.581
					c-0.13,2.855,0.97,5.858,3.221,7.69c1.786,1.431,4.23,1.76,6.432,1.345c3.32-0.575,6.101-2.746,8.279-5.215
					c2.46-2.698,4.154-5.958,5.878-9.145c1.416-2.587,2.818-5.179,4.241-7.761c0.437-0.754,0.771-1.712,1.658-2.039
					c1.428-0.557,3.093-0.793,4.547-0.194c7.41,3.17,14.509,7.092,21.04,11.827c1.516,1.098,3.02,2.212,4.503,3.356
					c0.827,0.578,0.893,1.735,0.701,2.643c-0.275,1.215-1.377,1.929-2.242,2.714c-2.44,2.129-4.907,4.456-6.105,7.537
					c-0.908,2.225-1.231,4.774-0.41,7.079c0.748,2.681,2.647,4.889,4.829,6.545c1.348,0.994,2.805,1.949,4.473,2.287
					c1.283,0.278,2.682,0.014,3.752-0.755c1.439-1.031,2.408-2.558,3.214-4.101c1.504-2.86,2.134-6.058,3.145-9.099
					c0.395-1.134,1.792-2.216,2.978-1.522c1.323,0.736,2.45,1.784,3.463,2.902C468.361,337.319,471.677,341.801,475.013,346.259z"/>
			</g>
			<g>
				<path style="fill:#CCE7D9;" d="M428.474,345.304c1.042,0.476,2.204,0.768,3.056,1.582c-0.89,0.403-1.731-0.232-2.561-0.484
					c-3.338-1.126-6.586-2.485-9.89-3.694c-12.344-4.643-24.727-9.198-37.293-13.188c-2.401-0.891-4.905-1.458-7.309-2.335
					c-7.195-2.173-14.45-4.158-21.802-5.724c-1.306-0.25-2.594-0.632-3.933-0.674c-1.049-0.434-2.196-0.493-3.298-0.727
					c-7.62-1.322-15.324-2.132-23.045-2.54c-4.897-0.39-9.811-0.29-14.717-0.324c-0.648-0.023-1.438-0.011-1.842-0.619
					c-0.329-0.756,0.492-1.322,1.111-1.51c1.916-0.543,3.924-0.585,5.896-0.753c3.454-0.138,6.906-0.339,10.362-0.263
					c8.48,0.295,16.932,1.37,25.236,3.108c0.742,0.108,1.509,0.499,2.249,0.197c0.027,0.081,0.079,0.24,0.105,0.319
					c7.271,1.637,14.418,3.769,21.518,6.021c6.095,1.94,12.15,4.009,18.173,6.173C403.397,334.39,415.867,340.029,428.474,345.304z"
					/>
			</g>
		</g>
		<g>
			<g>
				<path style="fill:#7C9C8B;" d="M372.313,450.216c3.013,1.884,6.068,3.702,9.161,5.457c0.499,0.315,1.112,0.255,1.675,0.237
					c1.928-0.111,3.9-0.387,5.644-1.261c1.568-0.809,2.654-2.248,3.679-3.637c0.663-0.894,1.378-1.843,1.491-2.987
					c1.47-9.558,3.2-19.083,4.283-28.698c0.345-3.175,0.619-6.359,0.905-9.541c0.033-0.448,0.102-0.9,0.039-1.35
					c-0.36-1.07-1.361-1.933-2.511-1.976c-0.785-0.114-1.497,0.287-2.173,0.617c-4.04,2.046-8.604,3.245-13.15,2.883
					c-2.824-0.256-5.692-1.01-8.036-2.654c-1.723-1.161-3.044-3.049-3.176-5.163c-0.128-1.108,0.108-2.204,0.323-3.285
					c0.253-1.474,1.015-2.866,2.045-3.944c1.605-1.973,3.751-3.496,6.176-4.286c5.679-1.983,11.879-1.534,17.666-0.274
					c0.848,0.249,1.82-0.019,2.426-0.655c0.456-0.65,0.818-1.376,1.058-2.135c0.234-1.092,0.064-2.219,0.014-3.322
					c-0.87-12.129-3.392-24.311-8.879-35.236c-0.758-1.788-3.488-2.054-4.697-0.592c-2.2,2.665-4.367,5.375-6.889,7.75
					c-2.69,2.515-5.893,4.567-9.453,5.586c-2.975,0.787-6.172,0.984-9.159,0.146c-2.991-0.81-5.424-3.165-6.621-5.985
					c-1.169-2.79-1.017-5.975-0.163-8.83c1.181-3.485,3.627-6.46,6.626-8.554c2.234-1.545,4.896-2.233,7.47-2.983
					c2.777-0.769,5.644-1.182,8.403-2.02c0.562-0.084,0.692-0.683,0.809-1.147c0.326-1.235-0.118-2.536-0.758-3.595
					c-0.83-1.152-1.923-2.08-2.916-3.089c-3.754-3.689-7.972-6.901-12.489-9.587c-2.156-0.566-4.057-2.073-6.355-2.073
					c-2.089-0.066-4.189-0.089-6.253,0.282c-3.815,0.365-7.486,1.63-10.965,3.195c0.391,3.122,1.081,6.196,1.642,9.289
					c2.133,10.736,4.895,21.346,8.275,31.758c3.095,9.691,6.531,19.272,10.173,28.772c1.589,4.242,3.175,8.484,4.676,12.754
					c0.422,1.269,1.088,2.459,1.367,3.769c-0.924-0.437-1.262-1.445-1.674-2.303c-4.017-9.273-7.942-18.585-11.803-27.925
					c-4.511-11.113-8.586-22.422-11.702-34.012c-1.842-6.634-3.329-13.36-4.723-20.1c-5.139,2.993-10.108,6.297-14.855,9.875
					c-2.849,1.896-5.398,4.257-7.406,7.036c-1.055,1.493-2.335,2.819-3.303,4.372c-1.249,2.443-1.992,5.12-2.445,7.818
					c-0.159,0.986,0.002,1.981,0.107,2.963c0.476,4.231,1.098,8.45,2.045,12.602c0.45,2.222,1.339,4.372,2.706,6.189
					c0.718,0.827,1.807,1.522,2.942,1.405c1.038-0.304,1.555-1.342,2.044-2.219c1.599-2.545,3.519-4.897,5.754-6.913
					c1.773-1.667,3.836-3.043,6.11-3.926c2.27-0.944,4.814-1.487,7.252-0.934c2.23,0.482,4.402,1.734,5.569,3.748
					c1.184,2.002,1.178,4.492,0.611,6.689c-0.811,2.999-2.839,5.491-5.101,7.547c-1.969,1.831-4.258,3.271-6.567,4.627
					c-3.488,2.04-6.976,4.078-10.453,6.137c-0.495,0.284-0.968,0.661-1.144,1.226c-0.526,1.491-0.7,3.221,0.008,4.686
					c3.233,6.9,7.101,13.514,11.709,19.589c1.359,1.818,2.78,3.591,4.216,5.35c0.526,0.721,1.525,0.785,2.338,0.667
					c0.88-0.114,1.602-0.708,2.132-1.386c1.996-2.427,3.993-4.983,6.736-6.609c1.954-1.114,4.204-1.883,6.478-1.737
					c3.475,0.261,6.587,2.289,8.701,4.992c1.32,1.678,2.663,3.632,2.564,5.864c-0.103,2.166-1.818,3.779-3.517,4.898
					c-3.141,2.133-6.9,2.938-10.407,4.249c-1.044,0.477-1.973,1.839-1.285,2.951c0.74,1.24,1.765,2.289,2.847,3.234
					c2.941,2.444,6.033,4.699,9.147,6.916C363.603,444.422,367.862,447.467,372.313,450.216z"/>
			</g>
			<path style="fill:#B1CBBD;" d="M362.021,401.547c0.413,0.858,0.751,1.866,1.674,2.303c-0.279-1.31-0.945-2.5-1.367-3.769
				c-1.501-4.27-3.087-8.512-4.676-12.754c-3.641-9.499-7.077-19.081-10.173-28.772c-3.38-10.412-6.142-21.022-8.275-31.758
				c-0.561-3.092-1.251-6.167-1.642-9.289c-0.774-3.657-1.212-7.38-1.779-11.072c-1.316-8.544-2.142-17.153-2.985-25.754
				c-0.194-2.014-0.39-4.028-0.525-6.047c-0.078-0.905-0.202-1.845-0.673-2.639c-0.175-0.311-0.619-0.555-0.934-0.285
				c-0.872,0.865-1.102,2.145-1.183,3.321c-0.194,3.123-0.05,6.255,0.111,9.375c0.309,5.179,0.797,10.343,1.319,15.502
				c0.573,6.586,1.703,13.102,2.879,19.599c1.393,6.741,2.88,13.467,4.723,20.1c3.117,11.59,7.191,22.899,11.702,34.012
				C354.079,382.961,358.004,392.274,362.021,401.547z"/>
			<path style="fill:#B1CBBD;" d="M372.511,394.913c-1.03,1.079-1.793,2.471-2.045,3.944
				C371.104,397.519,371.784,396.207,372.511,394.913z"/>
		</g>
	</g>
	<g>
		<g>
			<g>
				<path style="fill:#B2D0C0;" d="M19.753,126.712c-2.039-6.661-3.655-13.446-5.016-20.276c-0.147-0.629,0.136-1.243,0.36-1.823
					c0.764-1.827,1.649-3.688,3.153-5.03c1.348-1.199,3.119-1.705,4.794-2.271c0.797-0.24,1.63-0.5,2.473-0.39
					c7.251,1.176,14.512,2.302,21.746,3.576c5.744,0.977,11.416,2.326,17.084,3.655c1.946,0.315,2.59,3.062,1.292,4.42
					c-1.168,1.255-2.404,2.452-3.414,3.842c-3.067,4.051-5.007,9.127-4.618,14.26c0.184,2.209,0.859,4.541,2.537,6.084
					c1.435,1.352,3.452,1.908,5.388,1.902c2.272-0.114,4.58-0.613,6.515-1.865c2.734-1.697,4.608-4.434,6.017-7.266
					c1.857-3.757,2.798-7.903,3.279-12.046c0.091-0.726,0.092-1.545,0.626-2.121c0.689-0.939,1.964-0.939,3.015-1.018
					c1.236,0.075,2.361,0.664,3.502,1.097c10.554,4.359,20.672,10.109,29.027,17.965c0.77,0.762,1.683,1.441,2.179,2.427
					c0.284,1.047,0.078,2.308-0.73,3.071c-0.784,0.732-1.871,0.945-2.825,1.354c-3.837,1.507-7.738,3.058-11.031,5.591
					c-2.38,1.824-4.476,4.081-5.842,6.765c-1.338,2.57-2.197,5.49-1.918,8.406c0.477,4.212,3.773,7.843,7.843,8.918
					c4.672,1.493,9.831,0.144,13.756-2.617c2.585-1.783,4.309-4.478,6.009-7.057c1.443-2.177,2.62-4.523,4.104-6.676
					c0.413-0.804,1.428-0.564,2.152-0.424c1.302,0.408,2.388,1.401,3.037,2.587c2.99,5.609,5.36,11.596,6.634,17.829
					c-0.103,2.192,0.69,4.433-0.005,6.579c-0.524,1.693-1.006,3.412-1.808,4.999c-0.703,1.39-1.302,2.839-2.145,4.155
					c-2.042,3.171-4.469,6.1-7.284,8.615c-1.243-0.499-2.321-1.299-3.463-1.982c-6.37-3.992-12.505-8.343-18.52-12.851
					c-1.958-1.647-4.115-3.039-6.065-4.699c-10.437-8.056-20.508-16.579-30.513-25.173c-2.689-2.269-5.274-4.659-8.024-6.861
					c-0.693-0.522-1.265-1.407-2.24-1.333c0.521,1.057,1.513,1.729,2.329,2.534c10.035,9.277,19.816,18.848,30.391,27.521
					c4.916,4.098,9.895,8.117,14.956,12.029c5.898,4.549,11.881,9.002,18.15,13.032c-0.003,0.083-0.008,0.251-0.011,0.336
					c-2.889,2.558-5.998,4.863-9.08,7.182c-2.76,1.85-5.315,4.046-8.395,5.374c-2.077,0.946-4.293,1.533-6.41,2.38
					c-2.114,0.901-4.461,0.857-6.714,0.806c-1.764-0.159-3.61-0.174-5.233-0.973c-3.885-1.769-7.722-3.652-11.403-5.813
					c-1.42-0.835-2.85-1.694-4.018-2.871c-0.85-0.866-1.765-1.746-2.213-2.902c-0.235-0.78-0.421-1.682-0.035-2.452
					c0.371-0.566,1.037-0.866,1.677-1.029c4.151-0.838,8.143-2.509,11.644-4.894c2.466-1.817,4.61-4.178,5.88-6.989
					c1.101-2.638,1.097-5.836-0.39-8.328c-1.187-1.956-3.37-3.104-5.581-3.469c-3.316-0.598-6.673,0.488-9.566,2.061
					c-3.236,1.691-5.944,4.173-8.656,6.576c-2.217,1.945-4.423,3.899-6.645,5.837c-0.669,0.559-1.312,1.344-2.256,1.347
					c-1.532,0.034-3.177-0.315-4.338-1.377c-5.875-5.518-11.199-11.635-15.711-18.323c-1.048-1.551-2.079-3.113-3.079-4.696
					c-0.579-0.826-0.244-1.936,0.247-2.723c0.675-1.047,1.955-1.34,3.037-1.781c3.022-1.163,6.137-2.504,8.319-4.987
					c1.616-1.779,2.793-4.063,2.812-6.509c0.216-2.775-0.811-5.5-2.293-7.804c-0.925-1.396-1.967-2.792-3.418-3.682
					c-1.111-0.701-2.515-0.932-3.784-0.577c-1.705,0.475-3.139,1.578-4.425,2.751c-2.394,2.172-4.082,4.959-6.074,7.47
					c-0.759,0.93-2.443,1.468-3.319,0.409c-0.991-1.146-1.69-2.516-2.258-3.913C22.937,137.39,21.359,132.043,19.753,126.712z"/>
			</g>
			<g>
				<path style="fill:#CCE7D9;" d="M63.145,143.563c-0.816-0.805-1.807-1.477-2.329-2.534c0.974-0.074,1.547,0.811,2.24,1.333
					c2.75,2.202,5.335,4.592,8.024,6.861c10.005,8.593,20.076,17.117,30.513,25.173c1.95,1.66,4.108,3.051,6.065,4.699
					c6.015,4.508,12.149,8.859,18.52,12.851c1.142,0.682,2.22,1.482,3.463,1.982c0.837,0.767,1.894,1.216,2.849,1.813
					c6.706,3.854,13.665,7.256,20.778,10.286c4.466,2.045,9.117,3.636,13.714,5.349c0.601,0.244,1.347,0.504,1.518,1.213
					c0.05,0.823-0.915,1.073-1.561,1.038c-1.986-0.146-3.887-0.796-5.797-1.314c-3.292-1.055-6.604-2.049-9.824-3.305
					c-7.865-3.184-15.437-7.091-22.642-11.571c-0.66-0.356-1.247-0.986-2.045-0.956c0.003-0.085,0.008-0.253,0.011-0.336
					c-6.269-4.031-12.252-8.483-18.15-13.032c-5.061-3.912-10.04-7.931-14.956-12.029C82.961,162.411,73.18,152.84,63.145,143.563z"
					/>
			</g>
		</g>
		<g>
			<g>
				<path style="fill:#7C9C8B;" d="M157.927,39.302c-2.432-2.592-4.92-5.131-7.461-7.618c-0.401-0.432-1.01-0.53-1.559-0.657
					c-1.892-0.386-3.869-0.623-5.779-0.224c-1.723,0.382-3.141,1.495-4.487,2.576c-0.87,0.694-1.803,1.429-2.205,2.506
					c-3.865,8.864-7.973,17.631-11.478,26.649c-1.146,2.981-2.224,5.989-3.314,8.993c-0.146,0.425-0.329,0.844-0.383,1.295
					c0.074,1.126,0.822,2.217,1.922,2.552c0.73,0.311,1.521,0.106,2.259-0.041c4.429-0.945,9.148-0.938,13.45,0.575
					c2.665,0.97,5.244,2.432,7.09,4.62c1.369,1.563,2.164,3.726,1.751,5.803c-0.159,1.104-0.668,2.103-1.153,3.093
					c-0.621,1.36-1.714,2.511-2.986,3.29c-2.056,1.497-4.521,2.421-7.067,2.565c-5.998,0.465-11.877-1.554-17.149-4.252
					c-0.757-0.457-1.764-0.447-2.513,0.013c-0.607,0.511-1.142,1.121-1.568,1.793c-0.506,0.996-0.63,2.129-0.864,3.208
					c-2.261,11.948-2.937,24.37-0.425,36.335c0.275,1.922,2.846,2.878,4.39,1.774c2.808-2.014,5.597-4.079,8.641-5.731
					c3.243-1.743,6.865-2.908,10.567-2.984c3.077,0,6.219,0.627,8.892,2.201c2.685,1.548,4.435,4.447,4.871,7.479
					c0.417,2.996-0.545,6.037-2.1,8.578c-2.033,3.067-5.158,5.318-8.593,6.575c-2.554,0.922-5.304,0.907-7.984,0.973
					c-2.882,0.034-5.758-0.3-8.64-0.196c-0.565-0.062-0.844,0.484-1.075,0.902c-0.631,1.111-0.534,2.482-0.187,3.669
					c0.508,1.326,1.328,2.503,2.029,3.733c2.687,4.526,5.943,8.71,9.623,12.462c1.94,1.098,3.392,3.041,5.613,3.629
					c2.002,0.598,4.027,1.157,6.117,1.326c3.781,0.623,7.654,0.338,11.417-0.285c0.42-3.118,0.539-6.267,0.787-9.4
					c0.683-10.924,0.726-21.888,0.12-32.818c-0.514-10.16-1.386-20.302-2.478-30.416c-0.452-4.507-0.9-9.014-1.259-13.525
					c-0.083-1.335-0.423-2.655-0.358-3.993c0.781,0.659,0.85,1.719,1.03,2.654c1.512,9.992,2.926,19.998,4.27,30.015
					c1.519,11.897,2.568,23.872,2.617,35.874c0.085,6.884-0.197,13.767-0.574,20.64c5.734-1.579,11.382-3.503,16.886-5.748
					c3.239-1.105,6.308-2.735,8.959-4.909c1.402-1.173,2.979-2.128,4.311-3.383c1.833-2.042,3.235-4.441,4.363-6.933
					c0.406-0.912,0.504-1.916,0.654-2.892c0.621-4.212,1.099-8.449,1.246-12.706c0.133-2.263-0.176-4.569-1.034-6.675
					c-0.483-0.983-1.357-1.933-2.485-2.111c-1.082,0.029-1.847,0.9-2.544,1.623c-2.197,2.051-4.654,3.834-7.33,5.212
					c-2.141,1.159-4.487,1.961-6.911,2.234c-2.436,0.332-5.035,0.207-7.25-0.951c-2.033-1.036-3.812-2.802-4.426-5.048
					c-0.632-2.238,0.01-4.644,1.119-6.623c1.551-2.691,4.148-4.582,6.861-5.991c2.372-1.267,4.953-2.073,7.532-2.794
					c3.893-1.081,7.787-2.159,11.675-3.26c0.551-0.148,1.105-0.391,1.42-0.893c0.889-1.307,1.5-2.935,1.19-4.532
					c-1.361-7.497-3.409-14.88-6.311-21.931c-0.849-2.105-1.77-4.183-2.708-6.25c-0.324-0.831-1.274-1.149-2.09-1.243
					c-0.88-0.115-1.73,0.275-2.415,0.795c-2.55,1.836-5.134,3.796-8.202,4.667c-2.174,0.578-4.546,0.745-6.707,0.023
					c-3.293-1.141-5.782-3.897-7.136-7.05c-0.847-1.96-1.645-4.192-0.979-6.325c0.654-2.067,2.724-3.189,4.652-3.835
					c3.582-1.258,7.422-1.076,11.147-1.447c1.131-0.194,2.378-1.273,1.996-2.524c-0.398-1.388-1.122-2.664-1.925-3.855
					c-2.218-3.115-4.631-6.085-7.074-9.025C164.866,47.13,161.528,43.097,157.927,39.302z"/>
			</g>
			<path style="fill:#B1CBBD;" d="M155.434,88.984c-0.179-0.935-0.249-1.995-1.03-2.654c-0.065,1.338,0.275,2.658,0.358,3.993
				c0.359,4.512,0.808,9.019,1.259,13.525c1.091,10.114,1.963,20.256,2.478,30.416c0.605,10.93,0.563,21.893-0.12,32.818
				c-0.248,3.133-0.367,6.282-0.787,9.4c-0.187,3.733-0.715,7.444-1.111,11.159c-0.912,8.597-2.315,17.131-3.699,25.661
				c-0.327,1.996-0.653,3.994-1.039,5.981c-0.155,0.895-0.277,1.835-0.024,2.723c0.09,0.346,0.457,0.695,0.83,0.514
				c1.064-0.613,1.613-1.792,1.993-2.908c0.986-2.969,1.647-6.034,2.29-9.092c1.026-5.085,1.874-10.203,2.688-15.324
				c1.13-6.513,1.704-13.102,2.228-19.683c0.377-6.873,0.659-13.755,0.574-20.64c-0.049-12.002-1.097-23.976-2.617-35.874
				C158.36,108.983,156.946,98.976,155.434,88.984z"/>
			<path style="fill:#B1CBBD;" d="M143.596,92.715c1.272-0.779,2.365-1.93,2.986-3.29C145.622,90.556,144.629,91.651,143.596,92.715
				z"/>
		</g>
	</g>
	<g>
		<g>
			<path style="fill:#FFFFFF;" d="M179.463,244.272c3.931-3.161,8.941-5.093,14.018-4.88c2.72,0.342,5.425,1.063,7.794,2.477
				c2.693,1.503,4.683,3.919,6.707,6.189c-3.759-3.962-9.363-6.239-14.828-5.539c-4.64,0.595-8.879,3.09-12.037,6.485
				c-4.735,4.902-7.489,11.473-8.457,18.164c-0.776,5.866-0.271,11.988,2.058,17.471c2.101,5.136,5.915,9.742,11.008,12.111
				c5.416,2.523,12.052,1.864,17.003-1.42c-2.967,2.677-6.211,5.293-10.139,6.353c-1.51,0.311-2.988,0.792-4.538,0.847
				c-1.935,0.16-3.857-0.166-5.773-0.361c-4.409-1.087-8.18-3.996-10.863-7.597c-2.893-3.866-4.631-8.519-5.376-13.266l-0.373-0.219
				c0-0.019,0-0.055,0-0.074c0.36-1.1-0.015-2.221-0.062-3.33c-0.108-1.929,0.043-3.86-0.071-5.786
				c0.644-4.766,1.657-9.529,3.641-13.935C171.511,252.714,174.9,247.821,179.463,244.272z"/>
			<path style="fill:#FFFFFF;" d="M299.908,241.213c4.849-2.502,10.801-2.36,15.685-0.022c1.75,0.665,3.133,1.999,4.862,2.708
				c5.736,4.461,9.674,10.937,11.91,17.786c0.872,2.597,1.362,5.299,1.824,7.995c-0.139,2.788,0.213,5.579-0.04,8.368
				c-0.12,2.822-0.946,5.527-1.525,8.272c-1.583,5.197-4.837,9.985-9.35,13.069c-1.898,1.183-3.959,2.237-6.186,2.588
				c-2.93,0.394-5.9,0.339-8.79-0.317c-4.267-0.983-7.85-3.734-11.02-6.636c4.821,3.182,11.233,3.922,16.569,1.608
				c4.803-2.049,8.509-6.149,10.774-10.789c3.035-6.217,3.697-13.411,2.539-20.182c-1.14-6.405-3.94-12.644-8.574-17.28
				c-2.828-2.939-6.479-5.151-10.499-5.961c-3.753-0.804-7.745-0.105-11.134,1.639c-0.323,0.074-0.977,0.222-1.3,0.299
				C296.744,242.926,298.361,242.057,299.908,241.213z"/>
			<path style="fill:#FFFFFF;" d="M288.213,259.276c-0.958-3.022,1.497-6.759,4.754-6.738c2.391-0.185,4.612,1.808,4.935,4.141
				c0.271,1.226-0.326,2.394-0.841,3.469c-0.983,2.249-3.7,3.367-6.002,2.56C289.64,262.052,288.663,260.751,288.213,259.276z"/>
			<path style="fill:#FFFFFF;" d="M204.06,253.77c1.476-1.164,3.688-1.266,5.277-0.274c1.51,0.844,2.348,2.526,2.696,4.159
				c0.019,1.771-0.653,3.654-2.101,4.754c-1.614,1.257-4.085,1.103-5.622-0.21c-1.291-1.155-2.049-2.85-2.295-4.541
				C202.135,256.152,202.797,254.654,204.06,253.77z"/>
		</g>
		<g>
			<path style="fill:#FFFFFF;" d="M296.448,243.015c2.668-2.209,6.026-3.46,9.43-3.953c5.237-0.428,10.623,1.396,14.575,4.837
				c-1.728-0.709-3.112-2.043-4.862-2.708c-4.883-2.338-10.835-2.48-15.685,0.022c-1.547,0.844-3.164,1.713-4.258,3.142
				c0.323-0.077,0.977-0.225,1.3-0.299c-1.83,1.124-3.623,2.351-5.105,3.922C293.3,246.256,294.643,244.398,296.448,243.015z"/>
		</g>
		<g>
			<g>
				<path style="fill:#F46D31;" d="M283.124,70.267c0.499-0.166,1.3-0.176,1.386,0.493c0.179,0.89-0.813,1.306-1.371,1.781
					c-3.86,2.529-6.864,6.091-9.908,9.507c-3.743,4.31-7.326,8.78-10.373,13.617c-2.2,3.469-4.381,6.957-6.356,10.561
					c4.76-3.038,9.892-5.539,15.33-7.104c5.49-1.738,11.134-2.97,16.834-3.793c0.998-0.4,1.599,1.171,0.595,1.488
					c-5.817,2.874-10.275,7.782-14.243,12.795c6.408,1.309,12.776,2.801,19.194,4.054c13.149,2.896,25.981,7.277,38.113,13.124
					c7.835,3.842,15.262,8.509,22.148,13.87c1.482,1.118,2.779,2.492,4.412,3.401c0.419-2.187,1.319-4.233,2.15-6.288
					c2.566-6.112,6.205-11.695,10.071-17.052c5.94-8.112,13.59-15.275,22.918-19.267c2.532-1.177,5.296-1.713,8.026-2.206
					c6.371-1.149,13.155,0.364,18.479,4.045c3.857,2.665,7.231,6.128,9.421,10.302c3.216,5.835,4.809,12.625,4.021,19.271
					c-0.635,5.586-3.182,10.82-6.658,15.182c1.608-5.74,3.654-11.587,3.112-17.635c-0.672-5.709-3.448-11.251-7.927-14.911
					c-4.242-3.444-9.979-4.828-15.355-4.101c-4.535,0.669-8.857,2.363-12.921,4.436c-5.24,2.711-9.914,6.396-14.215,10.407
					c-5.237,5.016-10.127,10.527-13.639,16.911c-0.884,1.556-2.184,2.985-2.418,4.822c-0.169,0.909,0.644,1.494,1.177,2.095
					c3.879,3.937,7.791,7.859,11.236,12.188c1.497,2.11,2.834,4.326,4.239,6.497c-1.962,0.407-3.971,0.114-5.952,0.296
					c-1.852,0.148-3.709,0.055-5.558,0.12c-9.776,0.77-19.419,2.954-28.658,6.214c-4.738,1.944-9.575,3.725-13.996,6.344
					c-9.618,5.182-18.522,11.658-26.526,19.092c-2.147,1.75-3.885,3.919-5.758,5.943c-2.19,2.474-4.11,5.166-5.983,7.881
					c-1.186,1.796-2.511,3.503-3.524,5.407c-1.239,2.04-2.147,4.248-3.149,6.408c-3.025,6.716-5.373,13.759-6.698,21.011
					c-0.977,6.436-1.947,12.893-2.15,19.406c-0.034,3.697,0.083,7.394,0.043,11.091c-0.046,2.055,0.24,4.101,0.216,6.159
					c-0.043,1.932,0.302,3.842,0.508,5.758c0.145,1.349,0.57,2.711,0.237,4.073c-4.982-3.506-10.694-6.106-16.732-7.061
					c-2.868-0.176-5.73-0.533-8.605-0.434c-7.927,0.08-15.641,3.124-21.997,7.751c-0.142-0.773-0.24-1.562-0.105-2.335
					c0.376-2.569,0.77-5.145,0.853-7.742c-0.034-2.363,0.286-4.714,0.228-7.077c-0.083-4.822,0.283-9.658-0.169-14.471
					c-0.228-4.119-0.838-8.201-1.408-12.283c-0.832-6.362-2.533-12.591-4.788-18.587c-1.95-4.865-3.928-9.76-6.725-14.209
					c-1.867-2.745-3.737-5.49-5.727-8.143c-1.885-2.511-4.048-4.794-6.171-7.098c-8.611-8.25-18.229-15.5-28.747-21.15
					c-4.212-2.511-8.827-4.202-13.331-6.091c-9.332-3.398-19.11-5.619-29.015-6.448c-1.956-0.105-3.919,0.019-5.872-0.157
					c-1.913-0.179-3.86,0.142-5.746-0.323c1.531-1.889,2.825-3.953,4.421-5.786c1.959-2.246,3.808-4.6,5.98-6.648
					c1.818-1.873,3.916-3.484,5.567-5.515c0.518-1.201-0.259-2.468-0.832-3.506c-1.574-2.36-2.825-4.92-4.507-7.209
					c-3.321-4.621-7.175-8.848-11.35-12.708c-4.202-3.808-8.74-7.308-13.818-9.868c-3.971-1.975-8.176-3.605-12.588-4.236
					c-4.929-0.65-10.13,0.478-14.233,3.315c-4.689,3.303-7.705,8.623-8.765,14.203c-0.918,4.757,0.311,9.538,1.423,14.147
					c-0.043,0.117-0.129,0.348-0.169,0.465c-2.942-4.529-4.871-9.819-4.889-15.256c-0.089-4.661,0.859-9.329,2.776-13.58
					c1.858-4.467,4.781-8.481,8.562-11.516c5.906-5.099,14.2-7.292,21.834-5.576c4.76,0.718,9.175,2.797,13.241,5.299
					c5.552,3.525,10.382,8.1,14.517,13.198c3.004,3.829,5.755,7.862,8.257,12.04c2.52,4.452,4.877,9.095,6.088,14.092
					c1.614-0.918,2.911-2.274,4.384-3.392c8.543-6.652,17.924-12.249,27.888-16.501c8.857-3.937,18.097-6.947,27.469-9.375
					c4.686-1.192,9.461-1.99,14.172-3.069c4.107-0.878,8.204-1.824,12.336-2.572c0.413-2.548,0.514-5.145,0.065-7.696
					c-0.884-6.525-2.807-12.841-4.698-19.126c-0.213-0.539-0.065-1.457,0.641-1.482c0.918-0.185,1.485,0.721,2.073,1.26
					c5.086,5.533,8.272,12.431,11.833,18.966c0.678,1.272,1.349,2.551,2.015,3.836c1.448-3.608,3.528-6.923,5.752-10.096
					c2.785-3.956,6.424-7.215,10.29-10.087c3.112-2.298,6.359-4.433,9.8-6.205c2.739-1.445,5.585-2.662,8.404-3.94
					C276.654,72.562,279.818,71.194,283.124,70.267z M234.776,160.446c0.299,0.086,0.601,0.182,0.909,0.28
					c-5.434,0.219-10.807,1.371-15.977,3.047c-6.045,2.043-12.176,4.141-17.496,7.748c-1.214,0.853-2.671,1.371-3.706,2.462
					c-0.45,0.401-0.228,1.081-0.324,1.611c1.309,0.145,2.606-0.049,3.897-0.253c2.061-0.074,4.137-0.003,6.177-0.397
					c3.315-0.317,6.556-1.143,9.883-1.319c0.927-0.114,1.821-0.422,2.754-0.505c3.691-0.327,7.36-0.983,11.072-1.011
					c1.325-0.166,2.656-0.317,3.999-0.277c4.409-0.444,8.851-0.243,13.278-0.305c4.322-0.071,8.611,0.459,12.915,0.696
					c5.444,0.856,10.94,1.454,16.338,2.606c3.796,0.662,7.471,1.852,11.233,2.665c3.404,0.89,6.772,1.916,10.111,3.044
					c0.773,0.29,1.608,0.271,2.428,0.246c0.169-0.114,0.511-0.342,0.681-0.456c0.034-0.542,0.068-1.085,0.114-1.62
					c-0.422-0.434-0.832-0.881-1.325-1.223c-3.066-1.959-6.211-3.792-9.4-5.542c-5.835-3.155-12.176-5.167-18.399-7.391
					c-6.482-2.268-13.235-3.826-20.087-4.304c-3.9-0.209-7.816-0.129-11.719-0.092C239.669,160.064,237.241,160.692,234.776,160.446
					z M241.215,197.237c-6.303,0.588-12.302,2.856-18.063,5.37c-1.368,0.699-2.902,1.165-4.017,2.268
					c0.012,0.567,0.022,1.14,0.031,1.716c1.088,1.029,2.548,0.422,3.863,0.398c3.201-0.176,6.387-0.635,9.597-0.684l0.262-0.194
					c0.927-0.025,1.861-0.037,2.794-0.068c4.492-0.496,9.024-0.277,13.537-0.336c6.504-0.083,12.983,0.444,19.409,1.405
					c2.871,0.277,5.706,0.995,8.608,0.866c-0.077-0.841-0.49-1.605-1.091-2.181c-1.821-1.642-3.851-3.068-6.106-4.042
					C261.176,197.373,250.975,196.011,241.215,197.237z M229.36,233.323c-0.018,0.465-0.034,0.936-0.043,1.408
					c3.497,0.182,6.947-0.502,10.358-1.174c3.266-0.351,6.568-0.918,9.849-0.459c3.722,0.256,7.403,0.89,11.1,1.371
					c2.043,0.237,4.168,1.004,6.199,0.419c0.45-0.85-0.431-1.648-0.983-2.2c-1.313-0.983-2.779-1.738-4.196-2.557
					c-2.93-1.451-6.137-2.203-9.28-3.035c-2.227-0.591-4.541-0.477-6.818-0.453c-0.835,0.015-1.682-0.003-2.483,0.253
					C238.051,227.839,233.236,229.977,229.36,233.323z"/>
			</g>
		</g>
		<g>
			<path style="fill:#FFB9B1;" d="M407.142,111.402c5.376-0.727,11.112,0.656,15.355,4.101c4.479,3.66,7.255,9.202,7.927,14.911
				c0.542,6.048-1.504,11.895-3.112,17.635c-2.434,3.238-5.502,6.011-8.706,8.5c-10.136,7.727-22.656,12.243-35.377,12.865
				c-0.733,0.006-1.451,0.16-1.599,0.977c-0.351-0.545-0.693-1.091-1.029-1.633c-1.405-2.172-2.742-4.387-4.239-6.497
				c-3.444-4.328-7.357-8.25-11.236-12.188c-0.533-0.601-1.346-1.186-1.177-2.095c0.234-1.836,1.534-3.266,2.418-4.822
				c3.512-6.383,8.401-11.895,13.639-16.911c4.301-4.011,8.974-7.696,14.215-10.407
				C398.285,113.765,402.607,112.071,407.142,111.402z"/>
			<path style="fill:#FFB9B1;" d="M78.236,115.94c4.104-2.837,9.304-3.965,14.233-3.315c4.412,0.632,8.617,2.261,12.588,4.236
				c5.077,2.56,9.615,6.06,13.818,9.868c4.174,3.86,8.029,8.087,11.35,12.708c1.682,2.289,2.933,4.849,4.507,7.209
				c0.573,1.038,1.349,2.305,0.832,3.506c-1.651,2.03-3.749,3.642-5.567,5.515c-2.172,2.049-4.021,4.402-5.98,6.648
				c-1.596,1.833-2.89,3.897-4.421,5.786c-0.45,0.567-0.89,1.146-1.3,1.747c-0.043-0.206-0.129-0.616-0.173-0.823
				c-1.362-0.311-2.76-0.308-4.144-0.425c-11.966-1.121-23.615-5.669-33.1-13.063c-3.934-3.001-7.314-6.661-10.201-10.666
				l0.046-0.117c0.04-0.117,0.126-0.348,0.169-0.465c-1.112-4.609-2.341-9.39-1.423-14.147
				C70.531,124.563,73.547,119.243,78.236,115.94z"/>
			<path style="fill:#FFB9B1;" d="M334.188,269.68c0.86,3.74,0.511,7.619,0.139,11.402c-0.853,1.642-0.576,3.74-1.704,5.237
				c0.579-2.745,1.405-5.45,1.525-8.272C334.401,275.259,334.05,272.468,334.188,269.68z"/>
			<path style="fill:#FFB9B1;" d="M226.319,294.215c6.356-4.627,14.07-7.671,21.997-7.751c2.874-0.099,5.737,0.259,8.605,0.434
				c6.038,0.955,11.75,3.555,16.732,7.061c1.343,0.946,2.609,2.027,3.58,3.367c1.242,1.849,2.474,4.128,1.704,6.408
				c-0.724,1.377-2.129,2.317-3.558,2.853c-3.155,0.958-6.544,0.57-9.714,1.426c-1.713,0.693-2.967,2.206-3.876,3.765
				c-1.14,2.181-1.855,4.729-3.836,6.343c-1.919,1.448-4.452,1.596-6.768,1.599c-0.884-0.037-1.765-0.102-2.643-0.145
				c-1.922-0.089-3.987-0.284-5.582-1.454c-2.948-2.616-3.025-7.114-6.005-9.695c-0.89-0.952-2.184-1.297-3.429-1.473
				c-2.286-0.333-4.575-0.647-6.83-1.146c-1.722-0.364-3.272-1.426-4.292-2.847c-0.693-1.929,0.16-3.907,0.859-5.697
				c-1.124-0.015-2.252-0.022-3.37,0.077c1.18-0.284,2.4-0.256,3.598-0.419C224.526,296.122,225.284,295.023,226.319,294.215z"/>
			<path style="fill:#FFB9B1;" d="M308.297,301.659c2.89,0.656,5.86,0.712,8.79,0.317c-0.388,0.231-0.82,0.388-1.266,0.428
				c-1.975,0.209-3.98,0.203-5.934-0.142C309.326,302.158,308.704,302.105,308.297,301.659z"/>
		</g>
		<g>
			<path style="fill:#282828;" d="M234.776,160.446c2.465,0.246,4.892-0.382,7.357-0.29c3.903-0.037,7.819-0.117,11.719,0.092
				c6.852,0.478,13.605,2.036,20.087,4.304c6.223,2.224,12.564,4.236,18.399,7.391c3.189,1.75,6.334,3.583,9.4,5.542
				c0.493,0.342,0.903,0.789,1.325,1.223c-0.046,0.536-0.08,1.078-0.114,1.62c-0.169,0.114-0.511,0.342-0.681,0.456
				c-0.82,0.025-1.654,0.043-2.428-0.246c-3.34-1.128-6.707-2.153-10.111-3.044c-3.762-0.813-7.437-2.002-11.233-2.665
				c-5.398-1.152-10.894-1.75-16.338-2.606c-4.304-0.237-8.592-0.767-12.915-0.696c-4.427,0.062-8.87-0.139-13.278,0.305
				c-1.343-0.04-2.674,0.111-3.999,0.277c-3.712,0.028-7.382,0.684-11.072,1.011c-0.934,0.083-1.827,0.391-2.754,0.505
				c-3.327,0.176-6.568,1.001-9.883,1.319c-2.039,0.394-4.116,0.324-6.177,0.397c-1.291,0.203-2.588,0.397-3.897,0.253
				c0.096-0.53-0.126-1.211,0.324-1.611c1.035-1.091,2.492-1.608,3.706-2.462c5.321-3.608,11.452-5.706,17.496-7.748
				c5.17-1.676,10.543-2.828,15.977-3.047C235.377,160.628,235.075,160.532,234.776,160.446z"/>
			<path style="fill:#282828;" d="M241.215,197.237c9.76-1.226,19.961,0.135,28.824,4.516c2.255,0.974,4.285,2.4,6.106,4.042
				c0.601,0.576,1.014,1.34,1.091,2.181c-2.902,0.129-5.736-0.588-8.608-0.866c-6.427-0.961-12.906-1.488-19.409-1.405
				c-4.513,0.059-9.045-0.16-13.537,0.336c-0.933,0.031-1.867,0.043-2.794,0.068l-0.262,0.194c-3.21,0.049-6.396,0.508-9.597,0.684
				c-1.315,0.025-2.776,0.632-3.863-0.398c-0.009-0.576-0.018-1.149-0.031-1.716c1.115-1.103,2.65-1.568,4.017-2.268
				C228.913,200.093,234.912,197.826,241.215,197.237z"/>
			<path style="fill:#282828;" d="M229.36,233.323c3.876-3.346,8.691-5.484,13.704-6.427c0.801-0.256,1.648-0.237,2.483-0.253
				c2.277-0.025,4.59-0.139,6.818,0.453c3.143,0.832,6.35,1.584,9.28,3.035c1.417,0.82,2.884,1.574,4.196,2.557
				c0.551,0.551,1.432,1.349,0.983,2.2c-2.03,0.585-4.156-0.182-6.199-0.419c-3.697-0.481-7.379-1.115-11.1-1.371
				c-3.281-0.459-6.584,0.108-9.849,0.459c-3.41,0.672-6.861,1.356-10.358,1.174C229.326,234.259,229.342,233.788,229.36,233.323z"
				/>
			<path style="fill:#282828;" d="M97.969,229.198c3.078-0.111,6.159-0.126,9.239-0.102c7.502,0,15.028,0.98,22.216,3.176
				c2.964,0.869,5.891,1.876,8.771,2.995c1.245,0.459,2.659,1.448,2.44,2.967c-0.105,1.343-1.46,1.99-2.619,2.24
				c-3.109,0.743-6.18,1.617-9.233,2.56c-10.977,3.192-21.905,6.941-31.825,12.712c-0.059-4.695-0.379-9.396-0.037-14.089
				C96.918,237.482,97.393,233.326,97.969,229.198z"/>
			<path style="fill:#282828;" d="M380.789,229.839c6.947-0.964,13.984-0.832,20.974-0.601c0.049,0.062,0.148,0.185,0.197,0.247
				c1.066,6.562,1.257,13.22,1.251,19.853c0.006,2.326-0.231,4.646-0.179,6.975c-8.096-4.874-16.951-8.358-25.938-11.199
				c-5.404-1.685-10.817-3.367-16.316-4.714c-1.192-0.243-2.455-1.128-2.36-2.483c-0.003-1.5,1.485-2.289,2.702-2.754
				C367.483,232.759,374.03,230.726,380.789,229.839z"/>
			<g>
				<path style="fill:#282828;" d="M302.268,234.94c2.773-0.9,5.724-0.638,8.589-0.536c6.331,1.06,11.815,4.969,15.968,9.729
					c5.185,6.091,8.599,13.645,9.942,21.516c0.428,3.934,0.262,7.905-0.043,11.843c-0.172,2.147-1.004,4.156-1.756,6.149
					c-0.157,0.04-0.471,0.12-0.628,0.16c0.006-0.909-0.012-1.818-0.012-2.72c0.373-3.783,0.721-7.662-0.139-11.402
					c-0.462-2.696-0.952-5.398-1.824-7.995c-2.237-6.849-6.174-13.325-11.91-17.786c-3.953-3.441-9.338-5.265-14.575-4.837
					c-3.404,0.493-6.762,1.744-9.43,3.953c-1.805,1.383-3.149,3.241-4.603,4.963c1.482-1.571,3.275-2.797,5.105-3.922
					c3.389-1.744,7.382-2.443,11.134-1.639c4.02,0.81,7.671,3.022,10.499,5.961c4.634,4.637,7.434,10.875,8.574,17.28
					c1.158,6.772,0.496,13.965-2.539,20.182c-2.264,4.64-5.971,8.74-10.774,10.789c-5.336,2.314-11.747,1.574-16.569-1.608
					c-4.162-2.606-7.277-6.596-9.535-10.903c-3.888-8.109-4.159-17.437-2.859-26.184l0.157-0.265
					c0.237-1.913,0.872-3.752,1.383-5.607c0.598-2.295,1.83-4.341,2.884-6.442C292.172,240.692,296.633,236.404,302.268,234.94z
					 M288.213,259.276c0.45,1.476,1.426,2.776,2.847,3.432c2.301,0.807,5.019-0.311,6.002-2.56c0.514-1.075,1.112-2.243,0.841-3.469
					c-0.323-2.332-2.545-4.325-4.935-4.141C289.71,252.516,287.255,256.254,288.213,259.276z M304.172,260.884
					c-5.358,1.319-9.563,5.961-10.897,11.242c-0.872,2.68-0.841,5.53-0.684,8.312c0.57,4.689,2.976,9.246,6.904,11.96
					c2.092,1.294,4.541,2.095,7.021,2.024c3.102-0.003,6.094-1.38,8.374-3.438c4.8-4.227,6.895-11.076,5.881-17.317
					c-0.736-4.932-3.882-9.427-8.278-11.784C309.936,260.631,306.951,260.222,304.172,260.884z"/>
			</g>
			<g>
				<path style="fill:#282828;" d="M187.587,235.048c1.494-0.49,3.078-0.407,4.627-0.431c5.428-0.296,10.838,2.144,14.523,6.082
					c1.99,2.089,3.74,4.436,4.914,7.089c2.043,3.617,2.862,7.748,3.691,11.778c0.767,6.633,0.776,13.497-1.186,19.945
					c-1.873,6.337-5.823,12.216-11.427,15.82c-4.951,3.284-11.587,3.943-17.003,1.42c-5.093-2.369-8.907-6.975-11.008-12.111
					c-2.329-5.484-2.834-11.605-2.058-17.471c0.967-6.691,3.722-13.263,8.457-18.164c3.158-3.395,7.397-5.891,12.037-6.485
					c5.465-0.699,11.069,1.577,14.828,5.539c-2.024-2.271-4.014-4.686-6.707-6.189c-2.369-1.414-5.074-2.135-7.794-2.477
					c-5.077-0.213-10.087,1.719-14.018,4.88c-4.563,3.549-7.952,8.441-10.287,13.691c-1.984,4.406-2.998,9.169-3.641,13.935
					c-0.478,3.013-0.286,6.106,0.132,9.116c0,0.018,0,0.055,0,0.074c-0.034,1.007-0.012,2.018-0.009,3.031
					c-0.154-0.043-0.462-0.129-0.616-0.173c-0.724-1.947-1.556-3.894-1.728-5.983c-0.308-3.244-0.416-6.51-0.246-9.763
					c0.018-2.754,0.816-5.419,1.556-8.047c1.959-6.199,5.127-12.077,9.588-16.834C177.846,239.478,182.384,236.29,187.587,235.048z
					 M204.06,253.77c-1.263,0.884-1.926,2.382-2.046,3.888c0.246,1.691,1.004,3.386,2.295,4.541c1.537,1.312,4.008,1.466,5.622,0.21
					c1.448-1.1,2.12-2.982,2.101-4.754c-0.348-1.633-1.186-3.315-2.696-4.159C207.748,252.504,205.536,252.606,204.06,253.77z
					 M190.486,261.164c-3.614,0.681-6.553,3.235-8.654,6.14c-3.192,4.744-3.623,10.992-1.759,16.325
					c1.51,4.541,4.874,8.608,9.412,10.336c4.131,1.608,9.101,0.628,12.382-2.332c1.238-1.14,2.403-2.394,3.201-3.888
					c1.577-2.868,2.625-6.131,2.471-9.434c0.2-3.37-0.89-6.661-2.271-9.689c-1.685-2.733-3.968-5.244-6.957-6.553
					C195.89,260.93,193.102,260.551,190.486,261.164z"/>
			</g>
			<path style="fill:#282828;" d="M136.763,279.104c2.985-0.133,5.94-0.65,8.928-0.73c1.248-0.105,2.687,0.456,3.075,1.75
				c0.49,1.43-0.659,2.714-1.713,3.525c-9.954,7.881-19.97,15.694-29.57,24.006c-4.406,3.833-8.599,7.899-12.826,11.929
				c0.684-2.006,1.528-3.953,2.443-5.863c-4.128,2.896-8.238,5.832-12.154,9.008c-4.258,3.521-8.13,7.483-11.818,11.584
				c-2.249,2.603-4.516,5.2-6.467,8.038c-0.444,0.592-0.829,1.276-1.491,1.661c-0.564,0.083-0.949-0.484-0.835-0.992
				c0.16-3.21,0.293-6.433,0.884-9.6c1.189-6.485,2.569-12.992,5.173-19.076c2.526-6.31,6.257-12.034,10.145-17.573
				c1.728-2.415,3.454-4.849,5.398-7.095c4.131-2.406,8.435-4.566,12.998-6.026c4.563-1.389,9.252-2.338,13.959-3.099
				C127.49,279.834,132.138,279.563,136.763,279.104z"/>
			<path style="fill:#282828;" d="M350.27,281.393c-0.438-1.377,0.752-2.837,2.132-2.954c2.184-0.234,4.356,0.259,6.531,0.391
				c3.996,0.333,7.992,0.684,11.987,1.066c5.724,0.539,11.384,1.654,16.948,3.09c5.752,1.525,11.137,4.19,16.202,7.277
				c3.799,4.661,7.237,9.615,10.419,14.717c4.495,7.191,7.545,15.241,9.196,23.55c1.199,5.17,1.916,10.444,1.972,15.755
				c-0.283,0.12-0.558,0.24-0.826,0.37c-1.063-0.742-1.608-1.969-2.4-2.951c-3.515-4.652-7.437-8.99-11.578-13.091
				c-5.407-5.444-11.713-9.865-17.961-14.276c1.013,2.098,1.895,4.261,2.674,6.457c-1.038-1.211-2.274-2.23-3.395-3.358
				c-3.654-3.441-7.262-6.932-11.069-10.204c-9.301-8.004-18.959-15.577-28.584-23.18
				C351.617,283.322,350.578,282.573,350.27,281.393z"/>
			<path style="fill:#282828;" d="M157.155,308.285c1.279-0.638,3.09-0.314,3.752,1.051c0.755,1.343-0.117,2.816-0.826,3.971
				c-7.32,11.661-14.162,23.655-19.622,36.311c-5.271-3.836-9.96-8.377-14.686-12.844c1.26-1.658,2.536-3.306,3.882-4.892
				c6.611-7.671,13.944-14.843,22.465-20.383C153.797,310.43,155.353,309.145,157.155,308.285z"/>
			<path style="fill:#282828;" d="M337.91,310.966c-0.302-1.368,0.783-2.844,2.178-2.964c1.402-0.2,2.619,0.662,3.737,1.383
				c2.859,1.966,5.798,3.823,8.54,5.958c8.176,6.387,15.324,14.021,21.618,22.247c-4.769,4.566-9.569,9.138-14.939,13.001
				c-1.146-2.65-2.344-5.274-3.595-7.872c-4.553-9.711-10-18.962-15.626-28.079C339.115,313.458,338.224,312.334,337.91,310.966z"/>
		</g>
		<g>
			<g>
				<path style="fill:#FF8344;" d="M118.296,169.849c0.41-0.601,0.85-1.18,1.3-1.747c1.886,0.465,3.833,0.145,5.746,0.323
					c1.953,0.176,3.916,0.052,5.872,0.157c9.905,0.829,19.683,3.05,29.015,6.448c4.504,1.889,9.119,3.58,13.331,6.091
					c10.518,5.65,20.136,12.899,28.747,21.15c2.123,2.305,4.285,4.587,6.171,7.098c1.99,2.653,3.86,5.398,5.727,8.143
					c2.797,4.449,4.775,9.344,6.725,14.209c2.255,5.995,3.956,12.225,4.788,18.587c0.57,4.082,1.18,8.164,1.408,12.283
					c0.453,4.812,0.086,9.649,0.169,14.471c0.059,2.363-0.262,4.714-0.228,7.077c-0.083,2.597-0.478,5.173-0.853,7.742
					c-0.136,0.773-0.037,1.562,0.105,2.335c-1.035,0.807-1.793,1.907-2.828,2.708c-1.198,0.163-2.418,0.135-3.598,0.419
					c-3.115,0.564-6.042,1.802-8.916,3.084c-8.753,3.984-17.012,9.156-24.12,15.654c-3.796,3.589-7.662,7.135-10.958,11.202
					c-3.512,4.338-6.602,9.039-9.008,14.083c-0.961,2.101-1.79,4.261-2.606,6.42c-1.205,3.229-1.87,6.63-2.305,10.04
					c-0.191,1.654-0.28,3.337-0.037,4.994c-7.588-3.654-14.646-8.306-21.483-13.201c5.459-12.656,12.302-24.65,19.622-36.311
					c0.709-1.155,1.581-2.628,0.826-3.971c-0.662-1.365-2.474-1.688-3.752-1.051c-1.802,0.86-3.358,2.144-5.034,3.213
					c-8.522,5.539-15.854,12.711-22.465,20.383c-1.346,1.587-2.622,3.235-3.882,4.892c-3.019-2.995-6.097-5.949-8.867-9.175
					c-1.691,1.312-3.398,2.637-4.766,4.301c-3.885,4.664-6.818,10.019-9.575,15.401c-0.78,1.386-1.491,2.813-2.332,4.165
					c-0.228,0.45-0.792,0.299-1.195,0.391c-0.416-1.177-0.163-2.428-0.169-3.638c0.253-4.236,0.521-8.482,1.343-12.65
					c0.853-5.481,2.449-10.826,4.446-15.987c4.227-4.03,8.42-8.096,12.826-11.929c9.6-8.312,19.616-16.125,29.57-24.006
					c1.054-0.81,2.203-2.095,1.713-3.525c-0.388-1.294-1.827-1.855-3.075-1.75c-2.988,0.08-5.943,0.598-8.928,0.73
					c-4.624,0.459-9.273,0.73-13.87,1.445c-4.708,0.761-9.397,1.71-13.959,3.099c-4.563,1.46-8.867,3.62-12.998,6.026
					c-4.717,1.494-9.048,4.014-13.158,6.732c-2.936,1.91-5.459,4.369-7.785,6.972c-2.56,2.705-4.877,5.622-7.163,8.555
					c-0.416,0.758-1.821,0.622-1.753-0.357c0.28-2.344,1.279-4.532,2.113-6.719c2.326-5.663,4.905-11.245,8.158-16.439
					c2.958-4.729,6.383-9.156,10.133-13.281c3.46-3.826,6.963-7.65,10.962-10.925c0.425-0.314,0.139-0.906,0.16-1.328
					c-0.342-2.369-0.397-4.76-0.644-7.138c9.92-5.77,20.848-9.52,31.825-12.712c3.053-0.943,6.125-1.818,9.233-2.56
					c1.158-0.25,2.514-0.896,2.619-2.24c0.219-1.519-1.195-2.508-2.44-2.967c-2.881-1.118-5.807-2.126-8.771-2.995
					c-7.187-2.197-14.714-3.176-22.216-3.176c-3.081-0.025-6.162-0.009-9.239,0.102c1.46-9.212,3.035-18.469,6.159-27.29
					c3.386-9.594,8.016-18.67,12.092-27.974C116.876,172.554,117.443,171.121,118.296,169.849z M187.587,235.048
					c-5.204,1.242-9.742,4.43-13.377,8.272c-4.461,4.757-7.628,10.635-9.588,16.834c-0.739,2.628-1.537,5.293-1.556,8.047
					c-0.17,3.253-0.062,6.519,0.246,9.763c0.173,2.089,1.004,4.036,1.728,5.983c0.154,0.043,0.462,0.129,0.616,0.173
					c-0.003-1.014-0.025-2.024,0.009-3.031l0.373,0.219c0.745,4.747,2.483,9.4,5.376,13.266c2.683,3.601,6.454,6.51,10.863,7.597
					c0.85,0.521,1.879,0.551,2.85,0.641c2.619,0.182,5.33-0.028,7.776-1.032l-0.314-0.096c3.928-1.06,7.172-3.675,10.139-6.353
					c5.604-3.605,9.554-9.483,11.427-15.82c1.962-6.448,1.953-13.312,1.186-19.945c-0.829-4.03-1.648-8.161-3.691-11.778
					c-1.174-2.653-2.924-5-4.914-7.089c-3.685-3.937-9.095-6.377-14.523-6.082C190.665,234.641,189.081,234.558,187.587,235.048z"/>
			</g>
			<g>
				<path style="fill:#FF8344;" d="M380.601,168.758c0.336,0.542,0.678,1.088,1.029,1.633c1.879,3.05,3.072,6.461,4.606,9.689
					c2.853,6.069,5.644,12.169,8.124,18.402c4.024,9.908,5.983,20.481,7.6,31.002c-0.049-0.062-0.148-0.185-0.197-0.247
					c-6.99-0.231-14.027-0.363-20.974,0.601c-6.759,0.887-13.306,2.921-19.668,5.324c-1.217,0.465-2.705,1.254-2.702,2.754
					c-0.096,1.356,1.168,2.24,2.36,2.483c5.499,1.346,10.912,3.028,16.316,4.714c8.987,2.84,17.841,6.325,25.938,11.199
					c-0.24,2.28-0.284,4.581-0.607,6.855c-0.019,0.604-0.379,1.42,0.29,1.815c3.725,3.028,6.975,6.581,10.204,10.114
					c3.968,4.322,7.613,8.956,10.724,13.935c3.093,4.948,5.589,10.244,7.819,15.629c0.952,2.36,1.987,4.729,2.437,7.249
					c0.234,0.715-0.545,1.392-1.22,1.072c-0.567-0.36-0.94-0.937-1.346-1.445c-1.571-2.11-3.244-4.144-5.016-6.088
					c-2.384-2.631-4.757-5.324-7.659-7.403c-4.492-3.204-9.344-6.004-14.588-7.782c-5.065-3.087-10.45-5.752-16.202-7.277
					c-5.564-1.436-11.223-2.551-16.948-3.09c-3.996-0.382-7.992-0.733-11.987-1.066c-2.175-0.133-4.347-0.625-6.531-0.391
					c-1.38,0.117-2.569,1.577-2.132,2.954c0.308,1.18,1.346,1.929,2.249,2.659c9.625,7.603,19.283,15.176,28.584,23.18
					c3.808,3.272,7.416,6.762,11.069,10.204c1.122,1.128,2.357,2.147,3.395,3.358c3.595,9.221,5.265,19.098,5.586,28.963
					c0.031,0.906,0.12,1.836-0.194,2.714c-0.629,0.031-1.245-0.133-1.46-0.786c-3.74-6.719-6.972-13.833-12.083-19.665
					c-1.282-1.445-2.816-2.631-4.344-3.802c-1.457,1.867-3.232,3.451-4.846,5.176c-1.386,1.426-2.785,2.844-4.242,4.196
					c-6.294-8.226-13.442-15.86-21.618-22.247c-2.742-2.135-5.681-3.993-8.54-5.958c-1.118-0.721-2.335-1.583-3.737-1.383
					c-1.396,0.12-2.48,1.596-2.178,2.964c0.314,1.368,1.205,2.492,1.913,3.675c5.626,9.116,11.073,18.368,15.626,28.079
					c1.251,2.597,2.449,5.222,3.595,7.872c-6.497,4.624-13.204,9.005-20.361,12.551c0.385-3.266-0.219-6.528-0.835-9.723
					c-0.742-3.7-2.206-7.194-3.648-10.663c-4.101-9.125-10.41-17.129-17.786-23.839c-7.258-7.258-15.913-13.013-25.149-17.441
					c-4.436-2.046-9.051-4.116-14.033-4.15c-0.97-1.34-2.237-2.422-3.58-3.367c0.333-1.362-0.092-2.723-0.237-4.073
					c-0.206-1.916-0.551-3.826-0.508-5.758c0.025-2.058-0.262-4.104-0.216-6.159c0.04-3.697-0.077-7.394-0.043-11.091
					c0.203-6.513,1.174-12.97,2.15-19.406c1.325-7.252,3.672-14.295,6.698-21.011c1.001-2.16,1.91-4.369,3.149-6.408
					c1.014-1.904,2.338-3.611,3.524-5.407c1.873-2.714,3.793-5.407,5.983-7.881c1.873-2.024,3.611-4.193,5.758-5.943
					c8.004-7.434,16.908-13.91,26.526-19.092c4.421-2.619,9.258-4.4,13.996-6.344c9.239-3.259,18.882-5.444,28.658-6.214
					c1.848-0.065,3.706,0.028,5.558-0.12C376.63,168.872,378.639,169.165,380.601,168.758z M302.268,234.94
					c-5.635,1.463-10.096,5.752-12.961,10.681c-1.054,2.101-2.286,4.147-2.884,6.442c-0.511,1.855-1.146,3.694-1.383,5.607
					l-0.157,0.265c-1.3,8.746-1.029,18.075,2.859,26.184c2.258,4.307,5.373,8.297,9.535,10.903c3.17,2.902,6.753,5.653,11.02,6.636
					c0.407,0.447,1.029,0.499,1.59,0.604c1.953,0.345,3.959,0.351,5.934,0.142c0.447-0.04,0.878-0.197,1.266-0.428
					c2.227-0.351,4.288-1.405,6.186-2.588c4.513-3.084,7.767-7.871,9.35-13.069c1.128-1.497,0.85-3.595,1.704-5.237
					c0,0.903,0.018,1.811,0.012,2.72c0.157-0.04,0.471-0.12,0.628-0.16c0.752-1.993,1.584-4.002,1.756-6.149
					c0.305-3.937,0.471-7.909,0.043-11.843c-1.343-7.871-4.757-15.426-9.942-21.516c-4.153-4.76-9.637-8.669-15.968-9.729
					C307.992,234.303,305.041,234.041,302.268,234.94z"/>
			</g>
			<path style="fill:#FF8344;" d="M165.667,281.014c-0.419-3.01-0.61-6.103-0.132-9.116c0.114,1.926-0.037,3.857,0.071,5.786
				C165.652,278.793,166.028,279.914,165.667,281.014z"/>
		</g>
		<g>
			<path style="fill:#4B4B4B;" d="M304.172,260.884c2.779-0.662,5.764-0.253,8.321,0.998c4.396,2.357,7.542,6.852,8.278,11.784
				c1.014,6.242-1.081,13.09-5.881,17.317c-2.28,2.058-5.271,3.435-8.374,3.438c-2.48,0.071-4.929-0.73-7.021-2.024
				c-3.928-2.714-6.334-7.271-6.904-11.96c-0.157-2.782-0.188-5.632,0.684-8.312C294.609,266.845,298.814,262.203,304.172,260.884z"
				/>
			<path style="fill:#4B4B4B;" d="M190.486,261.164c2.616-0.613,5.404-0.234,7.825,0.906c2.988,1.309,5.271,3.82,6.957,6.553
				c1.38,3.028,2.471,6.319,2.271,9.689c0.154,3.303-0.893,6.565-2.471,9.434c-0.798,1.494-1.962,2.748-3.201,3.888
				c-3.281,2.961-8.251,3.94-12.382,2.332c-4.538-1.728-7.902-5.795-9.412-10.336c-1.864-5.333-1.433-11.581,1.759-16.325
				C183.933,264.399,186.872,261.845,190.486,261.164z"/>
		</g>
		<g>
			<path style="fill:#FFECD9;" d="M210.977,300.426c2.874-1.282,5.801-2.52,8.916-3.084c1.118-0.099,2.246-0.092,3.37-0.077
				c-0.699,1.79-1.553,3.768-0.859,5.697c1.02,1.42,2.569,2.483,4.292,2.847c2.255,0.499,4.544,0.813,6.83,1.146
				c1.245,0.176,2.539,0.521,3.429,1.473c2.979,2.582,3.056,7.08,6.005,9.695c1.596,1.171,3.66,1.365,5.582,1.454
				c0.237,6.008-0.653,12.08-2.887,17.678c-2.606,6.602-6.873,12.875-13.155,16.448c-3.543,2.184-7.89,2.582-11.938,2.03
				c-4.088-0.739-8.047-2.782-10.771-5.955c-2.696-3.303-4.218-7.342-5.66-11.3c-0.521-1.319-0.573-2.924-1.722-3.897
				c-0.736,2.492,0.311,4.991,1.054,7.348c1.488,4.098,3.392,8.226,6.618,11.254c5.361,4.664,13.035,6.689,19.939,4.778
				c4.384-1.331,8.383-3.897,11.458-7.289c4.097-4.279,6.46-9.843,8.18-15.429c1.42,4.526,2.933,9.11,5.666,13.044
				c3.321,4.951,8.192,8.947,13.907,10.777c5.644,1.685,11.91,0.761,16.957-2.227c3.774-1.99,6.473-5.512,8.232-9.326
				c1.242-2.52,2.175-5.185,2.859-7.905c0.265-1.245,0.511-2.65-0.166-3.805c-0.97,1.279-1.149,2.914-1.713,4.375
				c-1.488,3.925-2.988,7.973-5.789,11.18c-1.944,2.194-4.557,3.666-7.243,4.754c-2.988,1.174-6.276,1.223-9.427,0.872
				c-2.495-0.314-4.837-1.368-6.907-2.76c-3.983-2.533-7.083-6.257-9.418-10.315c-2.985-5.247-4.822-11.146-5.339-17.16
				c-0.169-2.338-0.111-4.686-0.089-7.024c2.317-0.003,4.849-0.151,6.768-1.599c1.981-1.614,2.696-4.162,3.836-6.343
				c0.909-1.559,2.163-3.072,3.876-3.765c3.17-0.856,6.559-0.468,9.714-1.426c1.43-0.536,2.834-1.476,3.558-2.853
				c0.77-2.28-0.462-4.56-1.704-6.408c4.982,0.034,9.597,2.104,14.033,4.15c9.236,4.427,17.89,10.182,25.149,17.441
				c7.375,6.71,13.685,14.714,17.786,23.839c1.442,3.469,2.905,6.963,3.648,10.663c0.616,3.195,1.22,6.457,0.835,9.723l-0.006,0.08
				c-1.537,0.967-2.773,2.323-4.245,3.38c-2.077,1.534-4.187,3.025-6.393,4.372c-2.874,1.959-6.282,2.844-9.492,4.082
				c-4.695,1.821-9.221,4.06-13.99,5.699c-7.154,2.656-14.486,4.803-21.855,6.769c-5.256,1.436-10.687,1.962-16.057,2.773
				c-0.314,2.88-0.419,5.832,0.262,8.676c0.24,1.377,0.739,2.708,0.887,4.107c0.099,0.632-0.434,1.121-1.035,1.143
				c-0.672,0.142-1.014-0.582-1.399-0.983c-2.767-3.66-4.741-7.856-6.362-12.126c-0.36-0.015-0.718-0.025-1.069-0.025
				c-0.761,4.261-0.696,8.685,0.216,12.918c0.139,0.841,0.481,1.747,0.139,2.585c-0.438,0.906-1.821,0.641-2.372-0.037
				c-4.23-4.079-7.656-9.036-9.871-14.483c-0.527-1.066-1.966-0.49-2.902-0.625c-1.161,2.687-1.112,5.681-1.078,8.552
				c0.071,0.813-0.823,1.43-1.568,1.377c-0.786-0.108-1.312-0.752-1.833-1.279c-2.289-2.489-4.553-5.071-6.057-8.13
				c-0.385-0.653-0.573-1.685-1.531-1.633c-14.97-1.818-29.28-6.855-43.353-12.055c-9.31-3.78-18.236-8.805-25.774-15.46
				c-0.243-1.658-0.154-3.34,0.037-4.994c0.434-3.41,1.1-6.812,2.305-10.04c0.816-2.16,1.645-4.319,2.606-6.42
				c2.406-5.043,5.496-9.745,9.008-14.083c3.297-4.067,7.163-7.613,10.958-11.202C193.965,309.583,202.224,304.41,210.977,300.426z"
				/>
		</g>
		<g>
			<path style="fill:#F0C59B;" d="M188.052,302.531c1.55-0.056,3.028-0.536,4.538-0.847l0.314,0.096
				c-2.446,1.004-5.157,1.214-7.776,1.032c-0.97-0.089-1.999-0.12-2.85-0.641C184.195,302.364,186.118,302.691,188.052,302.531z"/>
			<path style="fill:#F0C59B;" d="M248.541,319.577c0.878,0.043,1.759,0.108,2.643,0.145c-0.022,2.338-0.08,4.686,0.089,7.024
				c0.518,6.014,2.354,11.913,5.339,17.16c2.335,4.057,5.435,7.782,9.418,10.315c2.07,1.392,4.412,2.446,6.907,2.76
				c3.152,0.351,6.439,0.302,9.427-0.872c2.686-1.087,5.299-2.56,7.243-4.754c2.801-3.207,4.301-7.255,5.789-11.18
				c0.564-1.46,0.743-3.096,1.713-4.375c0.678,1.155,0.431,2.56,0.166,3.805c-0.684,2.72-1.617,5.385-2.859,7.905
				c-1.759,3.814-4.458,7.336-8.232,9.326c-5.046,2.988-11.313,3.913-16.957,2.227c-5.715-1.83-10.586-5.826-13.907-10.777
				c-2.733-3.934-4.245-8.518-5.666-13.044c-1.719,5.586-4.082,11.15-8.18,15.429c-3.075,3.392-7.074,5.958-11.458,7.289
				c-6.904,1.91-14.578-0.114-19.939-4.778c-3.226-3.028-5.13-7.157-6.618-11.254c-0.742-2.357-1.79-4.855-1.054-7.348
				c1.149,0.973,1.202,2.579,1.722,3.897c1.442,3.959,2.964,7.998,5.66,11.3c2.723,3.173,6.682,5.216,10.771,5.955
				c4.048,0.551,8.395,0.154,11.938-2.03c6.282-3.574,10.549-9.846,13.155-16.448C247.888,331.657,248.779,325.584,248.541,319.577z
				"/>
		</g>
	</g>
</g>
<g id="DESIGNED_BY_FREEPIK">
	<g>
		<g id="XMLID_319_">
			<g id="XMLID_338_">
				<path id="XMLID_346_" style="fill:#1D262D;" d="M260.104,465.465c-0.432,0.443-0.803,0.931-1.108,1.453l-0.465-0.241
					c-0.067-0.298-0.349-0.503-0.659-0.466c-0.331,0.039-0.568,0.339-0.529,0.67c0.039,0.331,0.339,0.568,0.67,0.529
					c0.065-0.008,0.127-0.026,0.183-0.052l0.452,0.234c-0.251,0.554-0.433,1.139-0.539,1.744l0.747,0.132
					c0.23-1.306,0.85-2.507,1.792-3.473L260.104,465.465z"/>
				<path id="XMLID_345_" style="fill:#1D262D;" d="M265.592,463.163c-0.171,0-0.341,0.006-0.51,0.017l-0.074-0.626
					c0.188-0.149,0.296-0.389,0.266-0.645c-0.046-0.393-0.402-0.674-0.795-0.628c-0.393,0.046-0.674,0.402-0.628,0.795
					c0.03,0.254,0.189,0.461,0.405,0.564l0.073,0.624c-0.714,0.116-1.403,0.332-2.06,0.646l0.327,0.684
					c0.934-0.447,1.942-0.673,2.995-0.673c0.496,0,0.993,0.053,1.475,0.158l0.161-0.741
					C266.692,463.222,266.142,463.163,265.592,463.163z"/>
				<path id="XMLID_344_" style="fill:#1D262D;" d="M272.194,465.711c0.331-0.04,0.566-0.341,0.526-0.672
					c-0.04-0.331-0.341-0.566-0.672-0.526c-0.309,0.038-0.535,0.304-0.53,0.609l-0.416,0.363c-0.418-0.43-0.89-0.813-1.408-1.139
					l-0.404,0.641c1.134,0.715,2.021,1.726,2.563,2.925l0.691-0.313c-0.251-0.554-0.568-1.072-0.942-1.545l0.402-0.351
					C272.065,465.716,272.129,465.719,272.194,465.711z"/>
				<path id="XMLID_343_" style="fill:#1D262D;" d="M265.044,473.372c-0.386,0.023-0.775,0.035-1.157,0.035
					c-0.88,0-1.733-0.061-2.478-0.179c-0.39-0.062-0.846-0.155-1.27-0.292c1.046,1.861,3.069,3.125,5.388,3.125
					c2.855,0,5.262-1.916,5.95-4.504c-0.682,0.449-1.505,0.825-2.459,1.123C267.839,473.047,266.464,473.286,265.044,473.372z"/>
				<path id="XMLID_339_" style="fill:#1D262D;" d="M265.592,464.68c-3.352,0-6.08,2.666-6.08,5.943
					c0,0.426,0.046,0.849,0.137,1.261c0.673,0.483,2.706,0.89,5.348,0.731c2.879-0.173,5.297-0.957,6.672-2.159
					c-0.005-0.195-0.021-0.39-0.045-0.582C271.244,466.913,268.65,464.68,265.592,464.68z M263.432,471.194
					c-1.02,0-1.85-0.83-1.85-1.85c0-1.02,0.83-1.85,1.85-1.85c1.02,0,1.85,0.83,1.85,1.85
					C265.282,470.365,264.452,471.194,263.432,471.194z M268.17,470.286c-0.75,0-1.36-0.61-1.36-1.36s0.61-1.361,1.36-1.361
					c0.75,0,1.361,0.61,1.361,1.361S268.92,470.286,268.17,470.286z"/>
			</g>
			<path id="XMLID_336_" style="fill:#1D262D;" d="M281.595,466.547c-0.295-0.116-0.805-0.309-1.382-0.237
				c-0.551,0.069-0.844,0.341-0.844,1.007v0.866h2.228v1.717h-2.228v5.455h-1.932v-5.455h-1.34v-1.717h1.34v-0.888
				c0-1.68,0.896-2.783,2.568-2.783c0.643,0,1.157,0.122,1.59,0.308L281.595,466.547z"/>
			<path id="XMLID_334_" style="fill:#1D262D;" d="M286.298,469.879c-0.177-0.03-0.358-0.046-0.526-0.046
				c-0.896,0-1.51,0.548-1.51,1.614v3.908h-1.932v-7.172h1.873v0.785c0.451-0.673,1.14-0.977,2.021-0.977
				c0.414,0,0.848,0.128,1.094,0.337L286.298,469.879z"/>
			<path id="XMLID_331_" style="fill:#1D262D;" d="M293.965,471.757c0,0.222-0.015,0.489-0.037,0.651h-5.085
				c0.207,1.036,0.933,1.488,1.843,1.488c0.622,0,1.295-0.252,1.813-0.688l1.132,1.243c-0.814,0.748-1.85,1.088-3.057,1.088
				c-2.198,0-3.723-1.495-3.723-3.753c0-2.258,1.48-3.797,3.627-3.797C292.544,467.99,293.958,469.522,293.965,471.757z
				 M288.851,471.091h3.175c-0.177-0.918-0.733-1.436-1.562-1.436C289.554,469.655,289.021,470.203,288.851,471.091z"/>
			<path id="XMLID_328_" style="fill:#1D262D;" d="M301.618,471.757c0,0.222-0.015,0.489-0.037,0.651h-5.085
				c0.207,1.036,0.933,1.488,1.843,1.488c0.622,0,1.295-0.252,1.813-0.688l1.132,1.243c-0.814,0.748-1.85,1.088-3.057,1.088
				c-2.198,0-3.723-1.495-3.723-3.753c0-2.258,1.48-3.797,3.627-3.797C300.197,467.99,301.611,469.522,301.618,471.757z
				 M296.504,471.091h3.175c-0.178-0.918-0.733-1.436-1.562-1.436C297.207,469.655,296.674,470.203,296.504,471.091z"/>
			<path id="XMLID_325_" style="fill:#1D262D;" d="M309.964,471.764c0,2.154-1.495,3.775-3.471,3.775
				c-0.962,0-1.643-0.378-2.109-0.933v3.708h-1.924v-10.133h1.887v0.792c0.466-0.585,1.155-0.984,2.139-0.984
				C308.469,467.99,309.964,469.61,309.964,471.764z M304.287,471.764c0,1.132,0.747,1.976,1.843,1.976
				c1.14,0,1.85-0.881,1.85-1.976c0-1.095-0.71-1.976-1.85-1.976C305.035,469.788,304.287,470.632,304.287,471.764z"/>
			<path id="XMLID_322_" style="fill:#1D262D;" d="M313.068,465.836c0,0.696-0.54,1.229-1.236,1.229
				c-0.696,0-1.229-0.533-1.229-1.229c0-0.696,0.533-1.243,1.229-1.243C312.527,464.592,313.068,465.14,313.068,465.836z
				 M312.809,475.354h-1.932v-7.172h1.932V475.354z"/>
			<path id="XMLID_320_" style="fill:#1D262D;" d="M316.032,470.736l2.701-2.554h2.368l-3.479,3.375l3.501,3.797h-2.376
				l-2.716-2.901v2.901H314.1v-10.658h1.932V470.736z"/>
		</g>
		<g>
			<path style="fill:#1D262D;" d="M184.412,475.289v-1.055c-0.527,0.718-1.391,1.23-2.387,1.23c-1.846,0-3.149-1.406-3.149-3.706
				c0-2.256,1.289-3.721,3.149-3.721c0.952,0,1.816,0.469,2.387,1.245v-3.765h1.099v9.77H184.412z M184.412,473.37v-3.208
				c-0.395-0.615-1.245-1.143-2.124-1.143c-1.421,0-2.27,1.172-2.27,2.739c0,1.567,0.85,2.724,2.27,2.724
				C183.168,474.483,184.017,473.986,184.412,473.37z"/>
			<path style="fill:#1D262D;" d="M186.932,471.744c0-2.051,1.465-3.706,3.486-3.706c2.139,0,3.398,1.67,3.398,3.794v0.279h-5.727
				c0.088,1.333,1.025,2.446,2.549,2.446c0.805,0,1.626-0.322,2.182-0.894l0.527,0.718c-0.703,0.703-1.655,1.084-2.812,1.084
				C188.44,475.465,186.932,473.956,186.932,471.744z M190.403,468.947c-1.509,0-2.256,1.274-2.314,2.358h4.643
				C192.718,470.25,192.015,468.947,190.403,468.947z"/>
			<path style="fill:#1D262D;" d="M194.607,474.351l0.571-0.791c0.469,0.542,1.362,1.011,2.329,1.011c1.084,0,1.67-0.513,1.67-1.216
				c0-1.714-4.38-0.659-4.38-3.281c0-1.098,0.952-2.036,2.636-2.036c1.201,0,2.051,0.454,2.622,1.026l-0.513,0.762
				c-0.424-0.513-1.201-0.894-2.109-0.894c-0.967,0-1.567,0.483-1.567,1.113c0,1.552,4.38,0.527,4.38,3.281
				c0,1.187-0.952,2.138-2.783,2.138C196.306,475.465,195.325,475.113,194.607,474.351z"/>
			<path style="fill:#1D262D;" d="M201.477,466.471c0-0.41,0.337-0.747,0.732-0.747c0.41,0,0.747,0.337,0.747,0.747
				c0,0.41-0.337,0.732-0.747,0.732C201.814,467.203,201.477,466.881,201.477,466.471z M201.667,475.289v-7.075h1.099v7.075H201.667
				z"/>
			<path style="fill:#1D262D;" d="M204.582,477.105l0.556-0.82c0.586,0.703,1.289,0.967,2.3,0.967c1.172,0,2.27-0.571,2.27-2.124
				v-1.011c-0.513,0.718-1.377,1.26-2.373,1.26c-1.845,0-3.149-1.377-3.149-3.662c0-2.27,1.289-3.677,3.149-3.677
				c0.952,0,1.802,0.469,2.373,1.245v-1.069h1.098v6.87c0,2.344-1.641,3.076-3.369,3.076
				C206.237,478.16,205.417,477.926,204.582,477.105z M209.709,473.253v-3.091c-0.381-0.615-1.23-1.143-2.109-1.143
				c-1.421,0-2.27,1.128-2.27,2.695c0,1.553,0.849,2.695,2.27,2.695C208.478,474.41,209.328,473.868,209.709,473.253z"/>
			<path style="fill:#1D262D;" d="M217.413,475.289v-4.629c0-1.245-0.63-1.641-1.582-1.641c-0.865,0-1.685,0.527-2.095,1.099v5.17
				h-1.099v-7.075h1.099v1.025c0.498-0.586,1.465-1.201,2.519-1.201c1.48,0,2.256,0.747,2.256,2.285v4.966H217.413z"/>
			<path style="fill:#1D262D;" d="M219.932,471.744c0-2.051,1.465-3.706,3.486-3.706c2.139,0,3.398,1.67,3.398,3.794v0.279h-5.727
				c0.088,1.333,1.025,2.446,2.549,2.446c0.806,0,1.626-0.322,2.183-0.894l0.527,0.718c-0.703,0.703-1.655,1.084-2.812,1.084
				C221.441,475.465,219.932,473.956,219.932,471.744z M223.404,468.947c-1.509,0-2.256,1.274-2.314,2.358h4.643
				C225.718,470.25,225.015,468.947,223.404,468.947z"/>
			<path style="fill:#1D262D;" d="M233.35,475.289v-1.055c-0.527,0.718-1.392,1.23-2.388,1.23c-1.846,0-3.149-1.406-3.149-3.706
				c0-2.256,1.289-3.721,3.149-3.721c0.952,0,1.817,0.469,2.388,1.245v-3.765h1.098v9.77H233.35z M233.35,473.37v-3.208
				c-0.396-0.615-1.245-1.143-2.124-1.143c-1.421,0-2.27,1.172-2.27,2.739c0,1.567,0.849,2.724,2.27,2.724
				C232.105,474.483,232.954,473.986,233.35,473.37z"/>
			<path style="fill:#1D262D;" d="M239.692,475.289v-9.77h1.098v3.765c0.572-0.776,1.421-1.245,2.388-1.245
				c1.845,0,3.149,1.465,3.149,3.721c0,2.299-1.304,3.706-3.149,3.706c-0.996,0-1.86-0.513-2.388-1.23v1.055H239.692z
				 M242.9,474.483c1.436,0,2.285-1.157,2.285-2.724c0-1.568-0.85-2.739-2.285-2.739c-0.864,0-1.728,0.527-2.109,1.143v3.208
				C241.171,473.986,242.036,474.483,242.9,474.483z"/>
			<path style="fill:#1D262D;" d="M247.528,477.061c0.161,0.073,0.425,0.117,0.601,0.117c0.483,0,0.805-0.161,1.055-0.747
				l0.469-1.069l-2.959-7.148h1.187l2.358,5.8l2.344-5.8h1.201l-3.545,8.51c-0.425,1.025-1.143,1.421-2.08,1.435
				c-0.234,0-0.601-0.044-0.806-0.103L247.528,477.061z"/>
		</g>
	</g>
</g>
</svg>
