<?xml version="1.0" encoding="utf-8"?>
<!-- Generator: Adobe Illustrator 27.5.0, SVG Export Plug-In . SVG Version: 6.00 Build 0)  -->
<svg version="1.1" xmlns="http://www.w3.org/2000/svg" xmlns:xlink="http://www.w3.org/1999/xlink" x="0px" y="0px"
	 viewBox="0 0 500 500" style="enable-background:new 0 0 500 500;" xml:space="preserve">
<g id="BACKGROUND">
</g>
<g id="OBJECTS">
	<ellipse style="opacity:0.1;" cx="260.943" cy="392.215" rx="168.333" ry="23.785"/>
	<g>
		<g>
			<path style="fill:#4A3833;" d="M181.398,384.493c0,0-25.287,10.453-31.385,3.673c-3.058-3.4,10.489-13.902,10.489-13.902
				S177.543,361.621,181.398,384.493z"/>
			<path style="fill:#703E2C;" d="M143.576,226.486c0,0,15.326,76.032,18.004,104.977c3.144,33.978-3.004,44.376-3.004,44.376
				s13.792-3.625,22.822,8.655c0,0,5.183-11.201,2.774-22.118c-2.409-10.918,6.547-12.253,2.103-24.095
				c-4.445-11.842-0.949-62.008,8.654-81.379L143.576,226.486z"/>
			<path style="fill:#734E32;" d="M151.674,292c1.621,1.767,0.072,4.196,0.944,6.171c0.455,1.031,1.164,2.002,1.684,3.013
				c0.428,0.831,0.349,1.587,0.345,2.491c-0.007,1.594,0.08,3.116-0.365,4.668c-0.304,1.061-1.64,1.887-0.513,2.949
				c0.47,0.443,1.644,0.963,1.593,1.644c-1.305,0.108-1.262,1.488-1.161,2.42c0.127,1.169,1.065,2.12,1.683,3.107
				c0.66,1.054,0.973,2,1.337,3.165c0.691,2.214,1.628,4.092,1.574,6.441c-0.021,0.975-0.045,1.95-0.072,2.925
				c-0.071,0.405-0.062,0.805,0.027,1.2c0.709,1.142,0.968-0.168,1.779,0.166c0.36,1.044-0.239,2.244,0.122,3.288
				c1.28,0.205,2.742-0.433,2.546,1.25c-0.106-0.357-0.002-0.572,0.167-0.887c0.289-0.111,0.449-0.298,0.481-0.559
				c0.129-0.346,0.212-0.702,0.249-1.068c1.104-2.359,2.122,1.211,2.397,1.943c0.428,1.137,0.792,2.077,1.525,3.058
				c0.278,0.372,0.355,0.529,0.4,0.957c0.037,0.35-0.09,0.723-0.042,1.072c0.113,0.818,0.156,0.607,0.764,0.922
				c0.65,0.337,0.675,0.294,1.212,1.064c0.248,0.355,0.675,1.235,1.038,1.454c0.875,0.527,1.254-0.898,1.935-1.379
				c0.412-0.291,0.889-0.323,1.06-0.766c0.195-0.504-0.296-1.255-0.079-1.75c0.371-0.85,1.994-0.705,2.852-0.689
				c0.8,1.445,0.347,5.082,2.238,5.433c0.709,0.131,0.88-0.072,1.569,0.496c0.553,0.456,0.977,1.129,1.235,1.748
				c-0.38-1.964,0.106-3.929,0.516-5.832c0.249-1.156,0.383-1.219,0.939-2.094c0.237-0.373,0.127-1.216,0.788-1.394
				c0.816-0.219,2.249,1.972,2.526,2.525c0.214,0.429-0.217,0.787,0.362,1.13c1.953,1.157,1.143-3.715,1.147-4.148
				c0.02-2.135-0.381-4.229-0.358-6.381c0.023-2.103-0.99-4.142-0.774-6.24c0.1-0.968,0.673-3.086,1.77-3.469
				c1.154-0.403,3.241-0.065,4.429-0.022c-1.53-0.454-0.364-2.202-0.676-3.654c-0.376-1.752-1.743-0.402-1.1-1.601
				c0.035-0.289,0.069-0.577,0.102-0.866c0.2-0.336,0.506-0.543,0.919-0.621c0.632-0.953-0.315-2.474,0.193-3.543
				c0.408-0.858,1.171-1.104,1.467-2.104c0.13-0.44,0.284-0.803,0.359-1.247c0.286-1.697-0.014-3.58-0.014-5.308
				c0-1.971-0.014-3.942-0.004-5.913c0.013-2.478,0.438-4.936-0.864-7.221c-0.544-0.955-2.003-2.936-3.268-3.263
				c-0.533-0.138-1.473-0.081-2.013-0.054c-1.483,0.075-2.615,0.933-4.014,1.075c-0.77,0.078-1.706-0.033-2.475-0.033L151.674,292z"
				/>
		</g>
		<path style="fill:#4A3833;" d="M231.076,392.215c0,0-25.006,11.108-31.279,4.489c-3.146-3.319,10.123-14.17,10.123-14.17
			S226.626,369.451,231.076,392.215z"/>
		<path style="fill:#8A4D36;" d="M189.152,235.247c0,0,17.3,75.607,20.731,104.472c4.028,33.885-1.848,44.439-1.848,44.439
			s13.693-3.983,23.04,8.058c0,0,4.89-11.332,2.197-22.183c-2.692-10.851,6.226-12.419,1.475-24.142
			c-4.751-11.723-2.563-61.962,6.532-81.577L189.152,235.247z"/>
		<g>
			<path style="fill:#4A3833;" d="M366.523,382.117c0,0-25.659,9.503-31.5,2.5c-2.929-3.512,11-13.501,11-13.501
				S363.523,359.117,366.523,382.117z"/>
			<path style="fill:#703E2C;" d="M372.744,264.829c-1.667,0.447-3.334,0.891-4.998,1.348c-10.854,2.98-21.686,6.036-32.511,9.117
				c-7.812,2.223-16.309,3.882-24.115,6.736c12.708,32.174,47.675,29.147,50.705,43.973c4.698,22.988-15.802,45.114-15.802,45.114
				c11.5-7.499,18.063,13.517,20.5,11.001c1.433-1.479,1.13-4.009,3.558-9.3c0.5-1.089,5.566-4.627,6.084-5.823
				c2.68-6.191,0.08-13.569,0.621-21.288c0.589-8.411,4.231-17.161,5.25-23.589c3.013-19-0.013-18-9.013-37
				C370.062,278.868,370.778,272.222,372.744,264.829z"/>
		</g>
		<g>
			<path style="fill:#4A3833;" d="M411.943,390.802c0,0-25.659,9.503-31.5,2.5c-2.929-3.512,11-13.501,11-13.501
				S408.943,367.802,411.943,390.802z"/>
			<path style="fill:#8A4D36;" d="M405.516,177.122c0,0,31.735,12.369,33.455,38.944c1.719,26.575-5.732,54.087,0,72.428h-5.732
				c0,0-5.31-31.524-2.655-40.695c2.655-9.171,6.221-54.027-21.068-57.104L405.516,177.122z"/>
			<path style="fill:#8A4D36;" d="M427.456,330.803c3.013-19-0.013-18-9.013-37s15.899-48.992,7-85.379
				c-10.931-44.694-46.029-42.256-97.591-44c-6.786-0.23-12.76-1.616-18.277-3.777c-0.714,0.062-1.319,0.202-1.683,0.464
				c-1.26,0.908-0.398,2.761-0.656,4.001c-2.025,0.632-6.679-1.39-7.536,1.062c-0.372,1.064,1.122,2.096,1.469,2.89
				c0.452,1.032,0.33,1.702,0.432,2.88c0.258,2.972,2.073,4.043,3.799,6.1c1.086,1.295,1.546,3.801,1.228,5.469
				c-1.644,0.371-3.536-0.513-5.043,0.297c-0.476,1.563,0.396,2.072,1.26,3.093c1.676,1.981,2.195,4.96,3.029,7.345
				c0.755,2.157,1.005,4.351,1.679,6.487c0.327,1.037,1.945,3.887,0.867,4.895c-0.557,0.521-1.628-0.324-2.292,0.272
				c-0.914,0.819-0.987,4.057-1.163,4.914c-0.702,3.415-3.18,5.863-2.603,9.385c-0.07-0.424,0.729,2.646,0.606,2.803
				c-0.531,0.676-0.671,0.067-1.221,0.432c-0.901,0.599-1.364,1.73-2.176,2.613c-1.135,1.233-1.752,2.062-1.765,3.701
				c-0.015,1.91-0.36,3.184-0.952,5.015c-0.528,1.632-0.516,1.135-1.555,2.286c-1.167,1.293-1.568,3.5-2.201,5.057
				c-0.643,1.582-0.805,1.362-2.32,1.639c-3.081,0.564-5.249,2.856-7.642,4.54c-0.124,0.087-0.229,0.19-0.349,0.28
				c0.451,1.781,0.916,3.569,1.022,5.452c0.074,1.326,0.132,1.995,0.536,3.244c1.014,3.136,1.383,5.202,1.387,8.613
				c0.002,1.811,0.36,3.268-0.923,4.59c-0.336,0.346-2.489,1.61-2.948,1.856c-1.049,0.562-1.525-0.132-2.025,0.989
				c-0.723,1.619,1.724,3.087,2.554,3.84c1.921,1.74,1.659,3.338,0.478,4.692c17.652-1.517,28.717,5.912,42.811,7.432
				c19.449,2.098,28.378-14.16,28.378-14.16c9.708,40.675,49.931,43.626,53.19,59.576c4.698,22.988-15.802,45.114-15.802,45.114
				c11.5-7.499,18.063,13.517,20.5,11.001c1.433-1.479,1.131-4.009,3.558-9.3c0.5-1.089,5.566-4.627,6.084-5.823
				c2.68-6.191,0.08-13.569,0.621-21.288C422.795,345.981,426.436,337.23,427.456,330.803z"/>
			<g style="opacity:0.1;">
				<path d="M332.153,284.434c-2.018,0.01-4.035,0.012-6.053,0.01c-1.062-0.001-3.831,0.385-5.04,0.062
					c-1.668-0.446-2.524-1.848-4.356-1.941c-1.937-0.098-3.258,0.077-5.19-0.759c-1.785-0.773-1.714-1.104-3.48-1.137
					c-1.552-0.029-3.4,0.34-4.919-0.037c-0.529-2.13-1.012-3.305-2.876-4.698c-1.851-1.384-3.266-0.493-5.269-0.914
					c-0.618-2.592-0.084-5.861-0.084-8.568c0-2.554,0.004-5.109,0-7.664c-0.001-0.952-0.184-2.064,0.074-2.977
					c1.689-0.301,1.863-0.217,1.811-1.979c-0.028-0.936-0.005-1.873-0.011-2.81c-0.008-1.18-0.372-2.602,0.326-3.627
					c0.983-1.445,3.113-1.554,4.635-1.8c0.257-1.504-0.815-3.148-0.614-4.832c0.208-1.742,1.574-2.876,2.206-4.704
					c0.917-2.652,2.091-5.298,4.672-6.799c0.718-0.418,2.654-0.025,3.067-0.472c0.397-0.43-0.168-2.38-0.221-2.769
					c-0.445-3.253-0.207-6.538-0.477-9.801c-0.172-2.071-0.525-4.011-0.499-6.086c0.043-3.397,0.417-11.242,5.007-11.356
					c0.152-0.779-1.526-2.343-1.987-3.061c-0.33-0.553-0.66-1.106-0.99-1.659c-0.484-0.447-1-0.85-1.548-1.212
					c-0.733-1.09-0.457-2.437-0.455-3.861c0.002-1.669-0.381-2.725,0.94-3.854c1.545-1.32,4.606-2.981,6.746-2.425
					c0.27-1.827-4.623-4.78-5.448-6.399c-0.884-1.734-0.356-4.343-0.361-6.271c-0.002-0.837-0.202-2.49,0.05-3.46
					c0.134-0.517,0.591-0.891,0.649-1.442c0.159-1.501-2.414-2.706-1.877-4.104c-0.329-0.122-0.651-0.256-0.977-0.383
					c-0.727,0.06-1.345,0.2-1.714,0.466c-1.26,0.908-0.398,2.761-0.656,4.001c-2.025,0.632-6.679-1.39-7.536,1.062
					c-0.372,1.064,1.122,2.096,1.469,2.89c0.452,1.032,0.33,1.702,0.432,2.88c0.258,2.972,2.073,4.043,3.799,6.1
					c1.086,1.295,1.546,3.801,1.228,5.469c-1.644,0.371-3.536-0.513-5.043,0.297c-0.476,1.563,0.396,2.072,1.26,3.093
					c1.676,1.981,2.195,4.96,3.029,7.345c0.755,2.157,1.005,4.351,1.679,6.487c0.327,1.037,1.945,3.887,0.867,4.895
					c-0.557,0.521-1.628-0.324-2.292,0.272c-0.914,0.819-0.987,4.057-1.163,4.914c-0.702,3.415-3.18,5.863-2.603,9.385
					c-0.07-0.424,0.729,2.646,0.606,2.803c-0.531,0.676-0.671,0.067-1.221,0.432c-0.901,0.599-1.364,1.73-2.176,2.613
					c-1.135,1.233-1.752,2.062-1.765,3.701c-0.015,1.91-0.36,3.184-0.952,5.015c-0.528,1.632-0.516,1.135-1.555,2.286
					c-1.167,1.293-1.568,3.5-2.201,5.057c-0.643,1.582-0.805,1.362-2.32,1.639c-3.081,0.564-5.249,2.856-7.642,4.54
					c-0.124,0.087-0.229,0.19-0.349,0.28c0.451,1.781,0.916,3.569,1.022,5.452c0.074,1.326,0.132,1.995,0.536,3.244
					c1.014,3.136,1.383,5.202,1.387,8.613c0.002,1.811,0.36,3.268-0.923,4.59c-0.336,0.346-2.489,1.61-2.948,1.856
					c-1.049,0.562-1.525-0.132-2.025,0.989c-0.723,1.619,1.724,3.087,2.554,3.84c1.921,1.74,1.659,3.338,0.478,4.692
					c17.653-1.517,28.717,5.912,42.811,7.432c5.515,0.595,10.182-0.288,14.041-1.856
					C337.39,285.786,334.671,284.422,332.153,284.434z"/>
				<path d="M315.871,162.693c-1.07-0.279-2.121-0.586-3.154-0.922c0.545,0.389,1.095,0.781,1.806,0.9
					C314.93,162.74,315.398,162.725,315.871,162.693z"/>
			</g>
			<path style="fill:#94533A;" d="M334.91,170.703c-4.33-0.125-7.363,4.318-5.592,8.272c14.31,31.956,46.386,54.22,83.666,54.22
				c0.215,0,0.429-0.001,0.643-0.002c3.268-0.024,5.924-2.733,5.832-6c-0.129-4.549-0.696-9.222-1.867-14.01
				C407.845,173.329,378.363,171.955,334.91,170.703z"/>
			<path style="fill:#703E2C;" d="M429.789,284.985c0.793-4.209,5.774-6.184,9.241-3.67c3.527,2.558,6.188,7.07,5.39,12.498
				c-1.252,8.517-4.258,20.467-1.252,25.765C443.167,319.578,427.215,298.645,429.789,284.985z"/>
		</g>
		<g>
			<path style="fill:#9E6D45;" d="M312.844,157.677c-3.862-3.719-7.712-7.451-11.548-11.195c-2.008-2.087-4.114-4.076-6.317-5.965
				c-0.804-0.401-1.373-0.991-1.708-1.769c-0.025-2.251,2.633-0.553,3.698-1.286c-4.026-4.249-8.343-8.247-12.544-12.332
				c-1.269-1.233-5.303-3.602-5.294-5.577c0.215-0.425,0.519-0.534,0.91-0.327c-1.85-1.222-8.831-4.454-7.34-7.361
				c1.402-0.373,2.976,0.189,4.404-0.003c-3.633-1.904-7.369-3.518-11.171-5.063c-1.212-0.493-3.939-1.289-5.073-2.441
				c0.587,0.982-1.92-1.09-2.053-1.208c-1.014-0.901-1.719-2.021-2.576-3.051c-0.501-0.602-1.228-1.757-1.941-2.15
				c-1.048-0.578-2.964-0.44-4.06-0.656c-1.841-0.362-2.724-1.939-4.587-2.478c-1.529-0.442-2.558-0.174-3.475-1.957
				c-0.567-1.102-0.268-2.233-1.092-3.215c-1.35-1.61-3.242-0.888-4.974-1.432c-1.7-0.534-3.069-1.684-4.678-2.381
				c-1.915-0.83-4.009-0.988-6.078-1.034c-1.257-0.028-4.342,0.586-5.569-0.05c-1.349-0.699-1.86-2.674-2.955-3.61
				c-3.199,0.972-6.093,2.439-9.587,1.983c-2.182-0.285-3.823-1.573-5.86-2.157c-1.181-0.339-2.404-0.584-3.642-0.444
				c-1.392,0.157-1.413,0.547-2.61,1.266c-0.704,0.448-1.473,0.659-2.308,0.633c-0.347-0.22-0.726-0.32-1.137-0.301
				c-1.373,0.359-2.262,1.676-3.721,2.018c-1.108,0.26-2.432,0.109-3.568,0.078c-2.152-0.058-2.448,0.25-4.507,1.227
				c-1.356,0.7-2.79,1.108-4.301,1.223c-0.623,0.298-1.168,0.706-1.636,1.223c-0.945,0.631-3.865,2.028-5.193,1.168
				c-0.864-0.559-0.326-1.905-1.417-2.39c-2.132-0.947-3.409,1.617-4.877,2.366c-0.435,0.003-0.835,0.122-1.199,0.356
				c-0.371,0.504-0.844,0.89-1.418,1.158c-1.122,0.553-2.212,0.14-3.319,0.516c-1.164,0.396-1.461,1.088-2.847,1.134
				c-0.705,0.023-1.344,0.034-1.979-0.27c-0.85,0.828-1.862,1.523-2.29,2.669c-0.216,0.579-0.29,1.16-0.435,1.733
				c-1.495-0.034-2.997-0.075-4.476,0.013c-0.872,0.052-1.004-0.214-1.191,0.814c-0.129,0.71,0.209,1.428-0.024,2.147
				c-2.019,0.366-3.922-0.278-5.859,0.65c-0.485,0.232-1.716,0.719-2.007,1.075c-0.288,0.352-0.299,0.732-0.651,1.079
				c-1.182,1.164-1.868,0.767-3.257,1.029c-1.374,0.26-0.701,1.136-0.916,2.188c-0.236,1.151-0.409,0.655-1.505,0.8
				c-0.518,0.069-0.542,0.177-0.919,0.428c-0.569,0.379-1.258,0.731-1.809,1.164c-0.254,0.261-0.507,0.522-0.761,0.783
				c-0.484,0.278-0.991,0.501-1.52,0.671c-0.733,0.574-0.634,0.841-0.72,1.803c-0.146,1.634-1.459,4.004-3.197,4.509
				c-1.243,0.361-2.31-0.418-3.119,0.983c-0.164,0.284-0.231,0.881-0.34,1.179c-0.39,1.063-1.019,2.017-1.36,3.106
				c-0.243,0.778-0.282,1.645-0.708,2.355c-0.385,0.642-0.775,0.56-0.619,1.308c0.106,0.504,1.722,1.975,1.927,2.218
				c2.082,2.472,4.354,4.966,5.774,7.91c0.505,1.592,1.025,3.178,1.56,4.76c0.369,0.682,0.738,1.363,1.107,2.045l-29.854,58.203
				c-0.068,2.302-1.183,4.551-1.641,6.806c-0.347,1.711-0.226,3.348-0.266,5.075c-0.025,1.122-0.189,2.234,0.072,3.344
				c0.757,3.221,3.839,6.483,5.86,9.036c2.6,3.284,5.241,6.539,7.859,9.804c1.687,2.105,2.941,4.338,4.384,6.571L106.618,241
				c0.004,1.541-0.172,2.64,0.788,4.021c1.123,1.616,2.348,3.3,3.559,4.86c1.02,1.315,1.506,1.625,1.667,3.098
				c0.079,0.726-0.347,2.09-0.061,2.734c0.461,1.037,1.174,0.433,2.211,0.72c2.093,0.579,1.581,1.628,1.911,3.316
				c0.437,2.23,2.475,3.659,2.655,5.981c0.083,1.075-0.295,2.132,0.038,3.203c1.529,0.424,5.713,0.519,7.119-0.048
				c1.324-0.534,1.906-1.68,3.15-1.152c-0.348,0.952-0.668,1.895-0.624,2.862c0.106,2.316,3.36,3.964,4.202,6.177
				c0.436,1.144,0.242,2.294,0.863,3.297c0.687,0.417,1.305,0.917,1.855,1.498c0.473,0.503,0.827,1.076,1.063,1.719
				c0.902,1.38,1.996,2.812,3.106,4.033c1.327,1.46,1.923,1.1,3.801,1.744c1.773,0.608,3.294,1.956,4.738,3.096
				c2.031,1.603,3.034,3.557,4.453,5.66c0.809,1.201,1.902,2.187,2.818,3.316c1.118,1.376,1.367,1.825,3.288,1.351
				c4.714-1.165,8.732-4.776,13.602-5.393c1.285-0.163,2.614,0.236,3.872-0.023c1.128-0.232,1.597-1.399,2.597-1.543
				c1.095-0.158,5.786,8.488,7.424,5.269c1.53,0.155,2.221,2.109,3.008,3.189c0.763,1.048,1.814,2.128,2.423,3.256
				c0.481,0.89,0.459,1.128,0.551,2.149c0.18,2.002,0.893,3.816,1.174,5.773c0.279,1.939,0.463,4.317,1.819,5.931
				c0.485,0.577,1.345,0.62,1.811,1.226c0.658,0.857,0.266,2.313,0.247,3.314c-0.029,1.549,0.069,3.132,0.741,4.553
				c1.115,2.358,3.195,3.43,5.175,4.976c1.72,1.343,1.416,3.714,0.24,5.329c-0.869,1.194-2.338,4.364-0.107,5.195
				c-0.517-0.837-0.816-1.903-0.039-2.655c1.376-1.332,2.819-0.526,3.523,0.653c1.824,3.056,2.392,5.517,2.432,8.99
				c0.005,0.453-0.018,0.831-0.062,1.182c0.283,0.543,0.551,1.093,0.774,1.664c0.594-1.131,1.366-2.261,1.76-3.419
				c0.617-1.815,0.782-2.928,0.356-4.78c-0.13-0.568-0.732-1.897-0.374-2.469c0.485-0.777,0.35-0.365,1.291-0.534
				c1.88-0.337,3.153,0.144,3.863,1.945c1.242,3.156-0.123,6.496,0.65,9.66c1.685,0.586,2.996-0.49,3.076,1.887
				c0.095,2.798-0.802,6.428,0.115,9.071c1.935-1.94,0.523-4.711,1.396-7.016c0.348-0.919,1.201-1.691,1.514-2.621
				c0.288-0.857,0.14-1.856,0.113-2.735c-0.078-2.595,0.562-3.083,2.54-4.69c0.521-0.423,1.127-0.739,1.744-1.041
				c1.395,0.005,2.756-0.346,3.778-1.392c1.704-1.745,0.471-3.168,1.136-5.379c0.738-2.455,2.566-4.757,3.431-7.264
				c0.641-1.857,1.417-4.857,3.885-4.766c0.981-2.79,0.041-6.628,0.153-9.603c0.077-2.057,0.664-2.717,2.33-4.183
				c1.449-1.276,4.587-2.266,4.495-4.493c2.466-0.399,3.391-0.285,4.473-2.738c0.805-1.823,0.026-2.014,2.468-2.107
				c1.828-0.07,3.758-0.054,5.586,0.019c1.823,0.073,3.585,0.959,5.32,0.907c0.586-1.263,0.762-2.494,1.516-3.684
				c1.383-2.184,2.46-2.228,2.487-5.111c0.011-1.169-0.696-3.351,0.467-4.079c0.825-0.517,2.171,0.023,3.157-0.189
				c0.377-1.171,0.399-3.026,0.178-4.242c-0.073-0.403-1.198-3.038-1.151-3.146c0.582-1.318,2.112-0.681,3.27-1.067
				c1.126-0.376,2.67-1.302,3.75-1.841c3.251-1.623,6.547-4.234,3.19-7.275c-0.831-0.753-3.277-2.221-2.554-3.84
				c0.5-1.121,0.976-0.427,2.025-0.989c0.459-0.246,2.612-1.51,2.948-1.856c1.283-1.322,0.925-2.779,0.923-4.59
				c-0.003-3.411-0.372-5.477-1.387-8.613c-0.404-1.249-0.462-1.919-0.536-3.244c-0.105-1.883-0.57-3.671-1.022-5.452
				c0.12-0.09,0.225-0.193,0.349-0.28c2.393-1.684,4.561-3.976,7.642-4.54c1.516-0.277,1.678-0.057,2.32-1.639
				c0.632-1.557,1.033-3.764,2.201-5.057c1.039-1.151,1.028-0.654,1.555-2.286c0.592-1.831,0.937-3.105,0.952-5.015
				c0.013-1.639,0.63-2.467,1.765-3.701c0.813-0.883,1.275-2.014,2.176-2.613c0.55-0.365,0.689,0.244,1.221-0.432
				c0.124-0.157-0.675-3.227-0.606-2.803c-0.577-3.522,1.901-5.97,2.603-9.385c0.176-0.857,0.249-4.094,1.163-4.914
				c0.664-0.595,1.735,0.25,2.292-0.272c1.078-1.008-0.54-3.858-0.867-4.895c-0.674-2.135-0.924-4.329-1.679-6.487
				c-0.834-2.385-1.353-5.363-3.029-7.345c-0.864-1.021-1.736-1.531-1.26-3.093c1.507-0.81,3.399,0.074,5.043-0.297
				c0.318-1.669-0.141-4.174-1.228-5.469c-1.725-2.057-3.541-3.128-3.799-6.1c-0.102-1.178,0.02-1.848-0.432-2.88
				c-0.347-0.794-1.841-1.826-1.469-2.89c0.857-2.452,5.511-0.43,7.536-1.062c0.258-1.24-0.604-3.093,0.656-4.001
				c1.345-0.969,5.923-0.307,7.434,0.05C316.177,159.742,315.35,158.581,312.844,157.677z"/>
			<g>
				<path style="fill:#AB764B;" d="M154.511,280.086c0.023-0.337,0.031-0.676,0.041-1.014
					C154.491,279.457,154.486,279.837,154.511,280.086z"/>
				<path style="fill:#AB764B;" d="M200.955,156.742c-0.562-0.927-1.347-1.864-2.47-2.102c-0.881-0.187-1.862,0.489-2.727-0.092
					c-1.533-1.03-0.702-2.793-1.115-4.159c-1.122-0.309-2.117-0.002-3.195-0.436c-0.676-0.272-1.165-0.723-1.937-0.854
					c-0.457-0.078-0.946,0.092-1.379-0.035c-2.539-0.743-3.715-5.347-4.359-7.512c-0.465-1.566-0.307-2.86-0.36-4.42l-87.929,70.343
					c-1.009,2.213-1.95,4.462-2.875,6.716c0.023,0.194,0.042,0.387,0.087,0.581c0.757,3.221,3.839,6.483,5.86,9.036
					c2.6,3.284,5.241,6.539,7.859,9.804c1.687,2.105,2.941,4.338,4.384,6.571L106.618,241c0.004,1.541-0.172,2.64,0.788,4.021
					c1.123,1.616,2.348,3.3,3.559,4.86c1.02,1.315,1.506,1.625,1.667,3.098c0.079,0.726-0.347,2.09-0.061,2.734
					c0.461,1.037,1.174,0.433,2.211,0.72c2.093,0.579,1.581,1.628,1.911,3.316c0.437,2.23,2.475,3.659,2.655,5.981
					c0.083,1.075-0.295,2.132,0.038,3.203c1.529,0.424,5.713,0.519,7.119-0.048c1.324-0.534,1.906-1.68,3.15-1.152
					c-0.348,0.952-0.668,1.895-0.624,2.862c0.106,2.316,3.36,3.964,4.202,6.177c0.205,0.538,0.271,1.077,0.347,1.601
					c1.693-0.744,3.774-1.67,4.867-2.767c0.663-0.665,2.733-3.086,2.894-4.151c-0.049,1.642-0.248,3.532,1.954,2.264
					c1.504-0.866,2.243-3.09,3.771-3.898c0.84-0.444,0.924,0.111,1.725-0.087c1.606-0.397,4.505-3.325,5.706-1.345
					c0.721,1.189,0.024,4.317,0.025,5.715c0.001,1.646,0.079,3.314,0.03,4.965c0.136-0.855,0.546-1.735,1.511-1.257
					c0.685,0.339,0.393,1.683,0.236,2.303c-0.378,1.487-1.732,2.956-1.19,4.651c0.258,0.808,1.088,1.043,1.251,1.714
					c-0.917,0.301-2.005,0.118-2.964,0.127c1.929,0,4.472,0.608,5.883-0.73c0.811-0.769,1.404-1.379,2.325-1.975
					c1.078-0.697,1.653-0.875,2.355-1.99c1.146-1.822,2.523-3.375,3.438-5.331c0.426-0.91,0.683-2.084,1.569-2.612
					c0.628-0.374,0.843,0.337,1.304-0.408c0.34-0.549-0.056-5.549-0.055-5.41c-0.023-2.448-0.376-5.306,0.698-7.617
					c1.482-3.188,3.06-5.376,3.078-9.061c0.009-1.844-0.686-4.723,0.074-6.377c1.239-2.699,5.393-1.331,7.461-1.92
					c0.123-1.314-0.203-2.141-0.484-3.347c-0.347-1.493-0.139-3.145-0.154-4.674c-0.016-1.57-0.29-4.712,0.721-6.08
					c0.858-1.161,2.565-0.387,3.381-1.537c1.125-1.584,0.125-4.883,0.876-6.84c0.746-1.945,0.941-4.274,1.898-6.079
					c0.633-1.195,1.055-1.383,2.185-2.168c1.365-0.947,2.149-2.489,3.777-2.989c0.718-0.22,1.263,0.024,1.694-0.622
					c0.23-0.346-0.072-1.891-0.077-2.307c-0.03-2.348-0.166-4.786,0.249-7.101c0.248-1.381,0.529-2.467,1.326-3.64
					c0.263-0.388,1.148-1.104,1.331-1.519c0.829-1.884-0.605-4.33-0.909-6.338c-0.403-2.659-0.631-6.69,1.179-8.805
					c1.371-1.602,2.455-1.664,2.541-4.003c0.046-1.256-0.338-2.735,0.033-3.96c2.427-0.241,1.763-2.606,1.472-4.182
					c-0.561-3.041,0.5-2.769,3.206-2.827C203.261,162.268,202.505,159.296,200.955,156.742z"/>
				<path style="fill:#AB764B;" d="M200.955,156.742c-0.562-0.927-1.347-1.864-2.47-2.102c-0.881-0.187-1.862,0.489-2.727-0.092
					c-1.533-1.03-0.702-2.793-1.115-4.159c-1.122-0.309-2.117-0.002-3.195-0.436c-0.676-0.272-1.165-0.723-1.937-0.854
					c-0.457-0.078-0.946,0.092-1.379-0.035c-2.539-0.743-3.715-5.347-4.359-7.512c-0.465-1.566-0.307-2.86-0.36-4.42l-87.929,70.343
					c-1.009,2.213-1.95,4.462-2.875,6.716c0.023,0.194,0.042,0.387,0.087,0.581c0.757,3.221,3.839,6.483,5.86,9.036
					c2.6,3.284,5.241,6.539,7.859,9.804c1.687,2.105,2.941,4.338,4.384,6.571L106.618,241c0.004,1.541-0.172,2.64,0.788,4.021
					c1.123,1.616,2.348,3.3,3.559,4.86c1.02,1.315,1.506,1.625,1.667,3.098c0.079,0.726-0.347,2.09-0.061,2.734
					c0.461,1.037,1.174,0.433,2.211,0.72c2.093,0.579,1.581,1.628,1.911,3.316c0.437,2.23,2.475,3.659,2.655,5.981
					c0.083,1.075-0.295,2.132,0.038,3.203c1.529,0.424,5.713,0.519,7.119-0.048c1.324-0.534,1.906-1.68,3.15-1.152
					c-0.348,0.952-0.668,1.895-0.624,2.862c0.106,2.316,3.36,3.964,4.202,6.177c0.205,0.538,0.271,1.077,0.347,1.601
					c1.693-0.744,3.774-1.67,4.867-2.767c0.663-0.665,2.733-3.086,2.894-4.151c-0.049,1.642-0.248,3.532,1.954,2.264
					c1.504-0.866,2.243-3.09,3.771-3.898c0.84-0.444,0.924,0.111,1.725-0.087c1.606-0.397,4.505-3.325,5.706-1.345
					c0.721,1.189,0.024,4.317,0.025,5.715c0.001,1.646,0.079,3.314,0.03,4.965c0.136-0.855,0.546-1.735,1.511-1.257
					c0.685,0.339,0.393,1.683,0.236,2.303c-0.378,1.487-1.732,2.956-1.19,4.651c0.258,0.808,1.088,1.043,1.251,1.714
					c-0.917,0.301-2.005,0.118-2.964,0.127c1.929,0,4.472,0.608,5.883-0.73c0.811-0.769,1.404-1.379,2.325-1.975
					c1.078-0.697,1.653-0.875,2.355-1.99c1.146-1.822,2.523-3.375,3.438-5.331c0.426-0.91,0.683-2.084,1.569-2.612
					c0.628-0.374,0.843,0.337,1.304-0.408c0.34-0.549-0.056-5.549-0.055-5.41c-0.023-2.448-0.376-5.306,0.698-7.617
					c1.482-3.188,3.06-5.376,3.078-9.061c0.009-1.844-0.686-4.723,0.074-6.377c1.239-2.699,5.393-1.331,7.461-1.92
					c0.123-1.314-0.203-2.141-0.484-3.347c-0.347-1.493-0.139-3.145-0.154-4.674c-0.016-1.57-0.29-4.712,0.721-6.08
					c0.858-1.161,2.565-0.387,3.381-1.537c1.125-1.584,0.125-4.883,0.876-6.84c0.746-1.945,0.941-4.274,1.898-6.079
					c0.633-1.195,1.055-1.383,2.185-2.168c1.365-0.947,2.149-2.489,3.777-2.989c0.718-0.22,1.263,0.024,1.694-0.622
					c0.23-0.346-0.072-1.891-0.077-2.307c-0.03-2.348-0.166-4.786,0.249-7.101c0.248-1.381,0.529-2.467,1.326-3.64
					c0.263-0.388,1.148-1.104,1.331-1.519c0.829-1.884-0.605-4.33-0.909-6.338c-0.403-2.659-0.631-6.69,1.179-8.805
					c1.371-1.602,2.455-1.664,2.541-4.003c0.046-1.256-0.338-2.735,0.033-3.96c2.427-0.241,1.763-2.606,1.472-4.182
					c-0.561-3.041,0.5-2.769,3.206-2.827C203.261,162.268,202.505,159.296,200.955,156.742z"/>
				<path style="opacity:0.1;" d="M305.872,194.247c-0.834-2.385-1.353-5.363-3.029-7.345c-0.864-1.021-1.736-1.531-1.26-3.093
					c1.507-0.81,3.399,0.074,5.043-0.297c0.318-1.669-0.141-4.174-1.228-5.469c-1.34-1.597-2.724-2.61-3.401-4.369
					c-0.358,0.989-0.892,1.88-1.646,2.649c-0.723,0.386-2.313,0.023-3.103,0.007c-1.121-0.024-2.45-0.168-3.383,0.609
					c-1.097,0.915-0.742,1.349-2.499,1.265c-0.489,0.805-0.56,1.694-0.214,2.666c0.035,2.617-0.152,5.219-0.561,7.805
					c-0.611,3.464-1.336,7.154-2.469,10.469c-0.667,1.952-0.597,0.552-1.221,1.674c-0.425,0.766-0.825,1.975-1.107,2.824
					c-0.958,2.878-0.171,6.715-0.207,9.707c-0.035,2.894-0.995,5.781-2.25,8.363c-0.869,1.789-1.09,2.55-2.818,2.809
					c-0.789,0.118-1.702-0.094-2.516-0.075c-1.375,0.033-1.185,0.08-1.989,0.856c-2.628,2.535-4.153,7.702-5.56,10.923
					c-1.378,3.153-2.607,6.325-3.775,9.561c-0.834,2.312-1.927,4.596-2.988,6.816c-0.913,1.909-1.277,3.208-3.412,3.142
					c-0.974-0.03-1.924-0.182-2.896-0.252c-2.884,5.365-1.925,12.323-1.814,18.236c0.048,2.572,0.228,3.315-0.978,5.167
					c-0.384,0.589-0.862,0.991-1.063,1.716c-2.12,0.191-4.801-0.539-6.78,0.211c-0.138,1.798,0.043,3.659,0.016,5.457
					c-0.01,0.638-0.199,1.563,0.105,2.173c0.505,1.012,0.925,0.482,1.496,1.155c0.684,0.805,0.996,1.679,0.859,2.778
					c-0.539,0.483-1.146,0.21-1.708-0.095c-1.313,0.845-2.234,2.059-2.763,3.641c-1.346,1.818-2.693,3.637-4.04,5.455
					c-2.277,2.876-4.732,5.125-7.265,7.65c-1.758,1.752-3.415,3.739-6.15,3.52c-1.835,2.619,0.741,6.876-0.928,9.365
					c-0.57,0.85-1.251,1.363-1.758,2.319c-0.53,0.999-1.511,1.826-1.989,2.788c-0.171,0.344-0.225,0.691-0.244,1.044
					c-0.111-1.541-0.462-3.372-1.332-4.231c-1.164-1.149-2.157-0.353-3.454-0.676c0.765-1.741,1.663-3.213,1.732-5.167
					c0.027-0.758,0.4-3.544,0.077-4.231c-0.539-1.146-2.223-1.066-3.251-1.361c-1.485-0.426-3.211-0.964-4.614-1.612
					c-4.217-1.949-6.629-5.336-6.658-9.908c-0.009-1.5,0.1-1.858-0.722-3.242c-0.741-1.248-0.833-3.052-1.604-4.193
					c-0.899-0.628-1.847-1.175-2.843-1.641c-2.29-1.282-4.741-2.068-7.352-2.357c-1.485-0.154-3.468-0.245-4.995,0.065
					c-2.025,0.411-4.067,2.356-6.094,2.465c-1.055-0.202-1.899-0.769-2.533-1.702c-1.12-1.06-2.378-1.913-3.775-2.558
					c-1.493-0.516-1.407-0.26-2.451,0.395c-2.194,1.376-4.101,2.722-6.817,3.117c-1.495,0.217-3.905,0.472-5.132-0.454
					c-1.255-0.947-1.987-2.862-3.183-3.974c-1.515-1.408-3.295-2.137-5.088-3.05c-0.483-0.193-0.889-0.496-1.218-0.91
					c-0.722-0.333-1.471-0.416-2.246-0.251c-1.071-0.286-2.382-0.836-3.171-1.673c-0.592-0.833-1.042-1.737-1.349-2.713
					c-0.53-0.98-1.079-1.948-1.649-2.905c-0.323-0.938,0.129-1.999-0.592-2.643c-0.636-0.569-2.453,0.096-3.251-0.169
					c-1.178-0.392-2.667-1.917-3.158-3.001c-0.539-1.191-0.269-2.334-1.141-3.512c-1.049-1.417-2.247-2.326-3.982-2.671
					c-1.748-0.347-4.9,0.655-6.448-0.179c-1.414-0.762-1.186-3.143-1.892-4.473c-0.8-1.507-1.506-2.873-3.183-3.042
					c-2.073-0.209-4.307-0.025-6.455,0.049c0.006,0.015,0.007,0.034,0.013,0.048c0.461,1.037,1.174,0.433,2.211,0.72
					c2.093,0.579,1.581,1.628,1.911,3.316c0.437,2.23,2.475,3.659,2.655,5.981c0.083,1.075-0.295,2.132,0.038,3.203
					c1.529,0.424,5.713,0.519,7.119-0.048c1.324-0.534,1.906-1.68,3.15-1.152c-0.348,0.952-0.668,1.895-0.624,2.862
					c0.106,2.316,3.36,3.964,4.202,6.177c0.098,0.258,0.162,0.516,0.213,0.772c0.004,0.02,0.01,0.041,0.013,0.061
					c0.049,0.258,0.084,0.514,0.121,0.767c0.086,0.591,0.187,1.165,0.516,1.696c0.687,0.417,1.305,0.917,1.855,1.498
					c0.473,0.503,0.827,1.076,1.063,1.719c0.902,1.38,1.996,2.812,3.106,4.033c1.327,1.46,1.923,1.1,3.801,1.744
					c1.773,0.608,3.294,1.956,4.738,3.096c2.031,1.603,3.034,3.557,4.453,5.66c0.809,1.201,1.902,2.187,2.818,3.316
					c1.118,1.376,1.367,1.825,3.288,1.351c4.714-1.165,8.732-4.776,13.602-5.393c1.285-0.163,2.614,0.236,3.872-0.023
					c1.128-0.232,1.597-1.399,2.597-1.543c1.095-0.158,5.786,8.488,7.424,5.269c1.53,0.155,2.221,2.109,3.008,3.189
					c0.763,1.048,1.814,2.128,2.423,3.256c0.481,0.89,0.459,1.128,0.551,2.149c0.18,2.002,0.893,3.816,1.174,5.773
					c0.279,1.939,0.463,4.317,1.819,5.931c0.485,0.577,1.345,0.62,1.811,1.226c0.658,0.857,0.266,2.313,0.247,3.314
					c-0.029,1.549,0.069,3.132,0.741,4.553c1.115,2.358,3.195,3.43,5.175,4.976c1.72,1.343,1.416,3.714,0.24,5.329
					c-0.869,1.194-2.338,4.364-0.107,5.195c-0.517-0.837-0.816-1.903-0.039-2.655c1.376-1.332,2.819-0.526,3.523,0.653
					c1.824,3.056,2.392,5.517,2.432,8.99c0.005,0.453-0.018,0.831-0.062,1.182c0.283,0.543,0.551,1.093,0.774,1.664
					c0.594-1.131,1.366-2.261,1.76-3.419c0.617-1.815,0.782-2.928,0.356-4.78c-0.13-0.568-0.732-1.897-0.374-2.469
					c0.485-0.777,0.35-0.365,1.291-0.534c1.88-0.337,3.153,0.144,3.863,1.945c1.242,3.156-0.123,6.496,0.65,9.66
					c1.685,0.586,2.996-0.49,3.076,1.887c0.095,2.798-0.802,6.428,0.115,9.071c1.935-1.94,0.523-4.711,1.396-7.016
					c0.348-0.919,1.201-1.691,1.514-2.621c0.288-0.857,0.14-1.856,0.113-2.735c-0.078-2.595,0.562-3.083,2.54-4.69
					c0.521-0.423,1.127-0.739,1.744-1.041c1.395,0.005,2.756-0.346,3.778-1.392c1.704-1.745,0.471-3.168,1.136-5.379
					c0.738-2.455,2.566-4.757,3.431-7.264c0.641-1.857,1.417-4.857,3.885-4.766c0.981-2.79,0.041-6.628,0.153-9.603
					c0.077-2.057,0.664-2.717,2.33-4.183c1.449-1.276,4.587-2.266,4.495-4.493c2.466-0.399,3.391-0.285,4.473-2.738
					c0.805-1.823,0.026-2.014,2.468-2.107c1.828-0.07,3.758-0.054,5.586,0.019c1.823,0.073,3.585,0.959,5.32,0.907
					c0.586-1.263,0.762-2.494,1.516-3.684c1.383-2.184,2.46-2.228,2.487-5.111c0.011-1.169-0.696-3.351,0.467-4.079
					c0.825-0.517,2.171,0.023,3.157-0.189c0.377-1.171,0.399-3.026,0.178-4.242c-0.073-0.403-1.198-3.038-1.151-3.146
					c0.582-1.318,2.112-0.681,3.27-1.067c1.126-0.376,2.67-1.302,3.75-1.841c3.251-1.623,6.547-4.234,3.19-7.275
					c-0.831-0.753-3.277-2.221-2.554-3.84c0.5-1.121,0.976-0.427,2.025-0.989c0.459-0.246,2.612-1.51,2.948-1.856
					c1.283-1.322,0.925-2.779,0.923-4.59c-0.003-3.411-0.372-5.477-1.387-8.613c-0.404-1.249-0.462-1.919-0.536-3.244
					c-0.105-1.883-0.57-3.671-1.022-5.452c0.12-0.09,0.225-0.193,0.349-0.28c2.393-1.684,4.561-3.976,7.642-4.54
					c1.516-0.277,1.678-0.057,2.32-1.639c0.632-1.557,1.033-3.764,2.201-5.057c1.039-1.151,1.028-0.654,1.555-2.286
					c0.592-1.831,0.937-3.105,0.952-5.015c0.013-1.639,0.63-2.467,1.765-3.701c0.813-0.883,1.275-2.014,2.176-2.613
					c0.55-0.365,0.689,0.244,1.221-0.432c0.124-0.157-0.675-3.227-0.606-2.803c-0.577-3.522,1.901-5.97,2.603-9.385
					c0.176-0.857,0.249-4.094,1.163-4.914c0.664-0.595,1.735,0.25,2.292-0.272c1.078-1.008-0.54-3.858-0.867-4.895
					C306.877,198.598,306.626,196.404,305.872,194.247z"/>
			</g>
			<path style="fill:#A37148;" d="M296.082,153.116c-0.37-0.328-0.727-0.67-1.103-0.992c-0.804-0.401-1.373-0.99-1.708-1.769
				c-0.025-2.251,2.633-0.553,3.698-1.286c-4.026-4.25-8.343-8.247-12.544-12.332c-1.269-1.233-5.303-3.602-5.294-5.577
				c0.215-0.425,0.519-0.534,0.91-0.327c-1.85-1.222-8.831-4.454-7.34-7.361c1.402-0.373,2.976,0.189,4.404-0.003
				c-3.633-1.904-7.369-3.518-11.171-5.063c-1.212-0.493-3.939-1.289-5.073-2.441c0.587,0.982-1.92-1.09-2.053-1.208
				c-1.014-0.901-1.719-2.021-2.576-3.051c-0.501-0.602-1.228-1.757-1.941-2.15c-1.048-0.578-2.964-0.44-4.06-0.656
				c-1.841-0.363-2.724-1.939-4.587-2.478c-1.529-0.442-2.558-0.174-3.475-1.957c-0.567-1.102-0.268-2.233-1.092-3.215
				c-1.35-1.61-3.242-0.887-4.974-1.431c-1.7-0.534-3.069-1.684-4.678-2.381c-1.915-0.83-4.009-0.988-6.078-1.034
				c-1.257-0.028-4.342,0.586-5.569-0.05c-1.349-0.699-1.86-2.674-2.955-3.61c-3.199,0.972-6.093,2.439-9.587,1.983
				c-2.182-0.285-3.823-1.573-5.86-2.157c-1.181-0.339-2.404-0.584-3.642-0.444c-1.392,0.157-1.413,0.547-2.61,1.266
				c-0.704,0.448-1.473,0.659-2.308,0.633c-0.347-0.22-0.726-0.32-1.137-0.301c-1.373,0.359-2.262,1.676-3.721,2.018
				c-1.108,0.26-2.432,0.109-3.568,0.078c-2.152-0.058-2.448,0.25-4.507,1.227c-1.356,0.7-2.79,1.108-4.301,1.223
				c-0.623,0.298-1.168,0.706-1.636,1.223c-0.945,0.631-3.865,2.028-5.193,1.168c-0.864-0.559-0.326-1.906-1.417-2.39
				c-2.132-0.947-3.409,1.617-4.877,2.366c-0.435,0.003-0.835,0.122-1.199,0.356c-0.371,0.503-0.844,0.889-1.418,1.158
				c-1.122,0.553-2.212,0.14-3.319,0.516c-1.164,0.396-1.461,1.088-2.847,1.134c-0.705,0.023-1.344,0.034-1.979-0.27
				c-0.85,0.828-1.862,1.523-2.29,2.669c-0.216,0.579-0.29,1.16-0.435,1.733c-1.495-0.034-2.997-0.075-4.476,0.013
				c-0.872,0.052-1.004-0.214-1.191,0.814c-0.129,0.71,0.209,1.428-0.024,2.147c-2.019,0.366-3.922-0.278-5.859,0.65
				c-0.485,0.232-1.716,0.719-2.007,1.075c-0.288,0.352-0.299,0.732-0.651,1.078c-1.182,1.164-1.868,0.767-3.257,1.029
				c-1.374,0.26-0.701,1.136-0.916,2.188c-0.236,1.151-0.409,0.655-1.505,0.8c-0.518,0.069-0.542,0.177-0.919,0.428
				c-0.569,0.379-1.258,0.731-1.809,1.164c-0.254,0.261-0.507,0.522-0.761,0.783c-0.484,0.278-0.991,0.501-1.52,0.671
				c-0.733,0.574-0.634,0.841-0.72,1.802c-0.146,1.634-1.459,4.004-3.197,4.509c-1.243,0.361-2.31-0.418-3.119,0.983
				c-0.164,0.284-0.231,0.881-0.34,1.179c-0.079,0.214-0.172,0.422-0.265,0.629c19.4,34.359,56.247,57.56,98.518,57.56
				C246.784,187.436,275.535,174.28,296.082,153.116z"/>
		</g>
		<g>
			<g>
				<path style="fill:#4A3833;" d="M83.285,139.955c-9.942-1.442-26.211-6.586-15.756-24.937c0,0-33.307,31.311,10.639,45.788
					c6.945,2.288,14.244-2.68,14.38-9.991c0.002-0.112,0.003-0.225,0.003-0.338C92.549,145.182,88.526,140.715,83.285,139.955z"/>
				<path style="fill:#3B2C28;" d="M80.652,154.057c-22.883-8.004-23.523-21.152-19.523-31.311
					c-6.882,10.226-13.15,28.114,17.039,38.06c6.945,2.288,14.244-2.68,14.381-9.991c0.002-0.112,0.003-0.225,0.003-0.338
					c0-0.246-0.018-0.488-0.035-0.73C90.063,153.653,85.28,155.676,80.652,154.057z"/>
			</g>
			<path style="fill:#8A4D36;" d="M180.082,176.669c-3.154-50.498-28.493-60.113-61.37-60.113
				c-16.355,0-39.928,14.011-43.105,32.311c-0.644,3.706-1.18,7.689-1.551,11.914c-0.134,0.154-0.268,0.308-0.401,0.462
				c-0.205,0.467-0.315,0.955-0.332,1.464c-0.265,0.807-0.668,1.669-0.985,2.458c-0.377,0.938-1.422,1.699-1.564,2.642
				c1.059,1.141,1.221,1.431,1.232,3.025c0.127,0.641,0.053,1.255-0.221,1.844c-0.219,0.184-0.438,0.369-0.658,0.553
				c-0.463,0.875-1.474,2.779-1.145,3.854c0.226,0.74,0.916,1.123,1.245,1.912c0.693,1.658-0.243,3.544,0.228,5.129
				c0.22,0.741,0.72,1.317,1.03,2.046c0.284,1.002,0.602,1.993,0.953,2.974c0.441,1.029,0.797,2.084,1.068,3.167
				c-0.125,0.683-0.891,0.877-1.489,0.887c-0.225,0.934-0.219,2.392-0.093,3.342c0.083,0.626,0.024,0.7,0.481,1.079
				c0.64,0.532,0.769-0.015,1.028,0.838c0.281,0.922-0.029,3.004-0.033,3.919c-0.002,0.523-0.228,1.68,0.022,2.124
				c0.18,0.318,0.613,0.344,0.837,0.662c0.495,0.703,0.153,1.81,0.556,2.435c0.526,0.817,1.347,0.361,2.097,0.712
				c0.268,1.068,0.549,2.14,0.846,3.22c-0.001,2.148,0.212,4.43-0.037,6.563c1.329-0.634,1.722,7.336,2.01,8.25
				c0.591,1.876,1.735,0.839,3.271,1.228c0.557,2.204,1.08,3.956,1.052,6.258c-0.012,0.945-0.172,1.946,0.157,2.855
				c0.576,1.593,2.174,2.336,2.891,3.728c0.706,1.37,0.722,2.937,1.34,4.321c0.272,0.608,0.654,1.456,1.196,1.871
				c0.339,0.26,0.62,0.166,0.954,0.428c0.648,0.509,1.308,1.243,1.924,1.802c0.793,0.719,1.618,1.763,1.805,2.827
				c1.146,0.469,2.423-0.536,3.629-0.405c2.92,0.316,1.663,1.764,2.137,3.715c0.716,0.207,1.186-0.274,1.891-0.368
				c0.512-0.069,1.462-0.05,1.972,0.019c1.195,0.161,1.614,1.252,3.025,1.444c1.414,0.193,5.156-0.877,5.036,1.331
				c1.413,0.585,2.875,0.955,4.358,1.334c2.376,0.608,5.009,1.546,7.451,1.621c1.609,0.05,3.206-0.263,4.819-0.34
				c1.77-0.084,3.531,0.022,5.298-0.1c0.217-0.724,0.139-2.132-0.011-2.865c-0.224-1.094-1.378-1.37-1.664-2.344
				c0.905-0.248,1.998-0.071,2.936-0.073c1.623-0.003,2.167,0.15,3.468-0.861c0.755-0.587,0.946-0.562,1.967-0.602
				c1.383-0.054,2.694-0.194,4.057-0.37c0.856-0.111,2.077,0.114,2.867-0.285c0.618-0.312,1.015-1.072,1.45-1.57
				c0.882-1.009,2.015-1.99,3.085-2.795c1.111-0.836,2.834-1.095,3.695-2.199c0.776-0.994,0.411-2.563,0.926-3.719
				c0.203-0.456,0.41-0.529,0.602-1.046c0.366-0.989,0.337-2.079,0.418-3.126c0.148-0.134,0.297-0.264,0.445-0.399
				c0.505,0.018,0.878,0.029,1.323-0.404c0.452-0.44,0.475-1.254,1.105-1.736c0.507-0.389,1.067-0.652,1.702-0.724
				c0.374-0.042,0.978,0.175,1.305-0.006c0.504-0.279,0.943-1.593,1.179-2.061c1.456-2.885,2.98-5.828,4.676-8.564
				c0.434-0.701,0.666-1.056,0.758-1.688C177.554,211.234,181.314,196.407,180.082,176.669z"/>
			<path style="fill:#78432F;" d="M94.809,243.216c7.701,0,12.887,2.672,18.545,2.514s13.553-3.005,13.773-13.673
				c0.185-8.974-3.877-11.867-8.684-13.975c-2.645-1.16-9.818-1.102-15.998-0.213c-4.26,0.613-8.571,0.499-12.826-0.149
				c-4.877-0.744-7.942,0.3-9.823,2.162c0.511,2.253,0.747,5.862,0.935,6.46c0.591,1.876,1.735,0.839,3.271,1.228
				c0.557,2.204,1.08,3.956,1.052,6.258c-0.012,0.945-0.172,1.946,0.157,2.855c0.576,1.593,2.174,2.336,2.891,3.728
				c0.488,0.947,0.648,1.987,0.904,2.997C90.038,243.396,89.917,243.216,94.809,243.216z"/>
			<g>
				<g>
					<path style="fill:#78432F;" d="M180.082,176.669c-0.856-13.704-3.349-24.392-7.18-32.699c-0.662-0.176-1.337-0.283-2.016-0.176
						c-0.627,0.098-0.717,0.48-1.21,0.791c-0.448,0.283-0.904,0.518-1.359,0.823c-1.067,0.715-2.865,0.254-4.668,1.903
						c-0.235,1.252,1.795,2.137,2.433,2.983c0.671,0.889-0.144,0.964-0.538,1.516c0.014,0.458,0.014,0.915,0.002,1.373
						c-0.036,0.797,0.047,1.582,0.25,2.355c0.289,0.93,0.877,1.741,1.301,2.604c0.532,1.084,1.24,2.328,1.216,3.541
						c-0.036,1.787-0.531,3.704,1.159,4.843c0.772,0.521,1.934,0.626,2.767,1.043c0.453,0.236,0.901,0.483,1.343,0.742
						c0.297,0.283,0.296,0.568-0.005,0.854c-0.426,1.598-1.811,2.854-2.252,4.483c-0.271,1-0.308,1.991-0.293,3.03
						c0.006,0.397-0.058,0.791-0.056,1.182c0.011,1.922,1.313,3.499,1.8,5.261c0.234,0.846,0.203,1.644,0.187,2.534
						c-0.022,1.269-0.615,2.355-0.825,3.605c-0.048,1.179-0.173,2.347-0.377,3.503c-0.242,2.065-0.689,4.082-1.343,6.05
						c-0.539,1.958-1.021,4.804-2.205,6.576c-0.64,0.958-0.467,1.489-0.448,2.808c0.034,2.348-0.117,4.481-0.651,6.762
						c-0.207,0.885-0.135,1.55-0.227,2.425c-0.172,1.641-0.616,3.066-1.279,4.553c-0.568,1.274-1.4,2.327-2.001,3.574
						c-0.578,1.434-1.12,2.884-1.626,4.349c-0.417,1.057-0.844,2.11-1.28,3.158c-0.294,1.149,0.385,2.726-0.082,3.78
						c-0.24,0.226-0.503,0.42-0.789,0.583c-0.097,0.099-0.204,0.184-0.303,0.279c0.341-0.009,0.635-0.083,0.971-0.41
						c0.452-0.44,0.475-1.254,1.105-1.736c0.507-0.389,1.067-0.652,1.702-0.724c0.374-0.042,0.978,0.175,1.305-0.006
						c0.504-0.279,0.943-1.593,1.179-2.061c1.456-2.885,2.98-5.828,4.676-8.564c0.434-0.701,0.666-1.056,0.758-1.688
						C177.554,211.234,181.314,196.407,180.082,176.669z"/>
					<path style="fill:#78432F;" d="M157.712,242.228c0.203-0.456,0.41-0.529,0.602-1.046c0.327-0.884,0.341-1.847,0.398-2.789
						c-0.322,0.26-0.653,0.51-1.001,0.739c-0.576,0.387-1.131,0.538-1.223,1.315c-0.092,0.773,0.485,1.999,0.983,2.655
						C157.52,242.797,157.591,242.5,157.712,242.228z"/>
				</g>
				<path style="fill:#78432F;" d="M164.121,146.277c0.167,0.088,0.316,0.059,0.447-0.087c0.136-0.195,0.271-0.39,0.407-0.585
					c0.541-0.802,0.986-1.632,1.37-2.524c0.288-0.668,0.248-0.882,0.944-0.846c0.125-0.011,0.249,0,0.372,0.035
					c0.193,0.095,0.321,0.247,0.383,0.458c0.212,0.178,0.351,0.365,0.666,0.217c0.075-2.15,0.254-4.261,0.428-6.402
					c0.036-0.438,0.202-1.416,0.054-1.949c-0.814-0.012-1.241-0.693-1.548-1.388c-0.383-0.866-0.432-1.921-0.688-2.833
					c-0.165-0.589-0.361-1.185-0.659-1.723c-0.424-0.764-0.954-0.6-1.729-0.598c-1.606,0.004-3.178-0.305-4.397-1.502
					c-0.415-0.408-0.617-0.993-1.005-1.414c-0.448-0.487-0.983-0.388-1.576-0.426c-0.6-0.039-1.157-0.253-1.741-0.337
					c-0.154-0.022-0.382,0.042-0.521,0c-0.61-0.186-1.055-1.444-1.301-1.954c-0.282-0.586-0.57-1.17-0.754-1.797
					c-0.508,0.059-1.077,0.053-1.586,0.005c-0.375-0.035-0.253-0.107-0.461-0.338c-0.412-0.457-0.781-1.269-1.4-1.376
					c-0.261-0.045-0.508-0.138-0.768-0.187c-0.627-0.118-1.797-0.023-2.252-0.037c-1.303-0.039-3.042,0.067-4.298-0.552
					c-0.462-0.228-0.88-0.503-1.384-0.708c-0.962-0.392-1.889-0.874-2.852-1.256c-0.546-0.217-0.711-0.457-1.184-0.975
					c-0.464-0.461-0.867-0.973-1.209-1.534c-0.086-0.124-0.173-0.249-0.259-0.373c-0.516-0.332-1.864,0.365-2.08,0.445
					c-2.411,0.887-4.771,1.909-7.161,2.85c-0.095,0.037-1.855,0.907-2.341,0.829c-0.827-0.133-0.598-1.385-0.76-2.006
					c-0.243-0.121-0.521,0.07-0.752,0.132c-0.72,0.192-1.682,0.191-2.426,0.113c-0.654-0.07-1.186-0.396-1.875-0.399
					c-0.356-0.001-0.452-0.041-0.745-0.185c-0.422-0.208-0.484-0.178-0.852-0.028c-0.291,0.118-0.725,0.268-1.059,0.369
					c-1.418,0.431-2.785,1.03-4.13,1.654c-0.596,0.277-0.756,0.463-1.301,0.445c-0.408-0.014-0.44,0.031-0.776,0.244
					c-0.55,0.348-1.922,0.779-2.305,0.911c-0.75,0.258-1.495,0.56-2.302,0.523c-0.41-0.019-0.805-0.26-1.202-0.242
					c-0.448,0.019-0.996,0.447-1.38,0.658c-1.274,0.702-2.481,1.527-3.711,2.303c-0.931,0.587-1.853,1.183-2.988,1.113
					c-0.476-0.03-0.684-0.101-1.016,0.264c-0.419,0.461-0.74,0.922-1.083,1.441c-0.401,0.606-0.886,1.341-1.695,1.347
					c-0.285,0.002-0.617-0.04-0.905-0.059c-0.295-0.019-0.329,0.018-0.505-0.199c-0.111-0.136-0.107-0.334-0.31-0.367
					c-0.235-0.038-0.841,0.667-0.92,0.753c-0.474,0.515-0.784,1.157-1.184,1.733c-0.531,0.766-1.281,1.424-1.64,2.312
					c-0.195,0.481-0.116,0.767-0.087,1.22c-1.273-0.692-1.572-1.024-2.069-1.055c-0.428-0.027-0.954-0.071-1.383-0.038
					c-0.448,0.034-0.482,0.136-0.754,0.575c-0.63,1.016-0.995,1.827-2.049,2.462c-0.356,0.215-1.123,0.692-1.582,0.786
					c-0.279,0.057-0.559-0.037-0.838-0.023c-0.148,0.243-0.205,0.516-0.17,0.819c-0.044,0.579-0.154,1.141-0.329,1.689
					c-0.196,0.719-0.242,1.077-0.909,1.416c-0.419,0.213-0.635,0.515-0.953,0.841c-0.394,0.405-0.867,0.394-0.89,1.013
					c-0.049,1.319,0.08,2.656,0.021,3.975c-0.06,1.33-1.089,2.081-1.585,3.222c-0.138,0.318-0.12,0.533-0.161,0.849
					c-0.069,0.532-0.232,1.046-0.358,1.563c-0.206,0.85-0.294,1.732-0.524,2.575c-0.146,0.536-0.391,0.252-0.576,0.638
					c-0.074,0.155,0.015,0.771,0.017,0.953c0.004,0.39,0.026,0.432,0.162,0.785c0.116,0.302,0.306,0.721,0.134,1.051
					c-0.137,0.263-0.398,0.257-0.61,0.409c0.052,0.573,0.368,1.237,0.565,1.789c0.268,0.752,0.629,1.215,1.195,1.726
					c0.149,0.135,0.315,0.283,0.49,0.411c-0.048,0.284-0.078,0.564-0.031,0.828c0.157,0.119,0.329,0.186,0.518,0.2
					c-0.459,0.895-0.235,2.366-0.217,3.372c0.013,0.765-0.02,0.532,0.416,1.033c0.392,0.108,0.708,0.331,0.947,0.667
					c0.093,0.244,0.191,0.486,0.294,0.725c0.247,0.512,0.584,0.982,0.909,1.442c0.214,0.093,0.394,0.234,0.54,0.422
					c0.052,0.253,0.095,0.508,0.131,0.763c0.553,1.18,2.015,0.666,2.06,2.228c0.014,0.487-0.162,1.179-0.035,1.635
					c0.226,0.81,0.402,0.343,1.08,0.553c0.737,0.227,1.057,0.981,1.778,1.219c0.31,0.102,0.694-0.059,1.042,0.056
					c1.349,0.444,2.064,1.766,3.561,1.875c1.042,0.076,2.105,0.04,3.149,0.07c0.613,0.017,1.225,0.03,1.838,0.034
					c0.943-0.053,1.878,0.032,2.806,0.255c0.599,0.211,1.193,0.437,1.782,0.679c0.271-0.039,1.333-0.917,1.332-0.917
					c1.261-0.973,0.729-1.536,2.374-1.127c2.057,0.511,4.031,1.367,5.974,2.23c1.209,0.537,1.331,0.44,2.333-0.194
					c0.432-0.274,0.68-0.252,0.887-0.767c0.388-0.968,0.165-1.536,1.109-2.304c0.687-0.56,1.498-0.665,1.415-1.668
					c-0.052-0.625-0.441-1.064,0.352-1.392c0.6-0.248,0.865,0.215,1.328-0.376c0.521-0.665,0.838-2.296,1.091-3.073
					c-0.131-0.399-0.043-0.683,0.266-0.852c0.505-0.046,0.989-0.17,1.452-0.372c1.176-0.412,2.297-0.826,3.413-1.396
					c1.29-0.658,4.332-1.962,4.533-3.786c0.107-0.967-0.607-1.741-0.765-2.651c0.411-0.068,1.312,0.26,1.667,0.014
					c0.783-0.544,0.749-2.329,0.805-3.467c0.206-0.183,0.416-0.36,0.621-0.544c0.266-0.037,0.464-0.115,0.606-0.263
					c0.229,0.247,0.514,0.773,0.616,0.907c0.448,0.594,0.481,0.33,0.948-0.004c2.345-1.678,4.44-3.642,6.992-5.032
					c0.624-0.34,1.068-0.789,1.734-0.485c0.546,0.249,1.593,0.362,2.163,0.197c0.487-0.251,0.967-0.516,1.439-0.796
					c0.397-0.194,0.787-0.403,1.169-0.627c0.483-0.304,0.913-0.693,1.382-1.02c0.803-0.561,1.543-0.835,2.526-0.816
					c0.639,0.012,0.76,0.148,1.274,0.52c0.738,0.533,1.226-0.385,1.672-0.957c0.339-0.448,0.679-0.895,1.018-1.342
					c0.302-0.409,0.648-0.772,1.038-1.089c0.521-0.14-0.024,0.025,0.369,0.044c0.694,0.033,0.827-0.152,1.255-0.782
					c0.21-0.308,0.606-1.29,1.081-1.27c0.184,0.354,0.283,0.686,0.508,1.025c0.073,0.106,0.144,0.214,0.214,0.323
					c0.146,0.132,0.168,0.281,0.066,0.445c-0.051,0.058-0.103,0.116-0.154,0.174c0.072,0.348,0.191,0.68,0.358,0.996
					c0.11,0.362,0.034,0.729,0.127,1.072c0.255,0.938,1.438,0.806,2.122,0.847c1.823,0.109,3.339-1.29,5.129-1.208
					C162.282,146.21,163.226,146.335,164.121,146.277z"/>
			</g>
			<path style="fill:#AB764B;" d="M166.236,141.851c-0.243,1.259,1.857,2.088,2.518,2.916c0.695,0.871-0.149,0.968-0.556,1.531
				c0.014,0.457,0.015,0.915,0.002,1.373c-0.038,0.798,0.049,1.58,0.259,2.348c0.299,0.923,0.907,1.717,1.345,2.568
				c0.55,1.07,1.283,2.294,1.258,3.508c-0.037,1.788-0.549,3.718,1.199,4.812c0.798,0.499,2.001,0.572,2.862,0.967
				c0.469,0.223,0.932,0.458,1.389,0.705c0.307,0.275,0.306,0.56-0.005,0.854c-0.441,1.609-1.874,2.904-2.33,4.545
				c-0.28,1.008-0.319,1.999-0.303,3.039c0.006,0.397-0.06,0.792-0.058,1.183c0.011,1.922,1.358,3.463,1.862,5.212
				c0.242,0.839,0.21,1.638,0.193,2.529c-0.023,1.27-0.637,2.372-0.853,3.627c-0.05,1.18-0.18,2.352-0.39,3.514
				c-0.25,2.072-0.713,4.101-1.389,6.087c-0.558,1.973-1.057,4.832-2.281,6.636c-0.662,0.976-0.483,1.501-0.464,2.821
				c0.035,2.347-0.121,4.484-0.673,6.78c-0.214,0.89-0.14,1.554-0.234,2.431c-0.178,1.646-0.637,3.083-1.324,4.589
				c-0.588,1.289-1.449,2.365-2.07,3.629c-0.598,1.45-1.159,2.915-1.683,4.394c-0.432,1.068-0.873,2.133-1.324,3.193
				c-0.305,1.157,0.399,2.715-0.085,3.782c-0.248,0.233-0.52,0.434-0.816,0.605c-0.669,0.678-1.4,1.28-2.194,1.807
				c-0.596,0.403-1.17,0.569-1.266,1.349c-0.102,0.833,0.595,2.176,1.131,2.769c0.586,0.648,0.593,0.693,0.612,1.544
				c0.556,0.277,2.01-0.21,2.374-0.31c1.217-0.335,2.411-0.606,3.63-0.917c1.335-0.341,2.593-0.905,3.851-1.455
				c0.596-0.261,1.186-0.4,1.443-1.003c0.025-0.22,0.067-0.438,0.126-0.652c0.266-0.274,0.508-0.567,0.728-0.879
				c0.48-0.623,0.92-1.278,1.394-1.907c2.601-3.461,4.978-7.04,6.862-10.947c0.845-1.844,1.551-3.737,2.12-5.678
				c0.106-0.712,0.373-1.35,0.801-1.914c0.458-0.281,0.583,0.03,0.99-0.445c0.108-0.209,0.215-0.417,0.323-0.626
				c0.712-2.19,1.285-4.418,1.717-6.682c0.386-1.652,0.727-3.268,1.355-4.848c0.581-1.461,1.287-2.829,1.736-4.341
				c1.588-5.341,1.621-11.074,3.02-16.484c1.505-5.821,2.929-11.696,3.951-17.629c0.445-2.581,1.204-5.491,0.599-8.095
				c-0.262-1.129-0.432-1.614-1.42-2.149c-0.674-0.177-1.332-0.405-1.975-0.682c-0.827-0.37-1.673-0.685-2.54-0.944
				c-1.436-0.464-2.953-0.791-4.288-1.522c-1.525-0.835-2.54-2.728-2.729-4.442c-0.142-1.288-0.162-2.189-0.546-3.57
				c-0.217-0.781-0.342-1.985-1.119-2.33c-0.426-0.189-1.099-0.029-1.551-0.024c-1.354,0.017-2.632,0.059-3.952-0.31
				c-1.198-0.335-2.465-0.806-3.746-0.578c-0.649,0.116-0.742,0.5-1.252,0.825c-0.464,0.295-0.935,0.543-1.406,0.86
				C169.962,140.564,168.102,140.153,166.236,141.851z"/>
			<path style="fill:#78432F;" d="M73.533,175.606c0.099,5.676,0.549,11.67,1.456,17.937c2.545-4.126,2.737-9.87,0.545-14.96
				C75.038,177.431,74.348,176.438,73.533,175.606z"/>
			<path style="fill:#AB764B;" d="M79.893,174.751c-1.384-1.814-3.481-2.947-5.647-3.64c-1.63-0.521-3.293,0.686-3.289,2.397
				c0.004,1.711,0.039,3.451,0.109,5.221c0.044,1.123,0.854,2.08,1.95,2.331c0.972,0.223,1.542,0.464,1.542,0.464
				C78.622,183.09,82.723,178.461,79.893,174.751z"/>
			<path style="fill:#AB764B;" d="M171.972,128.982c-0.842,0.01-1.284-0.658-1.602-1.345c-0.396-0.856-0.447-1.909-0.712-2.814
				c-0.171-0.584-0.373-1.175-0.682-1.705c-0.438-0.752-0.987-0.573-1.789-0.55c-1.662,0.049-3.288-0.217-4.549-1.382
				c-0.429-0.396-0.639-0.976-1.04-1.387c-0.464-0.474-1.017-0.36-1.63-0.383c-0.62-0.022-1.197-0.222-1.801-0.289
				c-0.159-0.018-0.395,0.053-0.539,0.014c-0.631-0.17-1.092-1.415-1.346-1.918c-0.292-0.578-0.59-1.155-0.78-1.776
				c-0.525,0.073-1.115,0.082-1.641,0.048c-0.388-0.025-0.262-0.1-0.477-0.325c-0.426-0.446-0.808-1.247-1.448-1.337
				c-0.27-0.038-0.526-0.124-0.795-0.166c-0.649-0.101-1.859,0.026-2.33,0.025c-1.349-0.004-3.147,0.151-4.447-0.434
				c-0.479-0.215-0.911-0.479-1.432-0.67c-0.995-0.365-1.954-0.823-2.95-1.178c-0.565-0.201-0.735-0.437-1.225-0.942
				c-0.48-0.449-0.897-0.949-1.251-1.5c-0.089-0.122-0.179-0.244-0.268-0.366c-0.534-0.318-1.928,0.417-2.152,0.502
				c-2.494,0.953-4.936,2.04-7.409,3.047c-0.099,0.04-1.919,0.958-2.423,0.893c-0.856-0.11-0.618-1.369-0.786-1.985
				c-0.251-0.115-0.539,0.085-0.778,0.153c-0.745,0.212-1.74,0.238-2.51,0.179c-0.676-0.052-1.227-0.364-1.94-0.347
				c-0.368,0.008-0.468-0.028-0.771-0.164c-0.437-0.196-0.501-0.164-0.882-0.004c-0.301,0.127-0.75,0.288-1.095,0.399
				c-1.467,0.47-2.881,1.106-4.272,1.767c-0.617,0.293-0.782,0.484-1.346,0.481c-0.422-0.003-0.455,0.043-0.802,0.265
				c-0.569,0.363-1.988,0.832-2.385,0.975c-0.776,0.279-1.547,0.601-2.382,0.586c-0.425-0.008-0.833-0.238-1.244-0.209
				c-0.464,0.032-1.031,0.475-1.427,0.696c-1.318,0.737-2.567,1.595-3.84,2.405c-0.963,0.613-1.917,1.234-3.091,1.195
				c-0.493-0.017-0.707-0.082-1.051,0.292c-0.434,0.472-0.765,0.942-1.121,1.471c-0.415,0.617-0.917,1.365-1.754,1.394
				c-0.295,0.01-0.638-0.023-0.937-0.034c-0.306-0.011-0.34,0.027-0.522-0.185c-0.115-0.133-0.111-0.331-0.321-0.358
				c-0.243-0.031-0.87,0.69-0.952,0.779c-0.491,0.528-0.811,1.179-1.224,1.765c-0.55,0.781-1.325,1.459-1.697,2.357
				c-0.202,0.486-0.119,0.77-0.09,1.223c-1.317-0.657-1.626-0.98-2.141-0.998c-0.443-0.015-0.987-0.045-1.431,0
				c-0.463,0.047-0.499,0.149-0.78,0.595c-0.651,1.034-1.03,1.855-2.12,2.518c-0.369,0.225-1.162,0.723-1.637,0.829
				c-0.288,0.065-0.578-0.022-0.867,0c-0.154,0.247-0.212,0.521-0.176,0.823c-0.045,0.58-0.159,1.146-0.34,1.698
				c-0.203,0.725-0.25,1.083-0.94,1.441c-0.433,0.224-0.657,0.532-0.986,0.867c-0.408,0.416-0.896,0.418-0.92,1.037
				c-0.051,1.321,0.083,2.654,0.022,3.974c-0.062,1.331-1.127,2.111-1.64,3.265c-0.143,0.322-0.124,0.536-0.166,0.854
				c-0.071,0.534-0.241,1.052-0.37,1.573c-0.213,0.856-0.304,1.741-0.542,2.59c-0.151,0.54-0.404,0.263-0.596,0.654
				c-0.077,0.157,0.015,0.77,0.018,0.953c0.004,0.39,0.027,0.431,0.168,0.78c0.12,0.299,0.317,0.712,0.139,1.048
				c-0.142,0.267-0.412,0.269-0.631,0.426c0.054,0.572,0.381,1.227,0.584,1.773c0.277,0.744,0.651,1.197,1.236,1.693
				c0.155,0.131,0.326,0.274,0.507,0.398c-0.049,0.285-0.081,0.566-0.033,0.829c0.162,0.115,0.341,0.177,0.536,0.186
				c-0.475,0.908-0.243,2.373-0.225,3.378c0.014,0.765-0.021,0.532,0.431,1.021c0.406,0.097,0.732,0.311,0.98,0.641
				c0.096,0.241,0.197,0.48,0.304,0.717c0.255,0.505,0.605,0.966,0.94,1.417c0.221,0.087,0.407,0.223,0.559,0.407
				c0.053,0.252,0.099,0.505,0.136,0.76c0.572,1.165,2.085,0.61,2.131,2.171c0.015,0.486-0.168,1.183-0.036,1.636
				c0.234,0.804,0.416,0.332,1.118,0.523c0.763,0.207,1.094,0.952,1.84,1.171c0.321,0.094,0.718-0.078,1.078,0.027
				c1.395,0.407,2.136,1.709,3.685,1.777c1.078,0.047,2.178-0.018,3.259-0.017c0.635,0.001,1.267-0.003,1.902-0.017
				c0.976-0.079,1.943-0.019,2.903,0.178c0.62,0.194,1.234,0.404,1.843,0.63c0.28-0.047,1.379-0.954,1.378-0.953
				c1.305-1.008,0.754-1.556,2.456-1.193c2.128,0.455,4.17,1.256,6.181,2.065c1.251,0.504,1.377,0.403,2.414-0.258
				c0.447-0.286,0.703-0.271,0.917-0.791c0.402-0.979,0.171-1.54,1.147-2.335c0.711-0.578,1.55-0.706,1.464-1.707
				c-0.054-0.624-0.456-1.052,0.364-1.401c0.62-0.265,0.895,0.191,1.374-0.412c0.539-0.679,0.867-2.319,1.128-3.103
				c-0.136-0.396-0.044-0.682,0.275-0.859c0.522-0.06,1.023-0.197,1.503-0.412c1.216-0.445,2.376-0.889,3.531-1.49
				c1.334-0.694,4.482-2.081,4.69-3.911c0.11-0.97-0.627-1.725-0.792-2.63c0.426-0.08,1.358,0.224,1.724-0.032
				c0.81-0.566,0.775-2.35,0.833-3.49c0.213-0.189,0.431-0.371,0.643-0.561c0.276-0.044,0.48-0.128,0.627-0.279
				c0.237,0.241,0.532,0.759,0.637,0.89c0.464,0.582,0.498,0.317,0.981-0.03c2.426-1.743,4.594-3.764,7.234-5.224
				c0.645-0.357,1.105-0.818,1.794-0.533c0.565,0.234,1.648,0.318,2.238,0.138c0.504-0.264,1-0.543,1.488-0.836
				c0.411-0.205,0.814-0.425,1.21-0.659c0.5-0.317,0.945-0.718,1.43-1.058c0.831-0.583,1.596-0.877,2.613-0.885
				c0.661-0.005,0.786,0.127,1.318,0.485c0.763,0.513,1.268-0.419,1.73-1.003c0.351-0.457,0.702-0.913,1.054-1.37
				c0.312-0.418,0.67-0.79,1.074-1.117c0.539-0.154-0.025,0.026,0.381,0.034c0.718,0.014,0.855-0.175,1.298-0.817
				c0.217-0.314,0.627,0.693,1.118,0.701c0.191,0.349,0.293-1.322,0.525-0.989c0.075,0.104,0.149,0.21,0.221,0.317
				c0.151,0.128,0.174,0.276,0.068,0.443c-0.053,0.059-0.106,0.119-0.159,0.178c0.074,0.346,0.198,0.675,0.37,0.986
				c0.114,0.359,0.035,0.729,0.132,1.068c0.264,0.931,1.488,0.766,2.195,0.788c1.886,0.058,3.455-1.382,5.307-1.349
				c0.932,0.017,1.909,0.117,2.835,0.034c0.172,0.084,0.327,0.051,0.462-0.099c0.14-0.199,0.281-0.397,0.421-0.596
				c0.559-0.817,1.02-1.659,1.417-2.562c0.298-0.676,0.257-0.889,0.977-0.872c0.129-0.015,0.257-0.006,0.385,0.024
				c0.199,0.089,0.332,0.238,0.397,0.447c0.219,0.173,0.363,0.355,0.689,0.199c0.077-2.152,0.263-4.268,0.443-6.414
				C171.953,130.493,172.125,129.511,171.972,128.982z"/>
			<path style="fill:#B37B4E;" d="M97.523,149.095c0.285-0.022,0.57,0.065,0.854,0c0.468-0.107,1.249-0.605,1.612-0.829
				c1.074-0.664,1.446-1.485,2.088-2.518c0.277-0.446,0.312-0.549,0.768-0.595c0.437-0.045,0.973-0.015,1.409,0
				c0.507,0.018,0.811,0.341,2.108,0.998c-0.029-0.452-0.109-0.736,0.089-1.223c0.367-0.898,1.13-1.576,1.671-2.357
				c0.407-0.587,0.723-1.237,1.206-1.765c0.081-0.088,0.698-0.81,0.937-0.779c0.207,0.027,0.203,0.225,0.316,0.358
				c0.179,0.212,0.213,0.174,0.514,0.185c0.294,0.011,0.632,0.044,0.923,0.034c0.824-0.028,1.319-0.777,1.727-1.394
				c0.35-0.529,0.676-0.999,1.104-1.471c0.339-0.375,0.55-0.309,1.035-0.292c1.157,0.04,2.095-0.582,3.044-1.195
				c1.254-0.81,2.483-1.668,3.781-2.405c0.391-0.222,0.949-0.665,1.406-0.696c0.405-0.028,0.806,0.202,1.225,0.209
				c0.822,0.015,1.581-0.308,2.345-0.586c0.39-0.142,1.788-0.612,2.348-0.975c0.342-0.222,0.375-0.268,0.79-0.265
				c0.556,0.003,0.718-0.188,1.326-0.481c1.37-0.661,2.762-1.297,4.207-1.767c0.339-0.111,0.782-0.272,1.079-0.399
				c0.375-0.16,0.438-0.192,0.868,0.004c0.298,0.136,0.397,0.173,0.759,0.164c0.702-0.017,1.244,0.296,1.91,0.347
				c0.758,0.059,1.738,0.032,2.472-0.179c0.235-0.068,0.519-0.267,0.766-0.153c0.165,0.616-0.069,1.875,0.774,1.985
				c0.496,0.065,2.288-0.853,2.385-0.893c2.434-1.007,4.839-2.094,7.295-3.047c0.22-0.085,1.593-0.82,2.119-0.502
				c0.088,0.122,0.176,0.244,0.264,0.366c0.349,0.552,0.76,1.052,1.232,1.5c0.482,0.505,0.65,0.741,1.206,0.942
				c0.981,0.355,1.925,0.812,2.905,1.178c0.513,0.191,0.939,0.455,1.41,0.67c1.279,0.585,3.051,0.43,4.379,0.434
				c0.357,0.001,1.142-0.073,1.777-0.061c-0.089-0.466-0.166-0.937-0.292-1.373c-0.168-0.584-0.368-1.175-0.671-1.705
				c-0.432-0.752-0.972-0.573-1.762-0.55c-1.636,0.049-3.237-0.217-4.479-1.382c-0.423-0.396-0.629-0.976-1.024-1.387
				c-0.456-0.474-1.001-0.361-1.605-0.383c-0.611-0.023-1.179-0.222-1.773-0.289c-0.157-0.018-0.389,0.053-0.531,0.014
				c-0.622-0.17-1.075-1.415-1.325-1.918c-0.288-0.578-0.581-1.155-0.768-1.776c-0.517,0.073-1.097,0.082-1.616,0.048
				c-0.382-0.025-0.258-0.1-0.469-0.325c-0.42-0.446-0.796-1.248-1.426-1.337c-0.266-0.038-0.518-0.124-0.783-0.166
				c-0.639-0.101-1.831,0.026-2.294,0.025c-1.328-0.004-3.099,0.151-4.379-0.434c-0.471-0.215-0.897-0.479-1.41-0.67
				c-0.98-0.365-1.924-0.822-2.905-1.178c-0.557-0.201-0.724-0.437-1.206-0.942c-0.472-0.449-0.883-0.949-1.232-1.5
				c-0.088-0.122-0.176-0.244-0.264-0.366c-0.525-0.318-1.898,0.417-2.119,0.502c-2.456,0.953-4.861,2.04-7.295,3.047
				c-0.097,0.04-1.89,0.958-2.385,0.893c-0.843-0.11-0.609-1.369-0.774-1.985c-0.248-0.115-0.531,0.085-0.766,0.153
				c-0.734,0.212-1.714,0.238-2.472,0.179c-0.666-0.051-1.208-0.364-1.91-0.347c-0.363,0.008-0.461-0.028-0.759-0.164
				c-0.43-0.196-0.493-0.164-0.868-0.004c-0.296,0.127-0.739,0.288-1.079,0.399c-1.445,0.47-2.837,1.106-4.207,1.767
				c-0.608,0.293-0.77,0.484-1.326,0.481c-0.415-0.003-0.448,0.043-0.79,0.265c-0.56,0.363-1.958,0.832-2.348,0.975
				c-0.764,0.278-1.523,0.601-2.345,0.586c-0.418-0.008-0.82-0.237-1.225-0.209c-0.457,0.032-1.015,0.474-1.406,0.696
				c-1.298,0.738-2.527,1.595-3.781,2.405c-0.949,0.613-1.887,1.234-3.044,1.195c-0.485-0.016-0.697-0.082-1.035,0.292
				c-0.427,0.472-0.753,0.942-1.104,1.471c-0.408,0.617-0.902,1.365-1.727,1.394c-0.291,0.01-0.628-0.023-0.923-0.034
				c-0.301-0.011-0.335,0.027-0.514-0.185c-0.113-0.133-0.109-0.331-0.316-0.358c-0.239-0.031-0.857,0.69-0.937,0.779
				c-0.483,0.529-0.799,1.179-1.206,1.766c-0.541,0.781-1.305,1.459-1.671,2.357c-0.199,0.486-0.118,0.77-0.089,1.223
				c-1.297-0.657-1.602-0.98-2.108-0.998c-0.436-0.016-0.972-0.045-1.409,0c-0.456,0.047-0.491,0.149-0.768,0.595
				c-0.641,1.034-1.014,1.855-2.088,2.518c-0.363,0.225-1.144,0.723-1.612,0.829c-0.284,0.065-0.569-0.022-0.854,0
				c-0.151,0.247-0.209,0.521-0.173,0.823c-0.045,0.58-0.156,1.146-0.335,1.698c-0.2,0.725-0.246,1.083-0.926,1.441
				c-0.204,0.107-0.36,0.235-0.504,0.374c6.542,3.57,13.562,6.385,20.936,8.34C97.496,149.17,97.501,149.13,97.523,149.095z"/>
			<g>
				<path style="fill:#78432F;" d="M153.149,193.838c-5.681,1.611-11.314-5.763-10.075-17.21
					c1.239-11.447,13.916-10.868,17.373-2.84C163.905,181.816,161.452,191.483,153.149,193.838z"/>
				<g>
					<path style="fill:none;stroke:#381A0F;stroke-linecap:round;stroke-linejoin:round;stroke-miterlimit:10;" d="M146.617,182.684
						c0-2.909,2.358-5.267,5.267-5.267c2.909,0,5.267,2.358,5.267,5.267"/>
				</g>
				<path style="fill:#AB764B;" d="M160.587,174.045c0,0-6.587-3.792-14.393,0.055c-7.806,3.847-8.497-2.652-6.556-7.179
					c1.941-4.527,11.425-6.996,15.078-6.484c3.652,0.513,10.031,2.233,12.706,6.741C170.097,171.687,164.919,176.32,160.587,174.045
					z"/>
			</g>
			<path style="fill:#4A3833;" d="M89.151,213.378c4.255,0.649,8.566,0.762,12.826,0.149c6.18-0.889,13.353-0.947,15.998,0.213
				c4.807,2.108,8.869,5,8.684,13.975c-0.219,10.668-8.115,13.516-13.773,13.673c-5.658,0.157-10.844-2.514-18.545-2.514
				s-2.975,0.448-9.89-0.023c-6.915-0.471-8.419-10.902-7.712-17.35C77.264,216.725,80.12,212,89.151,213.378z"/>
			<path style="fill:#54403A;" d="M98.43,226.614c9.123,0,17.243-2.891,22.484-7.391c0.476-0.409,0.445-1.163-0.045-1.555
				c-1.195-0.957-2.57-1.675-4.022-2.312c-2.444-1.071-9.015-1.033-14.75-0.233c-4.104,0.573-8.253,0.486-12.352-0.121
				c-6.921-1.024-9.935,1.803-11.051,5.328c-0.143,0.452,0.014,0.951,0.417,1.2C84.203,224.686,90.982,226.614,98.43,226.614z"/>
			<path style="fill:#302522;" d="M108.082,225.351c-1.679-0.838-1.74-3.2-0.161-4.214c2.736-1.757,7.201-3.413,11.15-1.055
				c4.993,2.982,4.019,11.808,0.696,13.933s-5.496-7.744-5.496-7.744S110.483,226.549,108.082,225.351z"/>
			<path style="fill:#302522;" d="M89.342,224.538c1.129-0.765,1.072-2.871-0.065-3.757c-1.97-1.536-5.135-2.966-7.774-0.822
				c-3.337,2.711-2.292,10.568,0.101,12.427c2.393,1.859,3.486-6.961,3.486-6.961S87.728,225.632,89.342,224.538z"/>
			<g>
				<path style="fill:#4A3833;" d="M158.419,137.202c9.942-1.442,26.211-6.586,15.756-24.938c0,0,33.307,31.311-10.639,45.788
					c-6.945,2.288-14.244-2.68-14.38-9.991c-0.002-0.112-0.003-0.225-0.003-0.338C149.155,142.428,153.178,137.962,158.419,137.202z
					"/>
				<path style="fill:#3B2C28;" d="M180.575,119.993c4,10.159,3.359,23.307-19.523,31.311c-4.628,1.619-9.41-0.404-11.865-4.31
					c-0.017,0.242-0.035,0.484-0.035,0.73c0,0.113,0.001,0.226,0.003,0.338c0.137,7.311,7.435,12.279,14.38,9.991
					C193.725,148.108,187.458,130.219,180.575,119.993z"/>
			</g>
			<path style="fill:#916440;" d="M184.182,174.468c0,0,14.92-13.144,25.348,9.376c0,0-17.265,21.653-32.523-1.57L184.182,174.468z"
				/>
			<g>
				<path style="fill:#8A4D36;" d="M178.585,171.331c0,0,5.154-19.204,26.302-6.217c0,0-2.399,27.589-27.958,16.69L178.585,171.331z
					"/>
				<path style="fill:#78432F;" d="M178.007,174.987l-0.714,4.517c13.899,4.747,19.196-3.057,21.143-8.455
					C184.869,164.154,179.553,171.787,178.007,174.987z"/>
				<path style="fill:#663928;" d="M177.223,179.943c9.616-1.065,12.654-4.275,13.595-6.225c-7.911,0.206-11.574,2.256-13.202,3.739
					L177.223,179.943z"/>
				<path style="fill:#94533A;" d="M204.233,167.478c0,0-0.126,1.415-0.611,3.469c1.037-3.26,1.265-5.834,1.265-5.834
					c-21.148-12.987-26.302,6.217-26.302,6.217l-0.15,0.946C180.149,168.092,186.678,156.697,204.233,167.478z"/>
			</g>
		</g>
	</g>
</g>
<g id="DESIGNED_BY_FREEPIK">
	<g>
		<g id="XMLID_319_">
			<g id="XMLID_338_">
				<path id="XMLID_346_" style="fill:#A5B7C6;" d="M260.104,470.394c-0.432,0.443-0.803,0.931-1.108,1.453l-0.465-0.241
					c-0.067-0.298-0.349-0.503-0.659-0.466c-0.331,0.039-0.568,0.339-0.529,0.67c0.039,0.331,0.339,0.568,0.67,0.529
					c0.066-0.008,0.127-0.026,0.184-0.052l0.451,0.234c-0.251,0.554-0.433,1.139-0.539,1.744l0.746,0.132
					c0.23-1.306,0.85-2.507,1.792-3.473L260.104,470.394z"/>
				<path id="XMLID_345_" style="fill:#A5B7C6;" d="M265.592,468.092c-0.171,0-0.341,0.006-0.51,0.017l-0.074-0.626
					c0.188-0.149,0.296-0.389,0.266-0.645c-0.046-0.393-0.402-0.674-0.795-0.628c-0.393,0.046-0.674,0.402-0.628,0.795
					c0.03,0.254,0.189,0.461,0.404,0.564l0.074,0.624c-0.714,0.116-1.403,0.332-2.06,0.646l0.327,0.684
					c0.934-0.447,1.942-0.673,2.995-0.673c0.496,0,0.993,0.053,1.475,0.158l0.161-0.741
					C266.692,468.151,266.142,468.092,265.592,468.092z"/>
				<path id="XMLID_344_" style="fill:#A5B7C6;" d="M272.194,470.639c0.331-0.04,0.566-0.341,0.526-0.672
					c-0.04-0.331-0.341-0.566-0.672-0.526c-0.309,0.038-0.535,0.304-0.53,0.609l-0.416,0.363c-0.418-0.43-0.889-0.813-1.408-1.139
					l-0.404,0.641c1.134,0.715,2.021,1.726,2.563,2.925l0.69-0.313c-0.251-0.554-0.568-1.072-0.942-1.545l0.402-0.351
					C272.065,470.644,272.129,470.647,272.194,470.639z"/>
				<path id="XMLID_343_" style="fill:#A5B7C6;" d="M265.044,478.3c-0.386,0.023-0.775,0.035-1.157,0.035
					c-0.88,0-1.733-0.061-2.478-0.179c-0.39-0.062-0.846-0.155-1.27-0.292c1.046,1.861,3.069,3.125,5.388,3.125
					c2.855,0,5.262-1.916,5.95-4.504c-0.682,0.449-1.505,0.825-2.459,1.123C267.839,477.976,266.463,478.215,265.044,478.3z"/>
				<path id="XMLID_339_" style="fill:#A5B7C6;" d="M265.592,469.608c-3.352,0-6.08,2.666-6.08,5.944
					c0,0.426,0.046,0.849,0.137,1.261c0.673,0.483,2.706,0.89,5.348,0.731c2.879-0.173,5.297-0.957,6.672-2.159
					c-0.006-0.195-0.021-0.39-0.045-0.582C271.244,471.842,268.65,469.608,265.592,469.608z M263.432,476.123
					c-1.02,0-1.85-0.83-1.85-1.85c0-1.02,0.83-1.85,1.85-1.85c1.02,0,1.85,0.83,1.85,1.85
					C265.282,475.293,264.452,476.123,263.432,476.123z M268.17,475.215c-0.75,0-1.36-0.61-1.36-1.36c0-0.75,0.61-1.361,1.36-1.361
					c0.75,0,1.361,0.61,1.361,1.361C269.53,474.605,268.92,475.215,268.17,475.215z"/>
			</g>
			<path id="XMLID_336_" style="fill:#A5B7C6;" d="M281.595,471.475c-0.295-0.116-0.805-0.309-1.382-0.237
				c-0.551,0.068-0.844,0.34-0.844,1.007v0.866h2.228v1.717h-2.228v5.455h-1.932v-5.455h-1.34v-1.717h1.34v-0.888
				c0-1.68,0.896-2.783,2.568-2.783c0.643,0,1.157,0.122,1.59,0.308L281.595,471.475z"/>
			<path id="XMLID_334_" style="fill:#A5B7C6;" d="M286.298,474.807c-0.177-0.03-0.358-0.046-0.526-0.046
				c-0.895,0-1.51,0.548-1.51,1.613v3.908h-1.932v-7.172h1.873v0.785c0.451-0.674,1.14-0.977,2.021-0.977
				c0.414,0,0.848,0.128,1.094,0.337L286.298,474.807z"/>
			<path id="XMLID_331_" style="fill:#A5B7C6;" d="M293.965,476.685c0,0.222-0.015,0.489-0.037,0.651h-5.085
				c0.207,1.036,0.933,1.488,1.843,1.488c0.622,0,1.295-0.252,1.813-0.688l1.133,1.243c-0.814,0.748-1.85,1.088-3.057,1.088
				c-2.198,0-3.723-1.495-3.723-3.753c0-2.257,1.48-3.797,3.627-3.797C292.544,472.918,293.958,474.45,293.965,476.685z
				 M288.851,476.019h3.175c-0.177-0.918-0.733-1.436-1.562-1.436C289.554,474.583,289.021,475.131,288.851,476.019z"/>
			<path id="XMLID_328_" style="fill:#A5B7C6;" d="M301.618,476.685c0,0.222-0.015,0.489-0.037,0.651h-5.085
				c0.207,1.036,0.932,1.488,1.843,1.488c0.622,0,1.295-0.252,1.814-0.688l1.132,1.243c-0.814,0.748-1.85,1.088-3.057,1.088
				c-2.198,0-3.723-1.495-3.723-3.753c0-2.257,1.48-3.797,3.627-3.797C300.197,472.918,301.611,474.45,301.618,476.685z
				 M296.504,476.019h3.175c-0.178-0.918-0.733-1.436-1.562-1.436C297.207,474.583,296.674,475.131,296.504,476.019z"/>
			<path id="XMLID_325_" style="fill:#A5B7C6;" d="M309.964,476.693c0,2.154-1.495,3.775-3.471,3.775
				c-0.962,0-1.643-0.378-2.109-0.933v3.708h-1.924v-10.133h1.887v0.792c0.466-0.585,1.155-0.984,2.139-0.984
				C308.469,472.918,309.964,474.539,309.964,476.693z M304.287,476.693c0,1.132,0.747,1.976,1.843,1.976
				c1.14,0,1.85-0.881,1.85-1.976c0-1.095-0.711-1.976-1.85-1.976C305.035,474.717,304.287,475.56,304.287,476.693z"/>
			<path id="XMLID_322_" style="fill:#A5B7C6;" d="M313.067,470.764c0,0.696-0.54,1.229-1.236,1.229
				c-0.696,0-1.229-0.533-1.229-1.229c0-0.696,0.533-1.243,1.229-1.243C312.527,469.521,313.067,470.069,313.067,470.764z
				 M312.809,480.283h-1.932v-7.172h1.932V480.283z"/>
			<path id="XMLID_320_" style="fill:#A5B7C6;" d="M316.032,475.664l2.702-2.554h2.368l-3.479,3.375l3.501,3.797h-2.376
				l-2.716-2.901v2.901H314.1v-10.658h1.932V475.664z"/>
		</g>
		<g>
			<path style="fill:#A5B7C6;" d="M184.412,480.217v-1.055c-0.527,0.718-1.391,1.23-2.387,1.23c-1.846,0-3.149-1.406-3.149-3.706
				c0-2.256,1.289-3.721,3.149-3.721c0.952,0,1.816,0.469,2.387,1.245v-3.765h1.099v9.77H184.412z M184.412,478.299v-3.208
				c-0.395-0.615-1.245-1.143-2.124-1.143c-1.421,0-2.27,1.172-2.27,2.739c0,1.567,0.85,2.724,2.27,2.724
				C183.168,479.412,184.017,478.914,184.412,478.299z"/>
			<path style="fill:#A5B7C6;" d="M186.932,476.673c0-2.051,1.465-3.706,3.486-3.706c2.139,0,3.398,1.67,3.398,3.794v0.279h-5.727
				c0.088,1.333,1.025,2.446,2.549,2.446c0.805,0,1.626-0.322,2.182-0.893l0.527,0.718c-0.703,0.703-1.655,1.084-2.812,1.084
				C188.44,480.393,186.932,478.885,186.932,476.673z M190.403,473.875c-1.509,0-2.256,1.274-2.314,2.358h4.643
				C192.718,475.179,192.015,473.875,190.403,473.875z"/>
			<path style="fill:#A5B7C6;" d="M194.607,479.28l0.571-0.791c0.469,0.542,1.362,1.011,2.329,1.011c1.084,0,1.67-0.513,1.67-1.216
				c0-1.714-4.38-0.659-4.38-3.281c0-1.098,0.952-2.036,2.636-2.036c1.201,0,2.051,0.454,2.622,1.026l-0.513,0.762
				c-0.424-0.513-1.201-0.894-2.109-0.894c-0.967,0-1.567,0.483-1.567,1.113c0,1.553,4.38,0.527,4.38,3.281
				c0,1.187-0.952,2.139-2.783,2.139C196.306,480.393,195.325,480.042,194.607,479.28z"/>
			<path style="fill:#A5B7C6;" d="M201.477,471.4c0-0.41,0.337-0.747,0.732-0.747c0.41,0,0.747,0.337,0.747,0.747
				c0,0.41-0.337,0.732-0.747,0.732C201.814,472.132,201.477,471.81,201.477,471.4z M201.667,480.217v-7.075h1.099v7.075H201.667z"
				/>
			<path style="fill:#A5B7C6;" d="M204.582,482.034l0.556-0.82c0.586,0.703,1.289,0.967,2.3,0.967c1.172,0,2.27-0.571,2.27-2.124
				v-1.011c-0.513,0.718-1.377,1.26-2.373,1.26c-1.845,0-3.149-1.377-3.149-3.662c0-2.27,1.289-3.677,3.149-3.677
				c0.952,0,1.802,0.469,2.373,1.245v-1.069h1.098v6.87c0,2.344-1.641,3.076-3.369,3.076
				C206.237,483.089,205.417,482.854,204.582,482.034z M209.709,478.182v-3.091c-0.381-0.615-1.23-1.143-2.109-1.143
				c-1.421,0-2.27,1.128-2.27,2.695c0,1.553,0.849,2.695,2.27,2.695C208.478,479.339,209.328,478.797,209.709,478.182z"/>
			<path style="fill:#A5B7C6;" d="M217.413,480.217v-4.629c0-1.245-0.63-1.641-1.582-1.641c-0.865,0-1.685,0.527-2.095,1.099v5.17
				h-1.099v-7.075h1.099v1.025c0.498-0.586,1.465-1.201,2.519-1.201c1.48,0,2.256,0.747,2.256,2.285v4.966H217.413z"/>
			<path style="fill:#A5B7C6;" d="M219.932,476.673c0-2.051,1.465-3.706,3.486-3.706c2.139,0,3.398,1.67,3.398,3.794v0.279h-5.727
				c0.088,1.333,1.025,2.446,2.549,2.446c0.806,0,1.626-0.322,2.183-0.893l0.527,0.718c-0.703,0.703-1.655,1.084-2.812,1.084
				C221.441,480.393,219.932,478.885,219.932,476.673z M223.404,473.875c-1.509,0-2.256,1.274-2.314,2.358h4.643
				C225.718,475.179,225.015,473.875,223.404,473.875z"/>
			<path style="fill:#A5B7C6;" d="M233.35,480.217v-1.055c-0.527,0.718-1.392,1.23-2.388,1.23c-1.846,0-3.149-1.406-3.149-3.706
				c0-2.256,1.289-3.721,3.149-3.721c0.952,0,1.817,0.469,2.388,1.245v-3.765h1.098v9.77H233.35z M233.35,478.299v-3.208
				c-0.396-0.615-1.245-1.143-2.124-1.143c-1.421,0-2.27,1.172-2.27,2.739c0,1.567,0.849,2.724,2.27,2.724
				C232.105,479.412,232.954,478.914,233.35,478.299z"/>
			<path style="fill:#A5B7C6;" d="M239.692,480.217v-9.77h1.098v3.765c0.572-0.776,1.421-1.245,2.388-1.245
				c1.845,0,3.149,1.465,3.149,3.721c0,2.299-1.304,3.706-3.149,3.706c-0.996,0-1.86-0.513-2.388-1.23v1.055H239.692z
				 M242.9,479.412c1.436,0,2.285-1.157,2.285-2.724c0-1.568-0.85-2.739-2.285-2.739c-0.864,0-1.728,0.527-2.109,1.143v3.208
				C241.171,478.914,242.036,479.412,242.9,479.412z"/>
			<path style="fill:#A5B7C6;" d="M247.528,481.99c0.161,0.073,0.425,0.117,0.601,0.117c0.483,0,0.805-0.161,1.055-0.747
				l0.469-1.069l-2.959-7.148h1.187l2.358,5.801l2.344-5.801h1.201l-3.545,8.51c-0.425,1.025-1.143,1.421-2.08,1.435
				c-0.234,0-0.601-0.044-0.806-0.103L247.528,481.99z"/>
		</g>
	</g>
</g>
</svg>
